<svg width="200" height="53" viewBox="0 0 160 53" fill="none" xmlns="http://www.w3.org/2000/svg">
<path d="M50.9617 27.8741C52.361 27.5589 53.8186 27.3281 55.145 26.9068C56.8093 26.3779 57.4823 26.3507 59.021 27.2112C59.1697 27.4319 59.238 27.5813 59.2823 27.7854C59.13 28.197 59.0026 28.5537 58.83 29.0392C58.4423 28.724 58.2835 28.4819 58.0223 28.4066C57.5238 28.2631 56.9183 28.079 56.4438 28.157C55.5641 28.3011 55.3297 28.8667 55.17 29.4689C53.5657 29.763 52.0389 30.023 50.417 30.268C48.366 29.8684 46.4109 29.4834 44.6524 29.1372C46.0564 30.0873 48.0392 30.5087 50.1567 30.781C49.9795 31.1616 49.8032 31.4828 49.6066 31.8411C50.154 32.002 50.6478 32.1506 51.1454 32.294C52.6601 32.7301 53.7586 33.4543 54.4306 34.4792C55.3472 35.8764 55.1653 37.2917 54.569 38.7077C54.2497 39.4657 53.8749 40.2128 53.5574 40.8959C54.3392 41.2592 55.0564 41.5468 55.6823 41.9084C55.9121 42.0412 56.0847 42.3929 55.985 42.5642C55.8992 42.7116 55.3915 42.8116 55.0666 42.8164C53.4604 42.8401 51.8543 42.8295 50.2481 42.8201C49.9057 42.8182 49.5641 42.7714 49.1266 42.7377C49.2217 42.3571 49.2853 42.0684 49.3675 41.782C49.7506 40.4428 50.2758 39.1143 50.4853 37.7626C50.6921 36.4313 50.0137 35.9424 48.0087 35.5824C46.2909 35.5455 44.657 35.5221 43.0232 35.5134C40.3352 35.4989 37.9029 35.0796 36.1546 33.5467C34.6001 31.0844 35.5694 28.7669 37.0823 26.4992C37.6232 25.688 38.3312 24.9288 39.0115 24.087C36.4555 22.6745 35.5038 20.7565 35.573 18.559C33.6069 18.3446 31.8687 18.5511 30.174 19.1197C27.3675 20.0606 27.3315 20.0359 25.9157 18.1283C25.7407 17.8926 25.6029 17.644 25.5078 17.4956C27.2422 17.2205 28.8742 16.8961 30.5395 16.7212C31.6029 16.6098 32.7152 16.7203 33.9512 16.7659C34.2235 16.8067 34.349 16.8129 34.6444 16.8274C34.3933 16.7063 34.2854 16.654 34.1774 16.6021C32.525 15.8193 30.7334 15.5987 28.7552 15.8863C27.3469 16.0912 27.2672 16.0192 26.8988 15.0526C26.7086 14.5539 26.5333 14.0527 26.3627 13.5839C27.7479 13.5403 29.047 13.4723 30.3466 13.4656C32.0893 13.4566 33.5109 14.0057 34.7681 14.7732C35.2278 15.0543 35.6321 15.3782 36.0863 15.7002C38.4918 14.1218 37.2494 12.1528 37.6398 10.3287C35.5601 9.89481 34.0592 9.06414 33.3004 7.67989C32.8029 6.77278 32.8444 5.8786 33.3364 4.98118C34.4414 2.96555 37.4164 2.03214 40.9777 2.58663C43.902 -0.423156 50.298 -1.29362 54.4232 2.63601C58.2687 2.11134 60.822 2.94811 62.0395 5.13192C63.1444 7.11451 61.8586 9.1845 58.8318 10.1286C58.0121 10.3843 57.6309 10.6764 57.7444 11.2843C57.7989 11.5783 57.7703 11.8819 57.7472 12.1801C57.6586 13.3316 57.9724 14.35 58.8041 15.4301C62.2066 19.8478 58.9057 24.6077 51.7943 25.7943C51.5497 25.8352 51.3041 25.8759 50.982 25.9294C50.982 26.3565 50.982 26.7701 50.8832 27.2763C49.2595 27.0792 47.7346 26.7898 46.1995 26.4983C47.5195 27.379 49.0721 27.8908 50.9617 27.8741ZM56.7189 3.58309C55.6509 3.76715 54.582 3.9514 53.4743 4.1422C52.5826 2.35383 50.609 1.30143 47.8112 1.22287C44.7964 1.13823 42.8672 2.32235 41.8758 4.23377C41.4992 4.09761 41.2121 3.98786 40.9177 3.889C38.5786 3.10328 35.9293 3.76503 34.9795 5.37044C34.0823 6.88743 35.3275 8.53438 37.7718 9.08426C38.2352 9.18838 38.6764 9.33598 39.2044 9.48506C39.2044 10.5964 39.2044 11.6782 39.2044 12.8397C44.8481 11.4648 50.3838 11.6997 56.0257 12.7959C56.0257 12.3979 56.0275 12.0567 56.0257 11.7154C56.0137 10.087 56.034 10.0311 53.693 9.63774C51.8487 9.32795 49.9463 9.17804 47.993 8.9481C48.3383 8.87823 48.6364 8.80374 48.9438 8.75786C51.3586 8.39712 53.7272 8.51647 56.0857 9.01577C57.6872 9.355 59.0358 8.97977 59.9524 8.03435C61.7312 6.20075 60.2534 4.05709 56.7189 3.58309ZM39.1297 20.6775C39.7407 20.742 40.3518 20.8598 40.9638 20.8624C45.2718 20.881 49.5798 20.9024 53.8869 20.859C54.9207 20.8486 55.974 20.654 56.9718 20.442C57.942 20.236 58.4949 19.7087 58.6841 19.015C59.0654 17.6167 58.1681 16.6108 55.9555 16.4164C53.141 16.1692 50.2878 16.0376 47.4503 16.0273C44.8333 16.0176 42.2035 16.1721 39.5995 16.3728C37.8641 16.5066 36.9844 17.2299 36.786 18.3293C36.5977 19.372 37.3149 20.128 39.1297 20.6775Z" fill="#E63534"/>
<path d="M58.9546 28.1814C58.8854 28.0325 58.8171 27.8835 58.7368 27.6878C60.0365 26.7067 61.5623 26.0431 63.511 25.9406C63.811 25.9248 64.122 25.9976 64.4479 26.1456C64.4525 27.6569 64.4396 29.0521 64.4257 30.4472C64.1774 30.5674 63.9319 30.7822 63.679 30.787C63.2267 30.7953 62.7688 30.6771 62.0996 30.5813C62.4559 31.0746 62.7448 31.4576 63.0125 31.8475C63.5507 32.6344 64.1063 33.4169 64.6002 34.2168C64.9593 34.799 65.4245 35.2154 66.307 35.5552C68.0626 36.2312 68.1134 37.4908 68.1051 38.7003C68.1042 38.9128 68.0017 39.1249 67.9934 39.1574C69.798 39.428 71.5713 39.5871 73.231 39.9708C75.1242 40.4085 76.3057 41.4531 77.1134 42.6677C77.6165 43.4234 77.466 43.5759 76.2734 43.6444C75.9088 43.6652 75.5423 43.6667 74.994 43.6844C71.3543 43.5533 68.0534 43.722 65.3128 45.455C64.5226 45.955 63.4002 46.2143 62.43 46.5841C59.8897 46.676 59.8906 46.676 60.4666 44.9668C60.4814 44.9225 60.45 44.8711 60.439 44.8223C60.3734 44.8217 60.2793 44.8027 60.2497 44.8243C58.3777 46.2085 56.0599 46.6401 53.3174 46.5899C48.079 46.494 42.834 46.5538 37.4885 46.4916C37.5208 46.2598 37.6528 46.0848 37.7885 45.9108C39.81 43.316 38.5288 40.3159 34.8531 39.2996C33.7288 38.9889 32.4411 38.9514 31.231 38.732C31.5208 38.5066 31.7756 38.2982 32.1014 38.1775C32.706 37.9532 33.534 37.898 33.5285 37.2135C34.4433 37.2014 35.2574 37.2021 36.1057 37.2529C36.9208 37.2708 37.7026 37.2385 38.5786 37.1951C39.0503 37.1975 39.4279 37.2109 39.8063 37.2809C39.931 37.7092 40.0547 38.0811 40.1783 38.4531C40.291 38.4631 40.4026 38.4731 40.5153 38.4832C40.7516 37.8031 41.4208 37.7288 42.2571 37.7312C43.099 37.7336 43.7626 37.8073 44.082 38.4169C44.1356 38.5207 44.4263 38.5679 44.5971 38.6916C43.759 39.5774 43.1451 40.4606 43.1193 41.4968C43.0805 43.0693 44.0848 43.8136 46.3833 43.8303C49.0537 43.8497 51.726 43.8762 54.3937 43.817C55.1405 43.8005 55.998 43.6034 56.5879 43.2973C58.5125 42.2991 59.682 40.922 60.235 39.3378C61.3362 36.1828 59.6396 33.3373 58.0048 30.4475C58.3436 30.2844 58.6611 30.1738 58.9703 30.0532C60.1362 29.5979 60.1279 28.6825 58.9546 28.1814ZM73.1303 40.7333C71.7273 40.2003 70.2605 39.9931 68.7734 40.2335C70.0066 40.5316 71.3507 40.7312 72.498 41.1688C73.6343 41.6026 74.5722 42.2762 75.5977 42.8446C75.3697 41.8276 74.4005 41.2617 73.1303 40.7333ZM67.0602 38.4525C67.6547 37.5883 66.8627 36.1772 65.5463 35.8883C65.8205 36.7099 66.0688 37.5051 66.3688 38.2909C66.4057 38.3866 66.727 38.4324 67.0602 38.4525Z" fill="#E63B3C"/>
<path d="M14.6191 31.3112C13.2462 31.0423 13.0656 30.875 13.3398 29.9502C14.1359 27.2632 14.9475 24.5783 15.7698 21.895C16.0478 20.9873 16.4773 20.8311 17.8446 21.0307C22.0201 21.6408 26.1972 22.2463 30.3762 22.8445C31.914 23.0647 32.1614 23.268 31.854 24.2967C31.0685 26.9349 30.2663 29.5712 29.4393 32.2036C29.3373 32.5284 29.0472 32.8258 28.757 33.1872C28.67 33.2384 28.5923 33.2283 28.506 33.2308C27.9168 33.1921 27.4139 33.1508 26.8412 33.0738C24.3808 32.6726 21.9953 32.2918 19.5986 31.9472C17.9469 31.7094 16.2794 31.5213 14.6191 31.3112Z" fill="#E63B3C"/>
<path d="M34.2859 37.2562C34.393 37.9344 33.5493 37.9902 32.9318 38.2167C32.5995 38.3386 32.3401 38.5491 31.9496 38.7895C28.0372 39.0832 24.6057 39.9673 21.5882 41.5675C22.0215 41.5222 22.4349 41.4382 22.8249 41.3194C26.0414 40.3401 29.2901 39.5056 32.9438 39.7274C36.3656 39.935 38.7296 41.4678 38.509 43.6866C38.4084 44.6941 37.6533 45.672 37.1946 46.6636C36.7099 46.6638 36.2253 46.6638 35.5404 46.6765C34.1742 46.6867 33.0075 46.6846 31.7364 46.676C31.0736 46.6769 30.5161 46.6841 29.8579 46.6839C28.717 46.6801 27.6755 46.6838 26.5357 46.6815C25.9088 46.6779 25.38 46.68 24.7471 46.6776C23.4935 46.6843 22.3441 46.696 21.1947 46.7077C20.2999 46.6924 19.4047 46.6853 18.5106 46.6598C17.3742 46.6273 16.8521 46.3235 16.8323 45.56C16.8191 45.0427 16.877 44.4902 17.1359 44.0099C18.62 41.2574 20.9301 38.9195 24.9412 37.3625C25.6937 37.1721 26.3188 36.9182 26.9394 36.9232C27.9423 36.9313 28.9374 37.161 29.9447 37.204C31.3875 37.2654 32.8386 37.2427 34.2859 37.2562Z" fill="#E63B3C"/>
<path d="M62.4307 46.7782C63.3833 46.3531 64.4882 46.0989 65.2673 45.6086C67.9664 43.9094 71.2184 43.7438 74.7104 43.886C76.3959 45.4523 77.1547 47.1042 76.0008 48.96C74.7039 51.0459 71.4639 52.2013 68.0633 51.7968C65.0864 51.4429 62.6217 49.4894 62.4556 47.3504C62.4417 47.1807 62.4408 47.0106 62.4307 46.7782ZM70.9737 47.071C71.0827 47.7028 70.5768 48.0364 69.7359 48.1513C68.8341 48.2745 68.2008 48.0379 67.8897 47.4266C67.6064 46.8693 67.2796 46.3218 66.951 45.7326C65.6762 46.5119 66.1728 48.0108 66.9316 48.6189C67.8344 49.3422 69.5374 49.5852 70.8925 49.1709C72.2134 48.7672 73.0359 47.709 72.7617 46.7649C72.4701 45.7568 71.1196 44.9442 69.5836 44.8918C70.0424 45.5914 70.4891 46.272 70.9737 47.071Z" fill="#383838"/>
<path d="M34.2325 37.2117C32.7049 37.2113 31.2732 37.2339 29.8507 37.1724C28.8568 37.1294 27.8752 36.8992 26.886 36.8911C26.2739 36.886 25.6572 37.1406 24.9674 37.2923C23.2797 36.0475 21.6834 34.7786 20.0388 33.5397C19.7453 33.3188 19.2755 33.1527 18.8444 33.0813C17.6712 32.8873 16.4739 32.7626 15.289 32.6007C14.4013 32.4794 13.9896 32.1598 14.4142 31.4769C16.1211 31.6373 17.8135 31.8282 19.49 32.0695C21.9224 32.4193 24.3435 32.8057 26.8227 33.2691C26.6956 34.0086 26.1973 34.2384 25.2215 34.04C24.3508 33.8631 23.4415 33.7743 22.5493 33.6465C22.5025 33.6915 22.4556 33.7363 22.4086 33.7813C23.644 34.7171 24.8794 35.653 26.1147 36.5889C25.9155 35.0357 26.5865 33.9667 28.618 33.3697C28.618 33.3697 28.6968 33.3799 28.7335 33.3697C30.8605 33.5667 32.9485 33.7806 35.0402 33.9753C35.4335 34.0118 35.8415 33.9708 36.3556 33.9523C38.2295 35.4856 40.6821 35.9086 43.3913 35.9233C45.0381 35.932 46.6849 35.9555 48.3999 36.0525C48.411 36.9189 47.7095 37.217 46.5436 37.2294C44.4704 37.2153 42.5089 37.2191 40.5464 37.2229C40.1661 37.2093 39.7867 37.1956 39.2125 37.1799C38.2765 37.1856 37.5335 37.1934 36.7913 37.201C35.9716 37.2003 35.1529 37.1995 34.2325 37.2117Z" fill="#383838"/>
<path d="M31.6695 46.7999C32.8307 46.8022 33.9928 46.8043 35.2519 46.8097C35.6747 49.6707 32.7393 52.0007 28.63 52.1468C24.5785 52.2906 21.2818 50.2158 21.1017 47.4078C21.0919 47.257 21.0897 47.1059 21.0771 46.8901C22.2147 46.8135 23.359 46.8019 24.6096 46.856C24.782 47.1919 24.8284 47.4652 24.9181 47.7319C25.3583 49.0437 26.9745 49.7565 28.8755 49.4851C30.6633 49.2298 31.6122 48.3171 31.6695 46.7999Z" fill="#383838"/>
<path d="M36.9651 46.7076C37.3251 45.7123 38.0709 44.7307 38.1706 43.7195C38.3884 41.4925 36.0521 39.9538 32.67 39.7455C29.0587 39.5229 25.8479 40.3605 22.6686 41.3435C22.2832 41.4628 21.8745 41.547 21.4463 41.5926C24.4288 39.9863 27.8204 39.0989 31.6851 38.8615C33.0004 39.0137 34.2992 39.0517 35.4318 39.3667C39.1361 40.3969 40.4284 43.4376 38.3912 46.0676C38.2546 46.2439 38.1208 46.4214 37.9841 46.6532C37.6749 46.7079 37.3657 46.7076 36.9651 46.7076Z" fill="#ECECEC"/>
<path d="M10.6434 37.6544C7.9337 37.5944 5.32186 37.5369 2.71001 37.4793C2.70918 37.4066 2.70835 37.3343 2.70752 37.2616C8.56601 37.0888 14.4246 36.9157 20.4306 36.7384C19.8131 37.5325 19.2513 38.0246 17.8992 37.9259C15.5249 37.7524 13.1283 37.7378 10.6434 37.6544Z" fill="#E63B3C"/>
<path d="M-1.10917 40.6658C4.02794 40.5255 9.06572 40.3857 14.092 40.2461C14.2557 41.3926 14.1775 41.4778 12.795 41.4391C7.67833 41.2955 2.56264 41.1371 -2.55324 40.9798C-2.7397 40.974 -2.92311 40.9193 -3.10791 40.8874C-3.10597 40.8136 -3.10412 40.7398 -3.10219 40.6663C-2.4708 40.6663 -1.83969 40.6663 -1.10917 40.6658Z" fill="#E63B3C"/>
<path d="M-0.581208 44.2332C-1.27869 44.2099 -1.87001 44.1874 -2.46143 44.1649C-2.45533 44.0952 -2.44906 44.0255 -2.44287 43.9557C3.37999 43.8276 9.20285 43.6993 15.107 43.5692C15.2201 43.9384 15.3093 44.2295 15.4463 44.6769C10.0518 44.5269 4.78824 44.3805 -0.581208 44.2332Z" fill="#E63B3C"/>
<path d="M14.0298 47.9054C9.20677 47.7567 4.48772 47.6103 -0.231327 47.4637C-0.236219 47.4054 -0.241201 47.347 -0.246094 47.2887C0.00867546 47.2586 0.262522 47.2073 0.518307 47.2017C5.01868 47.1023 9.52071 47.0336 14.018 46.8963C15.1554 46.8615 15.8546 47.0447 16.0924 47.9077C15.4409 47.9077 14.7874 47.9077 14.0298 47.9054Z" fill="#E63B3C"/>
<path d="M20.0371 51.1353C15.5526 50.9724 11.1731 50.8125 6.79351 50.6525C6.78538 50.5758 6.77717 50.4991 6.76904 50.4227C7.05917 50.3881 7.34791 50.3317 7.63988 50.3225C11.6339 50.1977 15.6314 50.1104 19.6216 49.9414C20.8867 49.8878 21.1145 50.5799 21.9998 51.1385C21.2083 51.1385 20.6754 51.1385 20.0371 51.1353Z" fill="#E63B3C"/>
<path d="M20.0675 39.6066C19.2436 40.4517 18.4775 41.2593 17.6821 42.053C17.5383 42.1964 17.2453 42.3893 17.0724 42.3675C16.8717 42.3422 16.63 42.1212 16.5737 41.9578C15.9636 40.1898 17.9147 38.7759 20.6153 39.0901C20.4326 39.2635 20.2738 39.4139 20.0675 39.6066Z" fill="#E63B3C"/>
<path d="M65.4909 26.123C67.0481 27.1842 67.0887 28.984 65.514 30.0923C65.4613 28.7306 65.4761 27.4268 65.4909 26.123Z" fill="#E63B3C"/>
<path d="M65.4511 26.2249C65.4917 27.5848 65.476 28.9026 65.4603 30.2894C65.2092 30.3619 64.9591 30.3653 64.6138 30.3692C64.5335 28.9802 64.5474 27.5906 64.5769 26.1325C64.8603 26.1036 65.1271 26.1431 65.4511 26.2249Z" fill="#ECECEC"/>
<path d="M56.7725 3.64653C60.2212 4.11056 61.699 6.2389 59.9193 8.05948C59.0018 8.99816 57.6532 9.37071 56.0516 9.03397C53.6922 8.53819 51.3227 8.41967 48.907 8.77782C48.5996 8.82342 48.3015 8.89736 47.9553 8.96668C49.9095 9.19505 51.8128 9.34394 53.6581 9.65151C55.999 10.042 55.9796 10.0975 55.9907 11.7145C55.9935 12.0532 55.9916 12.392 55.9916 12.7872C50.347 11.6988 44.8095 11.4655 39.1639 12.8307C39.1639 11.6774 39.1639 10.6034 39.1639 9.49985C38.6359 9.35188 38.1938 9.2053 37.7313 9.10191C35.2852 8.55601 34.0399 6.92068 34.9381 5.4145C35.8879 3.82053 38.5381 3.16348 40.8781 3.94357C41.1725 4.04179 41.4587 4.1509 41.8362 4.28585C42.8285 2.3881 44.7578 1.21237 47.7735 1.29647C50.5722 1.37437 52.5467 2.41939 53.4393 4.19502C54.547 4.00551 55.6159 3.82256 56.7725 3.64653Z" fill="#F7F6F6"/>
<path d="M38.9756 20.7171C37.2365 20.1776 36.5175 19.4019 36.7067 18.3318C36.9051 17.2036 37.7867 16.4615 39.5267 16.3241C42.1362 16.1182 44.7716 15.9598 47.3941 15.9697C50.2381 15.9804 53.0978 16.1152 55.9187 16.3689C58.1359 16.5685 59.035 17.6006 58.6538 19.0355C58.4636 19.7474 57.9088 20.2885 56.9378 20.4998C55.9372 20.7173 54.8812 20.917 53.8455 20.9278C49.5292 20.9723 45.211 20.9503 40.8938 20.9313C40.2799 20.9285 39.6679 20.8076 38.9756 20.7171ZM52.6399 17.913C52.0778 18.3434 52.0288 18.8234 52.6935 19.1613C53.0092 19.3218 53.8178 19.3603 54.0098 19.2099C54.3218 18.9649 54.5285 18.4717 54.391 18.1696C54.1584 17.6596 53.4772 17.5792 52.6399 17.913ZM41.3405 17.8259C41.1753 17.9872 40.9141 18.1351 40.8633 18.3122C40.7128 18.8392 41.0996 19.2801 41.803 19.3146C42.2212 19.3351 42.8682 19.0161 43.0778 18.7305C43.3972 18.294 43.0039 17.8949 42.3301 17.7356C42.0799 17.6767 41.7679 17.7462 41.3405 17.8259ZM47.3313 20.1591C48.0033 19.954 48.6882 19.7656 49.3344 19.5264C49.4378 19.488 49.3676 19.2216 49.3778 19.0606C49.1608 19.0706 48.8747 19.0219 48.7399 19.1001C48.007 19.5244 47.3285 19.5384 46.5956 19.0969C46.4664 19.0192 46.0445 19.0255 45.9596 19.102C45.8452 19.2046 45.8276 19.4893 45.9421 19.5625C46.303 19.7917 46.7452 19.9585 47.3313 20.1591Z" fill="#F7F6F6"/>
<path d="M58.0934 30.2884C56.791 30.898 55.8596 30.7313 55.1387 29.7672C55.1876 29.147 55.4128 28.5791 56.2565 28.4344C56.7116 28.3562 57.2922 28.541 57.7694 28.685C58.0205 28.7607 58.1728 29.0036 58.5448 29.3202C58.7101 28.8327 58.8319 28.4746 58.9777 28.0615C60.1251 28.5112 60.1334 29.4328 59.0174 29.8912C58.7211 30.0127 58.4174 30.1241 58.0934 30.2884Z" fill="#383838"/>
<path d="M45.5385 37.2985C45.268 37.7242 44.8951 38.1335 44.4825 38.5845C44.2711 38.5573 43.9969 38.5129 43.9462 38.4151C43.6443 37.8412 43.0176 37.7719 42.2228 37.7696C41.4326 37.7673 40.8003 37.8372 40.5769 38.4775C40.4708 38.468 40.3646 38.4586 40.2585 38.4492C40.1422 38.099 40.0249 37.7488 39.9077 37.3456C41.7493 37.289 43.5917 37.2855 45.5385 37.2985Z" fill="#E63B3C"/>
<path d="M73.0792 40.8419C74.2635 41.321 75.2208 41.8607 75.446 42.8307C74.4334 42.2885 73.5075 41.6461 72.3851 41.2323C71.2524 40.815 69.9251 40.6246 68.7075 40.3403C70.1761 40.111 71.6235 40.3087 73.0792 40.8419Z" fill="#ECECEC"/>
<path d="M67.0065 38.5845C66.7619 38.5368 66.4629 38.4879 66.4287 38.3855C66.1481 37.5448 65.9173 36.6941 65.6616 35.8153C66.8893 36.1244 67.6278 37.6339 67.0065 38.5845Z" fill="#ECECEC"/>
<path d="M31.321 46.7076C31.3653 48.2425 30.4709 49.1621 28.7853 49.4192C26.9932 49.6928 25.4695 48.9745 25.0544 47.653C24.97 47.3843 24.9262 47.1089 24.8613 46.7752C25.3554 46.7116 25.8518 46.7095 26.4446 46.7743C26.6779 47.1942 26.6659 47.7001 26.9871 47.8635C27.4579 48.1028 28.2318 48.2641 28.7611 48.1581C29.665 47.9766 29.7952 47.3491 29.6521 46.7229C30.1755 46.7157 30.6998 46.7086 31.321 46.7076Z" fill="#D8D8D8"/>
<path d="M29.8257 46.7087C30.0833 47.3424 29.942 47.9699 28.9537 48.1513C28.3754 48.2575 27.5297 48.096 27.0151 47.8568C26.6643 47.6934 26.6774 47.1874 26.5229 46.7733C27.5865 46.7086 28.6548 46.7049 29.8257 46.7087Z" fill="#383838"/>
<path d="M71.043 47.1811C70.5639 46.4039 70.1051 45.6889 69.6325 44.9539C71.2119 45.0089 72.5993 45.8626 72.9002 46.9218C73.1808 47.9137 72.3362 49.0254 70.9783 49.4496C69.5854 49.8848 67.8353 49.6294 66.9076 48.8696C66.1276 48.2307 65.6171 46.6559 66.927 45.8371C67.2648 46.4563 67.5999 47.0314 67.8925 47.6169C68.2119 48.2593 68.8626 48.5078 69.7894 48.3783C70.6543 48.2576 71.174 47.9071 71.043 47.1811Z" fill="#D8D8D8"/>
<path d="M52.6462 17.8262C53.4124 17.5528 54.1684 17.6679 54.4 18.1384C54.5376 18.4172 54.3428 18.9738 54.0308 19.1999C53.8462 19.3845 52.8308 19.2805 52.5077 19.1287C51.844 18.8169 52.0148 18.2578 52.6462 17.8262Z" fill="#E63534"/>
<path d="M41.3383 17.8153C41.6863 17.7736 42.11 17.6687 42.3537 17.723C43.0137 17.8698 43.4798 18.4468 43.046 18.7846C42.842 19.0479 42.2087 19.3573 41.7998 19.3384C41.1112 19.3066 40.7152 18.8534 40.862 18.3676C40.8306 18.2307 41.1066 17.9957 41.3383 17.8153Z" fill="#E63534"/>
<path d="M47.3387 20.1692C46.7645 19.9742 46.1082 19.741 45.6928 19.5128C45.5599 19.44 45.5811 19.1566 45.7131 19.0545C45.811 18.9783 46.4054 18.9772 46.5541 19.0545C47.3977 19.494 47.8787 19.53 48.7233 19.1076C48.8784 19.0299 49.399 19.0232 49.6482 19.0133C49.6371 19.1735 49.7174 19.4387 49.5984 19.4769C48.8544 19.715 48.2137 19.9697 47.3387 20.1692Z" fill="#E63534"/>
<path d="M72.3339 40H68.0503V27.9161H72.3693C73.5848 27.9161 74.6311 28.158 75.5083 28.6418C76.3855 29.1217 77.0601 29.8121 77.5321 30.7128C78.0081 31.6136 78.2461 32.6914 78.2461 33.9462C78.2461 35.205 78.0081 36.2867 77.5321 37.1914C77.0601 38.0962 76.3816 38.7904 75.4965 39.2743C74.6154 39.7581 73.5612 40 72.3339 40ZM70.6051 37.811H72.2277C72.983 37.811 73.6182 37.6772 74.1335 37.4097C74.6528 37.1383 75.0422 36.7194 75.3018 36.153C75.5653 35.5826 75.6971 34.847 75.6971 33.9462C75.6971 33.0533 75.5653 32.3236 75.3018 31.7572C75.0422 31.1908 74.6547 30.7738 74.1394 30.5063C73.6241 30.2389 72.9889 30.1051 72.2336 30.1051H70.6051V37.811ZM80.1386 40V27.9161H88.2811V30.0225H82.6935V32.9019H87.8622V35.0083H82.6935V37.8936H88.3047V40H80.1386ZM92.4954 27.9161L95.4161 37.097H95.5282L98.4548 27.9161H101.287L97.1213 40H93.8289L89.6573 27.9161H92.4954ZM113.164 33.958C113.164 35.2758 112.915 36.3969 112.415 37.3212C111.919 38.2456 111.243 38.9517 110.385 39.4395C109.532 39.9233 108.572 40.1652 107.506 40.1652C106.432 40.1652 105.468 39.9213 104.615 39.4336C103.761 38.9458 103.087 38.2397 102.591 37.3153C102.095 36.391 101.847 35.2719 101.847 33.958C101.847 32.6403 102.095 31.5192 102.591 30.5948C103.087 29.6705 103.761 28.9663 104.615 28.4825C105.468 27.9948 106.432 27.7509 107.506 27.7509C108.572 27.7509 109.532 27.9948 110.385 28.4825C111.243 28.9663 111.919 29.6705 112.415 30.5948C112.915 31.5192 113.164 32.6403 113.164 33.958ZM110.574 33.958C110.574 33.1045 110.446 32.3846 110.191 31.7985C109.939 31.2124 109.583 30.7679 109.123 30.465C108.662 30.1621 108.123 30.0107 107.506 30.0107C106.888 30.0107 106.349 30.1621 105.889 30.465C105.429 30.7679 105.071 31.2124 104.815 31.7985C104.564 32.3846 104.438 33.1045 104.438 33.958C104.438 34.8116 104.564 35.5315 104.815 36.1176C105.071 36.7037 105.429 37.1482 105.889 37.451C106.349 37.7539 106.888 37.9054 107.506 37.9054C108.123 37.9054 108.662 37.7539 109.123 37.451C109.583 37.1482 109.939 36.7037 110.191 36.1176C110.446 35.5315 110.574 34.8116 110.574 33.958ZM115.057 40V27.9161H119.824C120.737 27.9161 121.516 28.0793 122.161 28.4058C122.81 28.7284 123.304 29.1866 123.642 29.7806C123.984 30.3706 124.155 31.0649 124.155 31.8634C124.155 32.6659 123.982 33.3562 123.636 33.9344C123.29 34.5087 122.788 34.9493 122.131 35.2561C121.478 35.5629 120.688 35.7163 119.759 35.7163H116.567V33.663H119.346C119.834 33.663 120.239 33.5962 120.562 33.4624C120.884 33.3287 121.124 33.1281 121.282 32.8606C121.443 32.5931 121.524 32.2607 121.524 31.8634C121.524 31.4622 121.443 31.1239 121.282 30.8486C121.124 30.5732 120.882 30.3647 120.556 30.2231C120.233 30.0776 119.826 30.0048 119.335 30.0048H117.612V40H115.057ZM121.583 34.5009L124.586 40H121.766L118.827 34.5009H121.583ZM128.044 40H125.306L129.477 27.9161H132.77L136.935 40H134.198L131.171 30.6774H131.076L128.044 40ZM127.872 35.2502H134.339V37.2445H127.872V35.2502ZM136.449 27.9161H139.31L142.066 33.1202H142.184L144.939 27.9161H147.801L143.393 35.7281V40H140.856V35.7281L136.449 27.9161ZM150.046 40H147.308L151.48 27.9161H154.772L158.938 40H156.2L153.173 30.6774H153.079L150.046 40ZM149.875 35.2502H156.342V37.2445H149.875V35.2502Z" fill="white"/>
</svg>
