<svg width="160" height="140" viewBox="-40 10 520 100" fill="none" xmlns="http://www.w3.org/2000/svg">
  <g transform="scale(0.30)">
<path d="M424 459.795C430.373 457.687 437.012 456.144 443.055 453.326C450.636 449.79 453.702 449.608 460.708 455.362C461.387 456.838 461.7 457.837 461.898 459.202C461.205 461.954 460.627 464.339 459.84 467.586C458.074 465.478 457.352 463.859 456.159 463.355C453.89 462.396 451.132 461.165 448.972 461.686C444.964 462.65 443.896 466.432 443.17 470.459C435.859 472.426 428.905 474.164 421.517 475.803C412.177 473.13 403.27 470.556 395.259 468.241C401.654 474.594 410.689 477.412 420.332 479.233C419.527 481.778 418.723 483.926 417.827 486.321C420.319 487.398 422.571 488.391 424.837 489.35C431.737 492.266 436.738 497.109 439.801 503.962C443.977 513.305 443.148 522.769 440.43 532.238C438.975 537.306 437.27 542.302 435.824 546.87C439.382 549.299 442.652 551.222 445.501 553.64C446.548 554.528 447.335 556.88 446.881 558.025C446.491 559.011 444.176 559.68 442.696 559.712C435.383 559.87 428.064 559.799 420.747 559.737C419.19 559.724 417.635 559.411 415.64 559.186C416.073 556.641 416.363 554.71 416.736 552.795C418.481 543.84 420.876 534.956 421.83 525.918C422.77 517.016 419.681 513.746 410.55 511.339C402.723 511.092 395.281 510.936 387.838 510.878C375.596 510.781 364.517 507.977 356.554 497.727C349.473 481.262 353.887 465.765 360.776 450.601C363.24 445.177 366.469 440.1 369.565 434.471C357.922 425.026 353.59 412.2 353.905 397.506C344.949 396.072 337.031 397.453 329.309 401.255C316.527 407.547 316.363 407.382 309.914 394.626C309.117 393.05 308.489 391.388 308.056 390.395C315.956 388.556 323.39 386.386 330.977 385.217C335.818 384.472 340.887 385.211 346.517 385.516C347.755 385.789 348.329 385.83 349.672 385.927C348.528 385.117 348.037 384.768 347.545 384.42C340.018 379.186 331.857 377.711 322.848 379.634C316.433 381.004 316.07 380.523 314.392 374.059C313.526 370.724 312.727 367.373 311.95 364.238C318.26 363.947 324.177 363.492 330.098 363.447C338.034 363.387 344.51 367.059 350.235 372.191C352.332 374.07 354.171 376.236 356.242 378.39C367.198 367.835 361.538 354.668 363.319 342.471C353.843 339.57 347.007 334.015 343.552 324.759C341.287 318.693 341.473 312.714 343.714 306.713C348.748 293.235 362.302 286.993 378.522 290.701C391.844 270.575 420.974 264.754 439.768 291.031C457.283 287.523 468.912 293.118 474.458 307.721C479.492 320.978 473.637 334.82 459.849 341.133C456.114 342.843 454.379 344.796 454.894 348.861C455.144 350.827 455.013 352.857 454.908 354.851C454.502 362.551 455.934 369.361 459.723 376.584C475.222 406.124 460.184 437.953 427.793 445.887C426.676 446.161 425.558 446.433 424.091 446.791C424.091 449.647 424.091 452.413 423.642 455.797C416.246 454.479 409.3 452.544 402.306 450.595C408.32 456.484 415.391 459.906 424 459.795ZM450.224 297.364C445.357 298.595 440.489 299.827 435.446 301.103C431.383 289.144 422.391 282.107 409.648 281.582C395.915 281.016 387.129 288.934 382.612 301.715C380.896 300.805 379.59 300.071 378.249 299.41C367.595 294.156 355.527 298.581 351.201 309.316C347.112 319.46 352.783 330.473 363.921 334.15C366.028 334.846 368.04 335.833 370.443 336.83C370.443 344.261 370.443 351.495 370.443 359.262C396.152 350.068 421.367 351.639 447.067 358.969C447.067 356.308 447.076 354.026 447.065 351.744C447.013 340.855 447.103 340.481 436.441 337.851C428.039 335.779 419.374 334.777 410.476 333.239C412.05 332.772 413.408 332.274 414.807 331.967C425.806 329.555 436.598 330.353 447.341 333.692C454.635 335.96 460.775 333.451 464.953 327.129C473.056 314.868 466.325 300.534 450.224 297.364ZM370.104 411.672C372.889 412.103 375.671 412.891 378.459 412.909C398.08 413.033 417.705 413.176 437.322 412.886C442.031 412.816 446.832 411.515 451.377 410.097C455.794 408.72 458.314 405.194 459.175 400.555C460.912 391.205 456.824 384.479 446.746 383.179C433.926 381.526 420.93 380.646 408.004 380.577C396.083 380.512 384.106 381.545 372.244 382.887C364.339 383.782 360.333 388.618 359.428 395.97C358.57 402.943 361.839 407.998 370.104 411.672Z" fill="#E63534"/>
<path d="M462.013 458.836C461.7 457.837 461.387 456.838 461.025 455.525C466.932 448.945 473.863 444.493 482.719 443.806C484.086 443.7 485.5 444.188 486.978 445.181C487.002 455.318 486.94 464.676 486.878 474.034C485.748 474.84 484.636 476.281 483.485 476.313C481.427 476.369 479.346 475.576 476.306 474.933C477.927 478.242 479.24 480.811 480.454 483.426C482.903 488.704 485.427 493.953 487.672 499.318C489.305 503.223 491.418 506.016 495.428 508.295C503.409 512.83 503.638 521.278 503.601 529.391C503.595 530.816 503.13 532.239 503.092 532.457C511.296 534.272 519.354 535.339 526.898 537.913C535.503 540.849 540.869 547.855 544.542 556.002C546.828 561.071 546.144 562.094 540.725 562.553C539.069 562.693 537.403 562.703 534.911 562.821C518.367 561.942 503.365 563.074 490.911 574.698C487.318 578.052 482.218 579.791 477.809 582.271C466.264 582.887 466.266 582.888 468.886 571.423C468.954 571.126 468.811 570.781 468.76 570.454C468.463 570.45 468.032 570.322 467.899 570.468C459.391 579.752 448.858 582.647 436.395 582.31C412.585 581.667 388.746 582.068 364.455 581.651C364.6 580.096 365.202 578.922 365.818 577.755C375.005 560.351 369.181 540.228 352.474 533.411C347.367 531.327 341.512 531.075 336.014 529.604C337.331 528.092 338.49 526.694 339.97 525.884C342.719 524.38 346.481 524.009 346.457 519.418C350.613 519.337 354.314 519.342 358.168 519.683C361.874 519.803 365.428 519.586 369.408 519.295C371.55 519.311 373.267 519.401 374.989 519.87C375.556 522.743 376.117 525.238 376.679 527.733C377.189 527.8 377.698 527.867 378.208 527.935C379.282 523.373 382.326 522.875 386.127 522.891C389.954 522.907 392.97 523.401 394.419 527.49C394.665 528.187 395.986 528.503 396.762 529.333C392.952 535.274 390.163 541.198 390.045 548.149C389.867 558.696 394.431 563.688 404.878 563.8C417.014 563.93 429.161 564.108 441.286 563.711C444.678 563.6 448.576 562.278 451.258 560.225C460.005 553.53 465.319 544.293 467.832 533.667C472.836 512.505 465.128 493.419 457.697 474.036C459.235 472.942 460.678 472.2 462.083 471.391C467.385 468.337 467.345 462.197 462.013 458.836ZM526.438 543.027C520.061 539.452 513.397 538.062 506.638 539.675C512.243 541.674 518.353 543.013 523.565 545.948C528.732 548.858 532.994 553.376 537.653 557.189C536.618 550.367 532.211 546.572 526.438 543.027ZM498.853 527.729C501.554 521.932 497.954 512.468 491.972 510.53C493.217 516.04 494.344 521.374 495.711 526.645C495.878 527.287 497.336 527.594 498.853 527.729Z" fill="#2C77BF"/>
<path d="M257.005 481.057C250.709 479.248 249.881 478.123 251.138 471.902C254.789 453.827 258.511 435.766 262.282 417.716C263.557 411.61 265.527 410.559 271.797 411.902C290.946 416.006 310.102 420.079 329.268 424.103C336.321 425.584 337.452 426.952 336.046 433.872C332.44 451.619 328.762 469.352 324.97 487.06C324.502 489.245 323.172 491.246 321.841 493.677C321.442 494.021 321.086 493.953 320.69 493.97C317.988 493.71 315.682 493.432 313.055 492.914C301.772 490.215 290.832 487.654 279.841 485.335C272.266 483.736 264.619 482.471 257.005 481.057Z" fill="#2B76BE"/>
<path d="M346.003 519.504C346.481 524.009 342.719 524.38 339.969 525.884C338.489 526.694 337.331 528.092 335.592 529.689C318.153 531.639 302.859 537.512 289.41 548.141C291.341 547.84 293.184 547.282 294.922 546.493C309.258 539.988 323.737 534.445 340.022 535.918C355.272 537.297 365.809 547.479 364.824 562.216C364.377 568.908 361.011 575.404 358.969 581.99C356.809 581.991 354.648 581.992 351.596 582.076C345.504 582.144 340.304 582.13 334.639 582.073C331.687 582.078 329.2 582.126 326.27 582.125C321.183 582.1 316.541 582.124 311.461 582.109C308.667 582.085 306.31 582.099 303.489 582.083C297.902 582.128 292.779 582.205 287.656 582.283C283.668 582.181 279.678 582.134 275.693 581.965C270.628 581.749 268.301 579.731 268.213 574.66C268.154 571.224 268.412 567.554 269.566 564.364C276.181 546.081 286.477 530.552 304.354 520.21C307.708 518.946 310.494 517.259 313.26 517.292C317.73 517.346 322.165 518.872 326.654 519.157C333.085 519.565 339.551 519.415 346.003 519.504Z" fill="#2B76BE"/>
<path d="M477.824 582.699C482.218 579.791 487.318 578.052 490.911 574.698C503.365 563.075 518.367 561.942 534.478 562.915C542.253 573.629 545.753 584.929 540.43 597.623C534.447 611.891 519.5 619.795 503.81 617.028C490.078 614.607 478.707 601.244 477.938 586.613C477.877 585.452 477.871 584.289 477.824 582.699ZM517.237 584.702C517.74 589.023 515.407 591.305 511.527 592.091C507.366 592.934 504.446 591.316 503.01 587.134C501.7 583.322 500.193 579.577 498.677 575.546C492.797 580.877 495.089 591.13 498.591 595.29C502.755 600.237 510.611 601.9 516.864 599.066C522.957 596.304 526.75 589.066 525.488 582.608C524.14 575.712 517.912 570.153 510.822 569.795C512.942 574.581 515.003 579.236 517.237 584.702Z" fill="#383838"/>
<path d="M346.457 519.418C339.551 519.415 333.085 519.565 326.654 519.157C322.165 518.872 317.73 517.346 313.26 517.293C310.494 517.259 307.708 518.946 304.591 519.952C296.965 511.701 289.752 503.291 282.321 495.08C280.995 493.616 278.872 492.515 276.924 492.042C271.623 490.756 266.213 489.929 260.859 488.856C256.848 488.052 254.988 485.934 256.906 481.408C264.619 482.471 272.266 483.736 279.841 485.335C290.832 487.654 301.772 490.215 312.974 493.286C312.4 498.188 310.148 499.711 305.739 498.396C301.805 497.223 297.696 496.635 293.665 495.788C293.453 496.086 293.241 496.383 293.029 496.681C298.611 502.884 304.193 509.087 309.775 515.29C308.875 504.995 311.907 497.91 321.086 493.953C321.086 493.953 321.442 494.021 321.608 493.953C331.217 495.259 340.653 496.677 350.106 497.967C351.881 498.209 353.726 497.937 356.047 497.815C364.517 507.977 375.596 510.781 387.838 510.878C395.281 510.936 402.723 511.092 410.47 511.735C410.52 517.477 407.35 519.453 402.082 519.535C392.717 519.442 383.85 519.467 374.984 519.492C373.267 519.402 371.55 519.311 368.959 519.207C364.728 519.245 361.372 519.296 358.016 519.347C354.314 519.342 350.613 519.337 346.457 519.418Z" fill="#383838"/>
<path d="M335.104 582.115C340.304 582.13 345.504 582.144 351.142 582.18C353.034 601.115 339.893 616.536 321.498 617.502C303.361 618.454 288.603 604.722 287.797 586.138C287.753 585.14 287.743 584.14 287.687 582.712C292.779 582.205 297.902 582.128 303.5 582.486C304.272 584.709 304.48 586.518 304.881 588.283C306.852 596.965 314.087 601.683 322.597 599.886C330.599 598.197 334.85 592.156 335.104 582.115Z" fill="#383838"/>
<path d="M359.387 581.99C361.011 575.404 364.377 568.908 364.825 562.216C365.809 547.479 355.272 537.297 340.022 535.918C323.737 534.445 309.258 539.988 294.922 546.493C293.184 547.282 291.341 547.84 289.41 548.141C302.859 537.512 318.153 531.639 335.578 530.068C341.512 531.075 347.367 531.327 352.474 533.411C369.181 540.229 375.005 560.351 365.818 577.755C365.202 578.922 364.6 580.096 363.986 581.63C362.589 581.992 361.197 581.99 359.387 581.99Z" fill="#ECECEC"/>
<path d="M240.603 522.175C227.576 521.774 215.019 521.39 202.462 521.005C202.458 520.52 202.454 520.036 202.45 519.551C230.616 518.396 258.782 517.24 287.657 516.055C284.688 521.361 281.987 524.649 275.487 523.989C264.072 522.83 252.55 522.733 240.603 522.175Z" fill="#2C77BF"/>
<path d="M184.876 541.897C209.066 540.974 232.788 540.054 256.456 539.136C257.227 546.677 256.859 547.238 250.349 546.983C226.255 546.039 202.166 544.997 178.076 543.962C177.198 543.924 176.334 543.564 175.464 543.354C175.473 542.869 175.482 542.384 175.491 541.9C178.464 541.9 181.436 541.9 184.876 541.897Z" fill="#2C77BF"/>
<path d="M187.201 566.412C184.111 566.249 181.491 566.091 178.871 565.933C178.898 565.444 178.926 564.955 178.953 564.466C204.75 563.567 230.547 562.667 256.704 561.755C257.205 564.344 257.6 566.386 258.207 569.524C234.308 568.472 210.989 567.445 187.201 566.412Z" fill="#2C77BF"/>
<path d="M255.956 591.016C233.481 589.976 211.491 588.952 189.501 587.927C189.478 587.519 189.455 587.111 189.432 586.703C190.619 586.493 191.802 586.134 192.994 586.095C213.965 585.4 234.944 584.919 255.901 583.959C261.201 583.716 264.459 584.997 265.567 591.032C262.531 591.032 259.486 591.032 255.956 591.016Z" fill="#2C77BF"/>
<path d="M279.92 611.842C260.135 610.796 240.814 609.77 221.492 608.743C221.456 608.251 221.42 607.759 221.384 607.268C222.664 607.046 223.938 606.684 225.226 606.625C242.847 605.824 260.483 605.264 278.087 604.179C283.668 603.835 284.673 608.277 288.579 611.862C285.087 611.862 282.736 611.862 279.92 611.842Z" fill="#2B76BE"/>
<path d="M282.132 535.178C278.339 540.838 274.812 546.247 271.15 551.563C270.488 552.523 269.139 553.815 268.343 553.669C267.419 553.499 266.306 552.019 266.047 550.925C263.238 539.084 272.221 529.614 284.654 531.718C283.813 532.88 283.082 533.887 282.132 535.178Z" fill="#2C77BF"/>
<path d="M131.858 540.946C137.396 540.359 142.503 539.419 147.604 539.448C149.704 539.46 153.444 541.399 153.571 542.734C153.928 546.492 150.445 546.873 147.553 546.57C139.924 545.771 132.319 544.737 124.704 543.796C124.672 543.263 124.64 542.73 124.608 542.197C126.88 541.793 129.152 541.389 131.858 540.946Z" fill="#2C77BF"/>
<path d="M491.357 446.405C498.953 453.628 499.15 465.878 491.471 473.421C491.216 464.153 491.287 455.279 491.357 446.405Z" fill="#2C77BF"/>
<path d="M491.101 446.12C491.287 455.279 491.216 464.153 491.144 473.493C490.006 473.981 488.869 474.004 487.305 474.03C486.94 464.676 487.002 455.318 487.136 445.498C488.42 445.303 489.632 445.569 491.101 446.12Z" fill="#ECECEC"/>
<path d="M450.622 297.409C466.325 300.534 473.056 314.868 464.953 327.129C460.775 333.451 454.635 335.96 447.341 333.692C436.598 330.353 425.806 329.555 414.807 331.967C413.408 332.274 412.05 332.772 410.476 333.239C419.374 334.777 428.039 335.78 436.44 337.851C447.103 340.481 447.013 340.855 447.065 351.745C447.076 354.026 447.067 356.308 447.067 358.969C421.367 351.639 396.152 350.068 370.443 359.262C370.443 351.495 370.443 344.262 370.443 336.83C368.04 335.833 366.028 334.846 363.921 334.15C352.783 330.473 347.112 319.46 351.201 309.316C355.527 298.581 367.595 294.156 378.249 299.41C379.59 300.071 380.895 300.806 382.611 301.715C387.129 288.934 395.915 281.016 409.648 281.582C422.391 282.107 431.383 289.145 435.446 301.103C440.489 299.827 445.357 298.595 450.622 297.409Z" fill="#F7F6F6"/>
<path d="M369.74 411.513C361.839 407.998 358.57 402.943 359.428 395.97C360.333 388.618 364.339 383.782 372.244 382.887C384.106 381.545 396.083 380.513 408.004 380.577C420.93 380.647 433.926 381.526 446.747 383.179C456.824 384.479 460.912 391.205 459.176 400.555C458.314 405.194 455.794 408.72 451.378 410.097C446.832 411.515 442.031 412.816 437.323 412.886C417.705 413.176 398.08 413.033 378.459 412.909C375.671 412.891 372.889 412.103 369.74 411.513ZM431.847 393.241C429.288 396.045 429.068 399.173 432.088 401.375C433.522 402.421 437.197 402.672 438.069 401.692C439.49 400.095 440.429 396.881 439.803 394.913C438.745 391.589 435.651 391.066 431.847 393.241ZM380.488 392.673C379.738 393.724 378.551 394.688 378.321 395.842C377.638 399.276 379.393 402.149 382.593 402.374C384.493 402.508 387.434 400.429 388.384 398.568C389.837 395.723 388.051 393.123 384.986 392.085C383.851 391.701 382.433 392.154 380.488 392.673ZM407.718 407.877C410.772 406.54 413.885 405.313 416.821 403.754C417.291 403.504 416.971 401.768 417.017 400.719C416.034 400.784 414.734 400.467 414.121 400.976C410.789 403.741 407.703 403.832 404.372 400.955C403.786 400.449 401.871 400.49 401.484 400.989C400.964 401.657 400.883 403.512 401.405 403.989C403.044 405.483 405.054 406.57 407.718 407.877Z" fill="#F7F6F6"/>
<path d="M457.697 474.036C451.509 478.097 447.088 476.987 443.664 470.564C443.896 466.433 444.964 462.65 448.972 461.686C451.132 461.165 453.89 462.396 456.159 463.355C457.352 463.859 458.074 465.478 459.84 467.587C460.627 464.339 461.205 461.954 461.898 459.202C467.345 462.197 467.385 468.337 462.083 471.391C460.678 472.2 459.235 472.942 457.697 474.036Z" fill="#383838"/>
<path d="M402.082 519.535C400.782 522.568 398.985 525.484 396.999 528.697C395.986 528.503 394.665 528.187 394.419 527.49C392.97 523.401 389.954 522.907 386.127 522.891C382.326 522.875 379.282 523.373 378.208 527.935C377.698 527.867 377.189 527.8 376.679 527.733C376.117 525.238 375.555 522.743 374.989 519.87C383.85 519.467 392.717 519.442 402.082 519.535Z" fill="#2B76BE"/>
<path d="M526.76 543.202C532.211 546.572 536.618 550.367 537.653 557.189C532.994 553.376 528.732 548.858 523.565 545.948C518.353 543.013 512.243 541.674 506.638 539.675C513.397 538.062 520.06 539.452 526.76 543.202Z" fill="#ECECEC"/>
<path d="M498.525 527.893C497.337 527.594 495.878 527.287 495.711 526.645C494.344 521.374 493.217 516.04 491.972 510.53C497.954 512.468 501.554 521.932 498.525 527.893Z" fill="#ECECEC"/>
<path d="M358.168 519.684C361.372 519.296 364.728 519.245 368.533 519.282C365.428 519.586 361.874 519.803 358.168 519.684Z" fill="#2B76BE"/>
<path d="M334.639 582.073C334.85 592.156 330.599 598.197 322.597 599.886C314.087 601.683 306.852 596.965 304.881 588.283C304.48 586.518 304.272 584.709 303.964 582.517C306.31 582.099 308.667 582.085 311.482 582.511C312.59 585.269 312.533 588.593 314.058 589.666C316.294 591.238 319.969 592.298 322.482 591.601C326.775 590.409 327.392 586.287 326.713 582.173C329.2 582.126 331.687 582.079 334.639 582.073Z" fill="#D8D8D8"/>
<path d="M326.27 582.125C327.392 586.287 326.775 590.409 322.482 591.601C319.969 592.298 316.294 591.238 314.058 589.666C312.533 588.593 312.59 585.269 311.919 582.549C316.541 582.124 321.183 582.1 326.27 582.125Z" fill="#383838"/>
<path d="M517.151 584.296C515.004 579.236 512.942 574.581 510.823 569.795C517.912 570.153 524.14 575.712 525.488 582.608C526.75 589.066 522.958 596.304 516.864 599.066C510.611 601.9 502.755 600.237 498.591 595.29C495.089 591.13 492.797 580.877 498.677 575.546C500.193 579.577 501.7 583.322 503.01 587.134C504.446 591.316 507.366 592.934 511.527 592.091C515.407 591.305 517.74 589.023 517.151 584.296Z" fill="#D8D8D8"/>
<path d="M432.161 392.996C435.651 391.065 438.745 391.589 439.802 394.912C440.429 396.881 439.49 400.095 438.068 401.692C437.197 402.672 433.522 402.421 432.088 401.375C429.068 399.173 429.288 396.045 432.161 392.996Z" fill="#E63534"/>
<path d="M380.816 392.449C382.433 392.154 383.851 391.701 384.985 392.085C388.051 393.123 389.837 395.723 388.384 398.568C387.434 400.43 384.493 402.508 382.593 402.374C379.393 402.149 377.638 399.277 378.321 395.842C378.551 394.688 379.738 393.724 380.816 392.449Z" fill="#E63534"/>
<path d="M407.319 407.846C405.054 406.57 403.044 405.483 401.405 403.989C400.882 403.512 400.964 401.657 401.484 400.989C401.871 400.49 403.786 400.449 404.372 400.955C407.702 403.832 410.789 403.741 414.121 400.976C414.734 400.467 416.034 400.784 417.017 400.719C416.971 401.768 417.291 403.504 416.821 403.754C413.884 405.313 410.772 406.54 407.319 407.846Z" fill="#E63534"/>
<text x="600" y="300" font-family="Arial, sans-serif" font-size="180" font-weight="bold" fill="white">
      DEVORAYA
    </text>
  </g>
</svg>
