<svg width="160" height="140" viewBox="-40 10 520 100" fill="none" xmlns="http://www.w3.org/2000/svg">
  <g transform="scale(0.30)">
<path d="M1232.75 701.97C1247.91 698.555 1263.7 696.055 1278.07 691.49C1296.1 685.761 1303.39 685.466 1320.06 694.788C1321.67 697.179 1322.41 698.798 1322.89 701.009C1321.24 705.468 1319.86 709.332 1317.99 714.592C1313.79 711.177 1312.07 708.554 1309.24 707.738C1303.84 706.184 1297.28 704.189 1292.14 705.034C1282.61 706.595 1280.07 712.723 1278.34 719.247C1260.96 722.433 1244.42 725.249 1226.85 727.904C1204.63 723.574 1183.45 719.404 1164.4 715.653C1179.61 725.946 1201.09 730.511 1224.03 733.461C1222.11 737.584 1220.2 741.064 1218.07 744.945C1224 746.689 1229.35 748.298 1234.74 749.852C1251.15 754.576 1263.05 762.422 1270.33 773.525C1280.26 788.661 1278.29 803.994 1271.83 819.334C1268.37 827.545 1264.31 835.639 1260.87 843.039C1269.34 846.975 1277.11 850.09 1283.89 854.008C1286.38 855.446 1288.25 859.257 1287.17 861.112C1286.24 862.709 1280.74 863.793 1277.22 863.845C1259.82 864.101 1242.42 863.986 1225.02 863.885C1221.31 863.864 1217.61 863.357 1212.87 862.992C1213.9 858.869 1214.59 855.741 1215.48 852.638C1219.63 838.131 1225.32 823.738 1227.59 809.095C1229.83 794.673 1222.48 789.376 1200.76 785.476C1182.15 785.076 1164.45 784.823 1146.75 784.729C1117.63 784.572 1091.28 780.029 1072.34 763.423C1055.5 736.748 1066 711.642 1082.39 687.075C1088.25 678.287 1095.92 670.062 1103.29 660.943C1075.6 645.641 1065.29 624.862 1066.04 601.056C1044.74 598.733 1025.91 600.97 1007.55 607.13C977.147 617.323 976.757 617.056 961.419 596.39C959.523 593.837 958.03 591.144 957 589.536C975.789 586.556 993.469 583.041 1011.51 581.147C1023.03 579.94 1035.08 581.137 1048.47 581.631C1051.42 582.073 1052.78 582.14 1055.98 582.297C1053.26 580.985 1052.09 580.419 1050.92 579.856C1033.02 571.376 1013.61 568.986 992.18 572.102C976.923 574.321 976.06 573.542 972.069 563.07C970.009 557.667 968.109 552.238 966.261 547.159C981.268 546.687 995.341 545.95 1009.42 545.877C1028.3 545.78 1043.7 551.729 1057.32 560.043C1062.3 563.088 1066.68 566.597 1071.6 570.086C1097.66 552.986 1084.2 531.655 1088.43 511.894C1065.9 507.194 1049.64 498.195 1041.42 483.199C1036.03 473.372 1036.48 463.685 1041.81 453.963C1053.78 432.127 1086.01 422.015 1124.59 428.022C1156.27 395.416 1225.56 385.986 1270.25 428.557C1311.91 422.873 1339.57 431.938 1352.76 455.596C1364.73 477.074 1350.8 499.499 1318.01 509.727C1309.13 512.497 1305 515.661 1306.23 522.247C1306.82 525.432 1306.51 528.721 1306.26 531.951C1305.3 544.426 1308.7 555.459 1317.71 567.16C1354.57 615.018 1318.81 666.584 1241.77 679.438C1239.12 679.882 1236.46 680.322 1232.97 680.902C1232.97 685.529 1232.97 690.01 1231.9 695.493C1214.31 693.358 1197.79 690.223 1181.16 687.065C1195.46 696.606 1212.28 702.15 1232.75 701.97ZM1295.12 438.817C1283.55 440.811 1271.97 442.807 1259.97 444.874C1250.31 425.5 1228.93 414.099 1198.62 413.248C1165.96 412.331 1145.06 425.159 1134.32 445.866C1130.24 444.391 1127.13 443.202 1123.94 442.131C1098.6 433.619 1069.9 440.788 1059.61 458.18C1049.89 474.614 1063.38 492.456 1089.86 498.413C1094.88 499.541 1099.66 501.14 1105.38 502.755C1105.38 514.794 1105.38 526.514 1105.38 539.097C1166.52 524.202 1226.49 526.747 1287.61 538.623C1287.61 534.311 1287.63 530.614 1287.61 526.917C1287.48 509.276 1287.7 508.67 1262.34 504.409C1242.36 501.053 1221.75 499.429 1200.59 496.938C1204.33 496.181 1207.56 495.374 1210.89 494.877C1237.05 490.969 1262.71 492.262 1288.26 497.671C1305.61 501.346 1320.22 497.281 1330.15 487.039C1349.42 467.175 1333.41 443.952 1295.12 438.817ZM1104.57 624.006C1111.19 624.705 1117.81 625.981 1124.44 626.01C1171.11 626.211 1217.78 626.443 1264.44 625.973C1275.64 625.86 1287.05 623.752 1297.86 621.455C1308.37 619.224 1314.36 613.511 1316.41 605.996C1320.54 590.848 1310.82 579.951 1286.85 577.845C1256.36 575.167 1225.45 573.741 1194.71 573.629C1166.36 573.524 1137.87 575.198 1109.66 577.372C1090.86 578.822 1081.33 586.657 1079.18 598.568C1077.14 609.864 1084.91 618.054 1104.57 624.006Z" fill="#E63534"/>
<path d="M1319.34 705.298C1318.59 703.685 1317.85 702.071 1316.98 699.951C1331.06 689.323 1347.59 682.133 1368.7 681.023C1371.95 680.852 1375.32 681.64 1378.85 683.244C1378.9 699.616 1378.76 714.731 1378.61 729.845C1375.92 731.147 1373.26 733.474 1370.52 733.526C1365.62 733.616 1360.66 732.335 1353.41 731.297C1357.27 736.641 1360.4 740.791 1363.3 745.014C1369.13 753.539 1375.15 762.016 1380.5 770.682C1384.39 776.989 1389.43 781.5 1398.99 785.181C1418.01 792.505 1418.56 806.15 1418.47 819.253C1418.46 821.555 1417.35 823.853 1417.26 824.205C1436.81 827.136 1456.02 828.86 1474 833.017C1494.51 837.759 1507.31 849.075 1516.06 862.233C1521.51 870.42 1519.88 872.072 1506.96 872.814C1503.01 873.04 1499.04 873.056 1493.1 873.247C1453.67 871.827 1417.91 873.655 1388.22 892.429C1379.66 897.846 1367.5 900.655 1356.99 904.661C1329.47 905.656 1329.48 905.657 1335.72 887.14C1335.88 886.66 1335.54 886.103 1335.42 885.575C1334.71 885.568 1333.69 885.362 1333.37 885.597C1313.09 900.592 1287.98 905.268 1258.27 904.724C1201.52 903.685 1144.7 904.333 1086.79 903.659C1087.14 901.148 1088.57 899.252 1090.04 897.367C1111.94 869.257 1098.06 836.756 1058.24 825.746C1046.06 822.38 1032.11 821.973 1019 819.597C1022.14 817.155 1024.9 814.897 1028.43 813.589C1034.98 811.16 1043.95 810.561 1043.89 803.146C1053.8 803.015 1062.62 803.023 1071.81 803.573C1080.64 803.767 1089.11 803.417 1098.6 802.947C1103.71 802.973 1107.8 803.118 1111.9 803.876C1113.25 808.516 1114.59 812.545 1115.93 816.575C1117.15 816.683 1118.36 816.792 1119.58 816.901C1122.14 809.533 1129.39 808.729 1138.45 808.755C1147.57 808.781 1154.76 809.579 1158.22 816.183C1158.8 817.308 1161.95 817.819 1163.8 819.159C1154.72 828.755 1148.07 838.323 1147.79 849.549C1147.37 866.584 1158.25 874.647 1183.15 874.828C1212.08 875.038 1241.03 875.325 1269.93 874.684C1278.02 874.505 1287.31 872.37 1293.7 869.054C1314.55 858.24 1327.22 843.322 1333.21 826.159C1345.14 791.98 1326.76 761.154 1309.05 729.848C1312.72 728.081 1316.16 726.883 1319.51 725.576C1332.14 720.644 1332.05 710.727 1319.34 705.298ZM1472.91 841.277C1457.71 835.503 1441.82 833.258 1425.71 835.863C1439.07 839.092 1453.63 841.254 1466.06 845.995C1478.37 850.695 1488.53 857.992 1499.64 864.15C1497.17 853.132 1486.67 847.002 1472.91 841.277ZM1407.15 816.569C1413.59 807.206 1405.01 791.92 1390.75 788.79C1393.72 797.69 1396.41 806.305 1399.66 814.818C1400.06 815.855 1403.54 816.351 1407.15 816.569Z" fill="#E63B3C"/>
<path d="M839.038 739.204C824.165 736.291 822.209 734.479 825.179 724.46C833.803 695.351 842.596 666.265 851.504 637.196C854.516 627.362 859.169 625.67 873.981 627.832C919.216 634.442 964.468 641.001 1009.74 647.482C1026.4 649.867 1029.08 652.07 1025.75 663.214C1017.24 691.795 1008.55 720.354 999.59 748.872C998.485 752.391 995.343 755.613 992.199 759.528C991.256 760.082 990.415 759.973 989.48 760C983.097 759.581 977.649 759.134 971.444 758.299C944.79 753.953 918.947 749.828 892.983 746.094C875.089 743.518 857.025 741.481 839.038 739.204Z" fill="#E63B3C"/>
<path d="M1052.1 803.609C1053.26 810.956 1044.12 811.561 1037.43 814.014C1033.83 815.335 1031.02 817.615 1026.79 820.22C984.405 823.401 947.231 832.979 914.541 850.315C919.235 849.824 923.714 848.914 927.939 847.627C962.784 837.018 997.978 827.977 1037.56 830.38C1074.63 832.629 1100.24 849.235 1097.85 873.271C1096.76 884.186 1088.58 894.78 1083.61 905.522C1078.36 905.524 1073.11 905.525 1065.69 905.662C1050.89 905.773 1038.25 905.75 1024.48 905.657C1017.3 905.666 1011.26 905.744 1004.13 905.742C991.77 905.701 980.487 905.741 968.139 905.716C961.348 905.677 955.619 905.7 948.762 905.674C935.182 905.747 922.73 905.873 910.278 906C900.584 905.834 890.886 905.757 881.2 905.481C868.889 905.129 863.233 901.838 863.019 893.567C862.876 887.963 863.503 881.977 866.308 876.774C882.386 846.955 907.412 821.628 950.865 804.76C959.017 802.698 965.789 799.947 972.512 800.001C983.377 800.089 994.157 802.578 1005.07 803.043C1020.7 803.708 1036.42 803.463 1052.1 803.609Z" fill="#E63B3C"/>
<path d="M1357 906.764C1367.32 902.159 1379.29 899.405 1387.73 894.093C1416.97 875.685 1452.2 873.891 1490.03 875.432C1508.29 892.4 1516.51 910.296 1504.01 930.4C1489.96 952.997 1454.86 965.514 1418.02 961.132C1385.77 957.298 1359.07 936.135 1357.27 912.963C1357.12 911.124 1357.11 909.282 1357 906.764ZM1449.55 909.936C1450.73 916.78 1445.25 920.394 1436.14 921.639C1426.37 922.974 1419.51 920.411 1416.14 913.788C1413.07 907.751 1409.53 901.82 1405.97 895.436C1392.16 903.879 1397.54 920.117 1405.76 926.705C1415.54 934.54 1433.99 937.173 1448.67 932.685C1462.98 928.311 1471.89 916.848 1468.92 906.62C1465.76 895.699 1451.13 886.895 1434.49 886.328C1439.46 893.907 1444.3 901.28 1449.55 909.936Z" fill="#383838"/>
<path d="M1051.52 803.127C1034.97 803.122 1019.46 803.367 1004.05 802.701C993.283 802.235 982.649 799.741 971.932 799.654C965.301 799.598 958.621 802.356 951.148 804C932.864 790.514 915.571 776.768 897.754 763.347C894.575 760.954 889.485 759.154 884.815 758.381C872.105 756.279 859.135 754.928 846.298 753.174C836.682 751.86 832.222 748.398 836.821 741C855.313 742.737 873.647 744.805 891.809 747.419C918.16 751.209 944.389 755.395 971.247 760.415C969.87 768.427 964.471 770.916 953.9 768.767C944.468 766.85 934.617 765.888 924.952 764.504C924.444 764.991 923.936 765.477 923.427 765.964C936.811 776.102 950.194 786.241 963.577 796.38C961.419 779.553 968.688 767.972 990.696 761.505C990.696 761.505 991.549 761.616 991.947 761.505C1014.99 763.639 1037.61 765.957 1060.27 768.066C1064.53 768.461 1068.95 768.017 1074.52 767.817C1094.82 784.427 1121.39 789.01 1150.74 789.169C1168.58 789.263 1186.42 789.518 1205 790.569C1205.12 799.955 1197.52 803.184 1184.89 803.318C1162.43 803.166 1141.18 803.207 1119.92 803.248C1115.8 803.101 1111.69 802.952 1105.47 802.782C1095.33 802.844 1087.28 802.928 1079.24 803.011C1070.36 803.003 1061.49 802.995 1051.52 803.127Z" fill="#383838"/>
<path d="M1023.75 907C1036.33 907.025 1048.92 907.047 1062.56 907.106C1067.14 938.1 1035.34 963.342 990.823 964.924C946.931 966.482 911.217 944.005 909.266 913.585C909.16 911.952 909.136 910.315 909 907.977C921.323 907.147 933.72 907.021 947.268 907.607C949.136 911.246 949.639 914.207 950.61 917.096C955.379 931.307 972.888 939.03 993.482 936.089C1012.85 933.324 1023.13 923.436 1023.75 907Z" fill="#383838"/>
<path d="M1081.12 906C1085.02 895.218 1093.1 884.584 1094.18 873.629C1096.54 849.503 1071.23 832.834 1034.59 830.577C995.468 828.166 960.684 837.24 926.242 847.889C922.067 849.181 917.639 850.094 913 850.587C945.31 833.186 982.053 823.572 1023.92 821C1038.17 822.649 1052.24 823.061 1064.51 826.473C1104.64 837.634 1118.64 870.575 1096.57 899.067C1095.09 900.977 1093.64 902.899 1092.16 905.411C1088.81 906.003 1085.46 906 1081.12 906Z" fill="#ECECEC"/>
<path d="M795.972 807.923C766.617 807.273 738.322 806.65 710.027 806.026C710.018 805.239 710.009 804.455 710 803.668C773.467 801.796 836.935 799.921 902 798C895.31 806.603 889.224 811.934 874.577 810.864C848.855 808.985 822.892 808.827 795.972 807.923Z" fill="#E63B3C"/>
<path d="M668.653 840.547C724.305 839.027 778.881 837.512 833.332 836C835.106 848.42 834.259 849.344 819.282 848.924C763.851 847.369 708.431 845.653 653.009 843.948C650.989 843.886 649.002 843.293 647 842.947C647.021 842.148 647.041 841.349 647.062 840.552C653.902 840.552 660.739 840.552 668.653 840.547Z" fill="#E63B3C"/>
<path d="M674.369 879.193C666.813 878.941 660.407 878.697 654 878.453C654.066 877.698 654.134 876.943 654.201 876.187C717.282 874.799 780.363 873.409 844.325 872C845.55 875.999 846.516 879.153 848 884C789.56 882.375 732.538 880.789 674.369 879.193Z" fill="#E63B3C"/>
<path d="M832.656 918.975C780.406 917.364 729.283 915.778 678.16 914.19C678.107 913.558 678.053 912.926 678 912.294C680.76 911.968 683.51 911.412 686.281 911.352C735.035 910.275 783.807 909.53 832.528 908.043C844.85 907.666 852.424 909.651 855 919C847.942 919 840.863 919 832.656 918.975Z" fill="#E63B3C"/>
<path d="M897.737 953.966C849.155 952.201 801.711 950.469 754.265 948.735C754.177 947.905 754.088 947.074 754 946.246C757.143 945.871 760.271 945.26 763.434 945.16C806.703 943.808 850.009 942.863 893.236 941.032C906.941 940.451 909.409 947.949 919 954C910.425 954 904.652 954 897.737 953.966Z" fill="#E63B3C"/>
<path d="M898.066 829.072C889.14 838.227 880.841 846.976 872.224 855.575C870.666 857.128 867.492 859.218 865.619 858.982C863.445 858.707 860.826 856.313 860.216 854.543C853.607 835.39 874.744 820.073 904 823.476C902.021 825.355 900.301 826.984 898.066 829.072Z" fill="#E63B3C"/>
<path d="M544.506 838.288C556.351 837.392 567.274 835.957 578.184 836.001C582.675 836.019 590.674 838.98 590.946 841.018C591.709 846.756 584.26 847.337 578.075 846.875C561.758 845.655 545.492 844.076 529.205 842.639C529.137 841.826 529.068 841.012 529 840.198C533.859 839.581 538.719 838.964 544.506 838.288Z" fill="#E63B3C"/>
<path d="M1390.15 683C1407.02 694.496 1407.46 713.994 1390.4 726C1389.83 711.249 1389.99 697.124 1390.15 683Z" fill="#E63B3C"/>
<path d="M1389.72 684.103C1390.16 698.836 1389.99 713.112 1389.82 728.136C1387.1 728.921 1384.39 728.958 1380.65 729C1379.78 713.953 1379.93 698.899 1380.25 683.102C1383.32 682.789 1386.21 683.217 1389.72 684.103Z" fill="#ECECEC"/>
<path d="M1295.7 439.505C1333.06 444.532 1349.07 467.589 1329.79 487.312C1319.85 497.481 1305.24 501.517 1287.89 497.869C1262.33 492.498 1236.66 491.214 1210.49 495.094C1207.16 495.588 1203.93 496.389 1200.18 497.14C1221.35 499.614 1241.97 501.227 1261.96 504.559C1287.32 508.789 1287.11 509.391 1287.23 526.908C1287.26 530.577 1287.24 534.248 1287.24 538.529C1226.09 526.738 1166.1 524.211 1104.94 539C1104.94 526.506 1104.94 514.871 1104.94 502.916C1099.22 501.313 1094.43 499.725 1089.42 498.605C1062.92 492.691 1049.43 474.975 1059.16 458.658C1069.45 441.39 1098.16 434.272 1123.51 442.723C1126.7 443.787 1129.8 444.969 1133.89 446.431C1144.64 425.872 1165.54 413.135 1198.21 414.046C1228.53 414.89 1249.92 426.211 1259.59 445.447C1271.59 443.394 1283.17 441.412 1295.7 439.505Z" fill="#F7F6F6"/>
<path d="M1102.9 624.435C1084.06 618.591 1076.27 610.188 1078.32 598.595C1080.47 586.373 1090.02 578.333 1108.87 576.845C1137.14 574.614 1165.69 572.898 1194.1 573.005C1224.91 573.121 1255.89 574.582 1286.45 577.33C1310.47 579.492 1320.21 590.673 1316.08 606.218C1314.02 613.93 1308.01 619.792 1297.49 622.081C1286.65 624.438 1275.21 626.601 1263.99 626.718C1217.23 627.2 1170.45 626.962 1123.68 626.756C1117.03 626.726 1110.4 625.416 1102.9 624.435ZM1250.93 594.058C1244.84 598.72 1244.31 603.92 1251.51 607.581C1254.93 609.32 1263.69 609.737 1265.77 608.108C1269.15 605.453 1271.39 600.11 1269.9 596.838C1267.38 591.312 1260 590.442 1250.93 594.058ZM1128.52 593.114C1126.73 594.861 1123.9 596.464 1123.35 598.382C1121.72 604.091 1125.91 608.868 1133.53 609.242C1138.06 609.464 1145.07 606.008 1147.34 602.914C1150.8 598.185 1146.54 593.862 1139.24 592.136C1136.53 591.498 1133.15 592.251 1128.52 593.114ZM1193.42 618.39C1200.7 616.168 1208.12 614.128 1215.12 611.536C1216.24 611.12 1215.48 608.234 1215.59 606.49C1213.24 606.598 1210.14 606.071 1208.68 606.918C1200.74 611.514 1193.39 611.666 1185.45 606.883C1184.05 606.041 1179.48 606.11 1178.56 606.939C1177.32 608.05 1177.13 611.134 1178.37 611.927C1182.28 614.41 1187.07 616.217 1193.42 618.39Z" fill="#F7F6F6"/>
<path d="M1310.01 728.124C1295.9 734.728 1285.81 732.923 1278 722.478C1278.53 715.759 1280.97 709.607 1290.11 708.04C1295.04 707.192 1301.33 709.194 1306.5 710.754C1309.22 711.574 1310.87 714.206 1314.9 717.636C1316.69 712.354 1318.01 708.475 1319.59 704C1332.02 708.871 1332.11 718.856 1320.02 723.822C1316.81 725.138 1313.52 726.345 1310.01 728.124Z" fill="#383838"/>
<path d="M1174 804.068C1171.07 808.68 1167.03 813.114 1162.56 818C1160.27 817.705 1157.3 817.224 1156.75 816.165C1153.48 809.947 1146.69 809.196 1138.08 809.171C1129.52 809.147 1122.67 809.904 1120.25 816.841C1119.1 816.738 1117.95 816.636 1116.8 816.534C1115.54 812.74 1114.27 808.946 1113 804.578C1132.95 803.965 1152.91 803.927 1174 804.068Z" fill="#E63B3C"/>
<path d="M1472.36 842.454C1485.19 847.645 1495.56 853.491 1498 864C1487.03 858.126 1477 851.167 1464.84 846.684C1452.57 842.163 1438.19 840.1 1425 837.021C1440.91 834.536 1456.59 836.678 1472.36 842.454Z" fill="#ECECEC"/>
<path d="M1406.57 818C1403.92 817.483 1400.68 816.953 1400.31 815.844C1397.27 806.736 1394.77 797.52 1392 788C1405.3 791.348 1413.3 807.701 1406.57 818Z" fill="#ECECEC"/>
<path d="M1019.98 906C1020.46 922.628 1010.77 932.59 992.51 935.375C973.095 938.339 956.589 930.558 952.092 916.241C951.177 913.33 950.703 910.347 950 906.732C955.352 906.043 960.73 906.02 967.152 906.722C969.68 911.271 969.55 916.752 973.029 918.522C978.13 921.114 986.514 922.862 992.248 921.713C1002.04 919.747 1003.45 912.949 1001.9 906.165C1007.57 906.087 1013.25 906.01 1019.98 906Z" fill="#D8D8D8"/>
<path d="M1003.78 906.011C1006.57 912.876 1005.04 919.674 994.333 921.64C988.068 922.79 978.907 921.041 973.332 918.449C969.531 916.679 969.673 911.197 968 906.711C979.522 906.01 991.095 905.97 1003.78 906.011Z" fill="#383838"/>
<path d="M1450.3 911.128C1445.11 902.709 1440.14 894.963 1435.02 887C1452.13 887.596 1467.16 896.845 1470.42 908.319C1473.46 919.065 1464.31 931.108 1449.6 935.704C1434.51 940.419 1415.55 937.652 1405.5 929.421C1397.05 922.499 1391.52 905.439 1405.71 896.569C1409.37 903.276 1413 909.507 1416.17 915.85C1419.63 922.809 1426.68 925.501 1436.72 924.098C1446.09 922.79 1451.72 918.993 1450.3 911.128Z" fill="#D8D8D8"/>
<path d="M1251 593.118C1259.3 590.156 1267.49 591.403 1270 596.5C1271.49 599.52 1269.38 605.55 1266 608C1264 610 1253 608.873 1249.5 607.228C1242.31 603.85 1244.16 597.794 1251 593.118Z" fill="#E63534"/>
<path d="M1128.5 593C1132.27 592.548 1136.86 591.412 1139.5 592C1146.65 593.59 1151.7 599.841 1147 603.5C1144.79 606.353 1137.93 609.705 1133.5 609.5C1126.04 609.155 1121.75 604.246 1123.34 598.983C1123 597.5 1125.99 594.954 1128.5 593Z" fill="#E63534"/>
<path d="M1193.5 618.5C1187.28 616.388 1180.17 613.861 1175.67 611.389C1174.23 610.6 1174.46 607.53 1175.89 606.424C1176.95 605.599 1183.39 605.587 1185 606.424C1194.14 611.185 1199.35 611.576 1208.5 607C1210.18 606.158 1215.82 606.085 1218.52 605.978C1218.4 607.713 1219.27 610.586 1217.98 611C1209.92 613.58 1202.98 616.339 1193.5 618.5Z" fill="#E63534"/><text x="600" y="300" font-family="Arial, sans-serif" font-size="180" font-weight="bold" fill="white">
      DEVORAYA
    </text>
  </g>
</svg>
