<svg width="194" height="53" viewBox="0 0 194 53" fill="none" xmlns="http://www.w3.org/2000/svg">
<path d="M64.9617 27.8741C66.361 27.5589 67.8186 27.3281 69.145 26.9068C70.8093 26.3779 71.4823 26.3507 73.021 27.2112C73.1697 27.4319 73.238 27.5813 73.2823 27.7854C73.13 28.197 73.0026 28.5537 72.83 29.0392C72.4423 28.724 72.2835 28.4819 72.0223 28.4066C71.5238 28.2631 70.9183 28.079 70.4438 28.157C69.5641 28.3011 69.3297 28.8667 69.17 29.4689C67.5657 29.763 66.0389 30.023 64.417 30.268C62.366 29.8684 60.4109 29.4834 58.6524 29.1372C60.0564 30.0873 62.0392 30.5087 64.1567 30.781C63.9795 31.1616 63.8032 31.4828 63.6066 31.8411C64.154 32.002 64.6478 32.1506 65.1454 32.294C66.6601 32.7301 67.7586 33.4543 68.4306 34.4792C69.3472 35.8764 69.1653 37.2917 68.569 38.7077C68.2497 39.4657 67.8749 40.2128 67.5574 40.8959C68.3392 41.2592 69.0564 41.5468 69.6823 41.9084C69.9121 42.0412 70.0847 42.3929 69.985 42.5642C69.8992 42.7116 69.3915 42.8116 69.0666 42.8164C67.4604 42.8401 65.8543 42.8295 64.2481 42.8201C63.9057 42.8182 63.5641 42.7714 63.1266 42.7377C63.2217 42.3571 63.2853 42.0684 63.3675 41.782C63.7506 40.4428 64.2758 39.1143 64.4853 37.7626C64.6921 36.4313 64.0137 35.9424 62.0087 35.5824C60.2909 35.5455 58.657 35.5221 57.0232 35.5134C54.3352 35.4989 51.9029 35.0796 50.1546 33.5467C48.6001 31.0844 49.5694 28.7669 51.0823 26.4992C51.6232 25.688 52.3312 24.9288 53.0115 24.087C50.4555 22.6745 49.5038 20.7565 49.573 18.559C47.6069 18.3446 45.8687 18.5511 44.174 19.1197C41.3675 20.0606 41.3315 20.0359 39.9157 18.1283C39.7407 17.8926 39.6029 17.644 39.5078 17.4956C41.2422 17.2205 42.8742 16.8961 44.5395 16.7212C45.6029 16.6098 46.7152 16.7203 47.9512 16.7659C48.2235 16.8067 48.349 16.8129 48.6444 16.8274C48.3933 16.7063 48.2854 16.654 48.1774 16.6021C46.525 15.8193 44.7334 15.5987 42.7552 15.8863C41.3469 16.0912 41.2672 16.0192 40.8988 15.0526C40.7086 14.5539 40.5333 14.0527 40.3627 13.5839C41.7479 13.5403 43.047 13.4723 44.3466 13.4656C46.0893 13.4566 47.5109 14.0057 48.7681 14.7732C49.2278 15.0543 49.6321 15.3782 50.0863 15.7002C52.4918 14.1218 51.2494 12.1528 51.6398 10.3287C49.5601 9.89481 48.0592 9.06414 47.3004 7.67989C46.8029 6.77278 46.8444 5.8786 47.3364 4.98118C48.4414 2.96555 51.4164 2.03214 54.9777 2.58663C57.902 -0.423156 64.298 -1.29362 68.4232 2.63601C72.2687 2.11134 74.822 2.94811 76.0395 5.13192C77.1444 7.11451 75.8586 9.1845 72.8318 10.1286C72.0121 10.3843 71.6309 10.6764 71.7444 11.2843C71.7989 11.5783 71.7703 11.8819 71.7472 12.1801C71.6586 13.3316 71.9724 14.35 72.8041 15.4301C76.2066 19.8478 72.9057 24.6077 65.7943 25.7943C65.5497 25.8352 65.3041 25.8759 64.982 25.9294C64.982 26.3565 64.982 26.7701 64.8832 27.2763C63.2595 27.0792 61.7346 26.7898 60.1995 26.4983C61.5195 27.379 63.0721 27.8908 64.9617 27.8741ZM70.7189 3.58309C69.6509 3.76715 68.582 3.9514 67.4743 4.1422C66.5826 2.35383 64.609 1.30143 61.8112 1.22287C58.7964 1.13823 56.8672 2.32235 55.8758 4.23377C55.4992 4.09761 55.2121 3.98786 54.9177 3.889C52.5786 3.10328 49.9293 3.76503 48.9795 5.37044C48.0823 6.88743 49.3275 8.53438 51.7718 9.08426C52.2352 9.18838 52.6764 9.33598 53.2044 9.48506C53.2044 10.5964 53.2044 11.6782 53.2044 12.8397C58.8481 11.4648 64.3838 11.6997 70.0257 12.7959C70.0257 12.3979 70.0275 12.0567 70.0257 11.7154C70.0137 10.087 70.034 10.0311 67.693 9.63774C65.8487 9.32795 63.9463 9.17804 61.993 8.9481C62.3383 8.87823 62.6364 8.80374 62.9438 8.75786C65.3586 8.39712 67.7272 8.51647 70.0857 9.01577C71.6872 9.355 73.0358 8.97977 73.9524 8.03435C75.7312 6.20075 74.2534 4.05709 70.7189 3.58309ZM53.1297 20.6775C53.7407 20.742 54.3518 20.8598 54.9638 20.8624C59.2718 20.881 63.5798 20.9024 67.8869 20.859C68.9207 20.8486 69.974 20.654 70.9718 20.442C71.942 20.236 72.4949 19.7087 72.6841 19.015C73.0654 17.6167 72.1681 16.6108 69.9555 16.4164C67.141 16.1692 64.2878 16.0376 61.4503 16.0273C58.8333 16.0176 56.2035 16.1721 53.5995 16.3728C51.8641 16.5066 50.9844 17.2299 50.786 18.3293C50.5977 19.372 51.3149 20.128 53.1297 20.6775Z" fill="#E63534"/>
<path d="M72.9546 28.1814C72.8854 28.0325 72.8171 27.8835 72.7368 27.6878C74.0365 26.7067 75.5623 26.0431 77.511 25.9406C77.811 25.9248 78.122 25.9976 78.4479 26.1456C78.4525 27.6569 78.4396 29.0521 78.4257 30.4472C78.1774 30.5674 77.9319 30.7822 77.679 30.787C77.2267 30.7953 76.7688 30.6771 76.0996 30.5813C76.4559 31.0746 76.7448 31.4576 77.0125 31.8475C77.5507 32.6344 78.1063 33.4169 78.6002 34.2168C78.9593 34.799 79.4245 35.2154 80.307 35.5552C82.0626 36.2312 82.1134 37.4908 82.1051 38.7003C82.1042 38.9128 82.0017 39.1249 81.9934 39.1574C83.798 39.428 85.5713 39.5871 87.231 39.9708C89.1242 40.4085 90.3057 41.4531 91.1134 42.6677C91.6165 43.4234 91.466 43.5759 90.2734 43.6444C89.9088 43.6652 89.5423 43.6667 88.994 43.6844C85.3543 43.5533 82.0534 43.722 79.3128 45.455C78.5226 45.955 77.4002 46.2143 76.43 46.5841C73.8897 46.676 73.8906 46.676 74.4666 44.9668C74.4814 44.9225 74.45 44.8711 74.439 44.8223C74.3734 44.8217 74.2793 44.8027 74.2497 44.8243C72.3777 46.2085 70.0599 46.6401 67.3174 46.5899C62.079 46.494 56.834 46.5538 51.4885 46.4916C51.5208 46.2598 51.6528 46.0848 51.7885 45.9108C53.81 43.316 52.5288 40.3159 48.8531 39.2996C47.7288 38.9889 46.4411 38.9514 45.231 38.732C45.5208 38.5066 45.7756 38.2982 46.1014 38.1775C46.706 37.9532 47.534 37.898 47.5285 37.2135C48.4433 37.2014 49.2574 37.2021 50.1057 37.2529C50.9208 37.2708 51.7026 37.2385 52.5786 37.1951C53.0503 37.1975 53.4279 37.2109 53.8063 37.2809C53.931 37.7092 54.0547 38.0811 54.1783 38.4531C54.291 38.4631 54.4026 38.4731 54.5153 38.4832C54.7516 37.8031 55.4208 37.7288 56.2571 37.7312C57.099 37.7336 57.7626 37.8073 58.082 38.4169C58.1356 38.5207 58.4263 38.5679 58.5971 38.6916C57.759 39.5774 57.1451 40.4606 57.1193 41.4968C57.0805 43.0693 58.0848 43.8136 60.3833 43.8303C63.0537 43.8497 65.726 43.8762 68.3937 43.817C69.1405 43.8005 69.998 43.6034 70.5879 43.2973C72.5125 42.2991 73.682 40.922 74.235 39.3378C75.3362 36.1828 73.6396 33.3373 72.0048 30.4475C72.3436 30.2844 72.6611 30.1738 72.9703 30.0532C74.1362 29.5979 74.1279 28.6825 72.9546 28.1814ZM87.1303 40.7333C85.7273 40.2003 84.2605 39.9931 82.7734 40.2335C84.0066 40.5316 85.3507 40.7312 86.498 41.1688C87.6343 41.6026 88.5722 42.2762 89.5977 42.8446C89.3697 41.8276 88.4005 41.2617 87.1303 40.7333ZM81.0602 38.4525C81.6547 37.5883 80.8627 36.1772 79.5463 35.8883C79.8205 36.7099 80.0688 37.5051 80.3688 38.2909C80.4057 38.3866 80.727 38.4324 81.0602 38.4525Z" fill="#E63B3C"/>
<path d="M28.6191 31.3112C27.2462 31.0423 27.0656 30.875 27.3398 29.9502C28.1359 27.2632 28.9475 24.5783 29.7698 21.895C30.0478 20.9873 30.4773 20.8311 31.8446 21.0307C36.0201 21.6408 40.1972 22.2463 44.3762 22.8445C45.914 23.0647 46.1614 23.268 45.854 24.2967C45.0685 26.9349 44.2663 29.5712 43.4393 32.2036C43.3373 32.5284 43.0472 32.8258 42.757 33.1872C42.67 33.2384 42.5923 33.2283 42.506 33.2308C41.9168 33.1921 41.4139 33.1508 40.8412 33.0738C38.3808 32.6726 35.9953 32.2918 33.5986 31.9472C31.9469 31.7094 30.2794 31.5213 28.6191 31.3112Z" fill="#E63B3C"/>
<path d="M48.2859 37.2562C48.393 37.9344 47.5493 37.9902 46.9318 38.2167C46.5995 38.3386 46.3401 38.5491 45.9496 38.7895C42.0372 39.0832 38.6057 39.9673 35.5882 41.5675C36.0215 41.5222 36.4349 41.4382 36.8249 41.3194C40.0414 40.3401 43.2901 39.5056 46.9438 39.7274C50.3656 39.935 52.7296 41.4678 52.509 43.6866C52.4084 44.6941 51.6533 45.672 51.1946 46.6636C50.7099 46.6638 50.2253 46.6638 49.5404 46.6765C48.1742 46.6867 47.0075 46.6846 45.7364 46.676C45.0736 46.6769 44.5161 46.6841 43.8579 46.6839C42.717 46.6801 41.6755 46.6838 40.5357 46.6815C39.9088 46.6779 39.38 46.68 38.7471 46.6776C37.4935 46.6843 36.3441 46.696 35.1947 46.7077C34.2999 46.6924 33.4047 46.6853 32.5106 46.6598C31.3742 46.6273 30.8521 46.3235 30.8323 45.56C30.8191 45.0427 30.877 44.4902 31.1359 44.0099C32.62 41.2574 34.9301 38.9195 38.9412 37.3625C39.6937 37.1721 40.3188 36.9182 40.9394 36.9232C41.9423 36.9313 42.9374 37.161 43.9447 37.204C45.3875 37.2654 46.8386 37.2427 48.2859 37.2562Z" fill="#E63B3C"/>
<path d="M76.4307 46.7782C77.3833 46.3531 78.4882 46.0989 79.2673 45.6086C81.9664 43.9094 85.2184 43.7438 88.7104 43.886C90.3959 45.4523 91.1547 47.1042 90.0008 48.96C88.7039 51.0459 85.4639 52.2013 82.0633 51.7968C79.0864 51.4429 76.6217 49.4894 76.4556 47.3504C76.4417 47.1807 76.4408 47.0106 76.4307 46.7782ZM84.9737 47.071C85.0827 47.7028 84.5768 48.0364 83.7359 48.1513C82.8341 48.2745 82.2008 48.0379 81.8897 47.4266C81.6064 46.8693 81.2796 46.3218 80.951 45.7326C79.6762 46.5119 80.1728 48.0108 80.9316 48.6189C81.8344 49.3422 83.5374 49.5852 84.8925 49.1709C86.2134 48.7672 87.0359 47.709 86.7617 46.7649C86.4701 45.7568 85.1196 44.9442 83.5836 44.8918C84.0424 45.5914 84.4891 46.272 84.9737 47.071Z" fill="#383838"/>
<path d="M48.2325 37.2117C46.7049 37.2113 45.2732 37.2339 43.8507 37.1724C42.8568 37.1294 41.8752 36.8992 40.886 36.8911C40.2739 36.886 39.6572 37.1406 38.9674 37.2923C37.2797 36.0475 35.6834 34.7786 34.0388 33.5397C33.7453 33.3188 33.2755 33.1527 32.8444 33.0813C31.6712 32.8873 30.4739 32.7626 29.289 32.6007C28.4013 32.4794 27.9896 32.1598 28.4142 31.4769C30.1211 31.6373 31.8135 31.8282 33.49 32.0695C35.9224 32.4193 38.3435 32.8057 40.8227 33.2691C40.6956 34.0086 40.1973 34.2384 39.2215 34.04C38.3508 33.8631 37.4415 33.7743 36.5493 33.6465C36.5025 33.6915 36.4556 33.7363 36.4086 33.7813C37.644 34.7171 38.8794 35.653 40.1147 36.5889C39.9155 35.0357 40.5865 33.9667 42.618 33.3697C42.618 33.3697 42.6968 33.3799 42.7335 33.3697C44.8605 33.5667 46.9485 33.7806 49.0402 33.9753C49.4335 34.0118 49.8415 33.9708 50.3556 33.9523C52.2295 35.4856 54.6821 35.9086 57.3913 35.9233C59.0381 35.932 60.6849 35.9555 62.3999 36.0525C62.411 36.9189 61.7095 37.217 60.5436 37.2294C58.4704 37.2153 56.5089 37.2191 54.5464 37.2229C54.1661 37.2093 53.7867 37.1956 53.2125 37.1799C52.2765 37.1856 51.5335 37.1934 50.7913 37.201C49.9716 37.2003 49.1529 37.1995 48.2325 37.2117Z" fill="#383838"/>
<path d="M45.6695 46.7999C46.8307 46.8022 47.9928 46.8043 49.2519 46.8097C49.6747 49.6707 46.7393 52.0007 42.63 52.1468C38.5785 52.2906 35.2818 50.2158 35.1017 47.4078C35.0919 47.257 35.0897 47.1059 35.0771 46.8901C36.2147 46.8135 37.359 46.8019 38.6096 46.856C38.782 47.1919 38.8284 47.4652 38.9181 47.7319C39.3583 49.0437 40.9745 49.7565 42.8755 49.4851C44.6633 49.2298 45.6122 48.3171 45.6695 46.7999Z" fill="#383838"/>
<path d="M50.9651 46.7076C51.3251 45.7123 52.0709 44.7307 52.1706 43.7195C52.3884 41.4925 50.0521 39.9538 46.67 39.7455C43.0587 39.5229 39.8479 40.3605 36.6686 41.3435C36.2832 41.4628 35.8745 41.547 35.4463 41.5926C38.4288 39.9863 41.8204 39.0989 45.6851 38.8615C47.0004 39.0137 48.2992 39.0517 49.4318 39.3667C53.1361 40.3969 54.4284 43.4376 52.3912 46.0676C52.2546 46.2439 52.1208 46.4214 51.9841 46.6532C51.6749 46.7079 51.3657 46.7076 50.9651 46.7076Z" fill="#ECECEC"/>
<path d="M24.6434 37.6544C21.9337 37.5944 19.3219 37.5369 16.71 37.4793C16.7092 37.4066 16.7084 37.3343 16.7075 37.2616C22.566 37.0888 28.4246 36.9157 34.4306 36.7384C33.8131 37.5325 33.2513 38.0246 31.8992 37.9259C29.5249 37.7524 27.1283 37.7378 24.6434 37.6544Z" fill="#E63B3C"/>
<path d="M12.8908 40.6658C18.0279 40.5255 23.0657 40.3857 28.092 40.2461C28.2557 41.3926 28.1775 41.4778 26.795 41.4391C21.6783 41.2955 16.5626 41.1371 11.4468 40.9798C11.2603 40.974 11.0769 40.9193 10.8921 40.8874C10.894 40.8136 10.8959 40.7398 10.8978 40.6663C11.5292 40.6663 12.1603 40.6663 12.8908 40.6658Z" fill="#E63B3C"/>
<path d="M13.4188 44.2332C12.7213 44.2099 12.13 44.1874 11.5386 44.1649C11.5447 44.0952 11.5509 44.0255 11.5571 43.9557C17.38 43.8276 23.2029 43.6993 29.107 43.5692C29.2201 43.9384 29.3093 44.2295 29.4463 44.6769C24.0518 44.5269 18.7882 44.3805 13.4188 44.2332Z" fill="#E63B3C"/>
<path d="M28.0298 47.9054C23.2068 47.7567 18.4877 47.6103 13.7687 47.4637C13.7638 47.4054 13.7588 47.347 13.7539 47.2887C14.0087 47.2586 14.2625 47.2073 14.5183 47.2017C19.0187 47.1023 23.5207 47.0336 28.018 46.8963C29.1554 46.8615 29.8546 47.0447 30.0924 47.9077C29.4409 47.9077 28.7874 47.9077 28.0298 47.9054Z" fill="#E63B3C"/>
<path d="M34.0371 51.1353C29.5526 50.9724 25.1731 50.8125 20.7935 50.6525C20.7854 50.5758 20.7772 50.4991 20.769 50.4227C21.0592 50.3881 21.3479 50.3317 21.6399 50.3225C25.6339 50.1977 29.6314 50.1104 33.6216 49.9414C34.8867 49.8878 35.1145 50.5799 35.9998 51.1385C35.2083 51.1385 34.6754 51.1385 34.0371 51.1353Z" fill="#E63B3C"/>
<path d="M34.0675 39.6066C33.2436 40.4517 32.4775 41.2593 31.6821 42.053C31.5383 42.1964 31.2453 42.3893 31.0724 42.3675C30.8717 42.3422 30.63 42.1212 30.5737 41.9578C29.9636 40.1898 31.9147 38.7759 34.6153 39.0901C34.4326 39.2635 34.2738 39.4139 34.0675 39.6066Z" fill="#E63B3C"/>
<path d="M1.43132 40.4573C2.52471 40.3746 3.53299 40.2421 4.54006 40.2462C4.95462 40.2478 5.69298 40.5212 5.71809 40.7093C5.78852 41.239 5.10092 41.2926 4.53 41.2499C3.02382 41.1373 1.52234 40.9916 0.0189247 40.8589C0.0126477 40.7839 0.00627692 40.7087 0 40.6336C0.448523 40.5766 0.897137 40.5197 1.43132 40.4573Z" fill="#E63B3C"/>
<path d="M79.4909 26.123C81.0481 27.1842 81.0887 28.984 79.514 30.0923C79.4613 28.7306 79.4761 27.4268 79.4909 26.123Z" fill="#E63B3C"/>
<path d="M79.4511 26.2249C79.4917 27.5848 79.476 28.9026 79.4603 30.2894C79.2092 30.3619 78.9591 30.3653 78.6138 30.3692C78.5335 28.9802 78.5474 27.5906 78.5769 26.1325C78.8603 26.1036 79.1271 26.1431 79.4511 26.2249Z" fill="#ECECEC"/>
<path d="M70.7725 3.64653C74.2212 4.11056 75.699 6.2389 73.9193 8.05948C73.0018 8.99816 71.6532 9.37071 70.0516 9.03397C67.6922 8.53819 65.3227 8.41967 62.907 8.77782C62.5996 8.82342 62.3015 8.89736 61.9553 8.96668C63.9095 9.19505 65.8128 9.34394 67.6581 9.65151C69.999 10.042 69.9796 10.0975 69.9907 11.7145C69.9935 12.0532 69.9916 12.392 69.9916 12.7872C64.347 11.6988 58.8095 11.4655 53.1639 12.8307C53.1639 11.6774 53.1639 10.6034 53.1639 9.49985C52.6359 9.35188 52.1938 9.2053 51.7313 9.10191C49.2852 8.55601 48.0399 6.92068 48.9381 5.4145C49.8879 3.82053 52.5381 3.16348 54.8781 3.94357C55.1725 4.04179 55.4587 4.1509 55.8362 4.28585C56.8285 2.3881 58.7578 1.21237 61.7735 1.29647C64.5722 1.37437 66.5467 2.41939 67.4393 4.19502C68.547 4.00551 69.6159 3.82256 70.7725 3.64653Z" fill="#F7F6F6"/>
<path d="M52.9756 20.7171C51.2365 20.1776 50.5175 19.4019 50.7067 18.3318C50.9051 17.2036 51.7867 16.4615 53.5267 16.3241C56.1362 16.1182 58.7716 15.9598 61.3941 15.9697C64.2381 15.9804 67.0978 16.1152 69.9187 16.3689C72.1359 16.5685 73.035 17.6006 72.6538 19.0355C72.4636 19.7474 71.9088 20.2885 70.9378 20.4998C69.9372 20.7173 68.8812 20.917 67.8455 20.9278C63.5292 20.9723 59.211 20.9503 54.8938 20.9313C54.2799 20.9285 53.6679 20.8076 52.9756 20.7171ZM66.6399 17.913C66.0778 18.3434 66.0288 18.8234 66.6935 19.1613C67.0092 19.3218 67.8178 19.3603 68.0098 19.2099C68.3218 18.9649 68.5285 18.4717 68.391 18.1696C68.1584 17.6596 67.4772 17.5792 66.6399 17.913ZM55.3405 17.8259C55.1753 17.9872 54.9141 18.1351 54.8633 18.3122C54.7128 18.8392 55.0996 19.2801 55.803 19.3146C56.2212 19.3351 56.8682 19.0161 57.0778 18.7305C57.3972 18.294 57.0039 17.8949 56.3301 17.7356C56.0799 17.6767 55.7679 17.7462 55.3405 17.8259ZM61.3313 20.1591C62.0033 19.954 62.6882 19.7656 63.3344 19.5264C63.4378 19.488 63.3676 19.2216 63.3778 19.0606C63.1608 19.0706 62.8747 19.0219 62.7399 19.1001C62.007 19.5244 61.3285 19.5384 60.5956 19.0969C60.4664 19.0192 60.0445 19.0255 59.9596 19.102C59.8452 19.2046 59.8276 19.4893 59.9421 19.5625C60.303 19.7917 60.7452 19.9585 61.3313 20.1591Z" fill="#F7F6F6"/>
<path d="M72.0934 30.2884C70.791 30.898 69.8596 30.7313 69.1387 29.7672C69.1876 29.147 69.4128 28.5791 70.2565 28.4344C70.7116 28.3562 71.2922 28.541 71.7694 28.685C72.0205 28.7607 72.1728 29.0036 72.5448 29.3202C72.7101 28.8327 72.8319 28.4746 72.9777 28.0615C74.1251 28.5112 74.1334 29.4328 73.0174 29.8912C72.7211 30.0127 72.4174 30.1241 72.0934 30.2884Z" fill="#383838"/>
<path d="M59.5385 37.2985C59.268 37.7242 58.8951 38.1335 58.4825 38.5845C58.2711 38.5573 57.9969 38.5129 57.9462 38.4151C57.6443 37.8412 57.0176 37.7719 56.2228 37.7696C55.4326 37.7673 54.8003 37.8372 54.5769 38.4775C54.4708 38.468 54.3646 38.4586 54.2585 38.4492C54.1422 38.099 54.0249 37.7488 53.9077 37.3456C55.7493 37.289 57.5917 37.2855 59.5385 37.2985Z" fill="#E63B3C"/>
<path d="M87.0792 40.8419C88.2635 41.321 89.2208 41.8607 89.446 42.8307C88.4334 42.2885 87.5075 41.6461 86.3851 41.2323C85.2524 40.815 83.9251 40.6246 82.7075 40.3403C84.1761 40.111 85.6235 40.3087 87.0792 40.8419Z" fill="#ECECEC"/>
<path d="M81.0065 38.5845C80.7619 38.5368 80.4629 38.4879 80.4287 38.3855C80.1481 37.5448 79.9173 36.6941 79.6616 35.8153C80.8893 36.1244 81.6278 37.6339 81.0065 38.5845Z" fill="#ECECEC"/>
<path d="M45.321 46.7076C45.3653 48.2425 44.4709 49.1621 42.7853 49.4192C40.9932 49.6928 39.4695 48.9745 39.0544 47.653C38.97 47.3843 38.9262 47.1089 38.8613 46.7752C39.3554 46.7116 39.8518 46.7095 40.4446 46.7743C40.6779 47.1942 40.6659 47.7001 40.9871 47.8635C41.4579 48.1028 42.2318 48.2641 42.7611 48.1581C43.665 47.9766 43.7952 47.3491 43.6521 46.7229C44.1755 46.7157 44.6998 46.7086 45.321 46.7076Z" fill="#D8D8D8"/>
<path d="M43.8257 46.7087C44.0833 47.3424 43.942 47.9699 42.9537 48.1513C42.3754 48.2575 41.5297 48.096 41.0151 47.8568C40.6643 47.6934 40.6774 47.1874 40.5229 46.7733C41.5865 46.7086 42.6548 46.7049 43.8257 46.7087Z" fill="#383838"/>
<path d="M85.043 47.1811C84.5639 46.4039 84.1051 45.6889 83.6325 44.9539C85.2119 45.0089 86.5993 45.8626 86.9002 46.9218C87.1808 47.9137 86.3362 49.0254 84.9783 49.4496C83.5854 49.8848 81.8353 49.6294 80.9076 48.8696C80.1276 48.2307 79.6171 46.6559 80.927 45.8371C81.2648 46.4563 81.5999 47.0314 81.8925 47.6169C82.2119 48.2593 82.8626 48.5078 83.7894 48.3783C84.6543 48.2576 85.174 47.9071 85.043 47.1811Z" fill="#D8D8D8"/>
<path d="M66.6462 17.8262C67.4124 17.5528 68.1684 17.6679 68.4 18.1384C68.5376 18.4172 68.3428 18.9738 68.0308 19.1999C67.8462 19.3845 66.8308 19.2805 66.5077 19.1287C65.844 18.8169 66.0148 18.2578 66.6462 17.8262Z" fill="#E63534"/>
<path d="M55.3383 17.8153C55.6863 17.7736 56.11 17.6687 56.3537 17.723C57.0137 17.8698 57.4798 18.4468 57.046 18.7846C56.842 19.0479 56.2087 19.3573 55.7998 19.3384C55.1112 19.3066 54.7152 18.8534 54.862 18.3676C54.8306 18.2307 55.1066 17.9957 55.3383 17.8153Z" fill="#E63534"/>
<path d="M61.3387 20.1692C60.7645 19.9742 60.1082 19.741 59.6928 19.5128C59.5599 19.44 59.5811 19.1566 59.7131 19.0545C59.811 18.9783 60.4054 18.9772 60.5541 19.0545C61.3977 19.494 61.8787 19.53 62.7233 19.1076C62.8784 19.0299 63.399 19.0232 63.6482 19.0133C63.6371 19.1735 63.7174 19.4387 63.5984 19.4769C62.8544 19.715 62.2137 19.9697 61.3387 20.1692Z" fill="#E63534"/>
<path d="M105.334 44H101.05V31.9161H105.369C106.585 31.9161 107.631 32.158 108.508 32.6418C109.385 33.1217 110.06 33.8121 110.532 34.7128C111.008 35.6136 111.246 36.6914 111.246 37.9462C111.246 39.205 111.008 40.2867 110.532 41.1914C110.06 42.0962 109.382 42.7904 108.497 43.2743C107.615 43.7581 106.561 44 105.334 44ZM103.605 41.811H105.228C105.983 41.811 106.618 41.6772 107.134 41.4097C107.653 41.1383 108.042 40.7194 108.302 40.153C108.565 39.5826 108.697 38.847 108.697 37.9462C108.697 37.0533 108.565 36.3236 108.302 35.7572C108.042 35.1908 107.655 34.7738 107.139 34.5063C106.624 34.2389 105.989 34.1051 105.234 34.1051H103.605V41.811ZM113.139 44V31.9161H121.281V34.0225H115.693V36.9019H120.862V39.0083H115.693V41.8936H121.305V44H113.139ZM125.495 31.9161L128.416 41.097H128.528L131.455 31.9161H134.287L130.121 44H126.829L122.657 31.9161H125.495ZM146.164 37.958C146.164 39.2758 145.915 40.3969 145.415 41.3212C144.919 42.2456 144.243 42.9517 143.385 43.4395C142.532 43.9233 141.572 44.1652 140.506 44.1652C139.432 44.1652 138.468 43.9213 137.615 43.4336C136.761 42.9458 136.087 42.2397 135.591 41.3153C135.095 40.391 134.847 39.2719 134.847 37.958C134.847 36.6403 135.095 35.5192 135.591 34.5948C136.087 33.6705 136.761 32.9663 137.615 32.4825C138.468 31.9948 139.432 31.7509 140.506 31.7509C141.572 31.7509 142.532 31.9948 143.385 32.4825C144.243 32.9663 144.919 33.6705 145.415 34.5948C145.915 35.5192 146.164 36.6403 146.164 37.958ZM143.574 37.958C143.574 37.1045 143.446 36.3846 143.191 35.7985C142.939 35.2124 142.583 34.7679 142.123 34.465C141.662 34.1621 141.123 34.0107 140.506 34.0107C139.888 34.0107 139.349 34.1621 138.889 34.465C138.429 34.7679 138.071 35.2124 137.815 35.7985C137.564 36.3846 137.438 37.1045 137.438 37.958C137.438 38.8116 137.564 39.5315 137.815 40.1176C138.071 40.7037 138.429 41.1482 138.889 41.451C139.349 41.7539 139.888 41.9054 140.506 41.9054C141.123 41.9054 141.662 41.7539 142.123 41.451C142.583 41.1482 142.939 40.7037 143.191 40.1176C143.446 39.5315 143.574 38.8116 143.574 37.958ZM148.057 44V31.9161H152.824C153.737 31.9161 154.516 32.0793 155.161 32.4058C155.81 32.7284 156.304 33.1866 156.642 33.7806C156.984 34.3706 157.155 35.0649 157.155 35.8634C157.155 36.6659 156.982 37.3562 156.636 37.9344C156.29 38.5087 155.788 38.9493 155.131 39.2561C154.478 39.5629 153.688 39.7163 152.759 39.7163H149.567V37.663H152.346C152.834 37.663 153.239 37.5962 153.562 37.4624C153.884 37.3287 154.124 37.1281 154.282 36.8606C154.443 36.5931 154.524 36.2607 154.524 35.8634C154.524 35.4622 154.443 35.1239 154.282 34.8486C154.124 34.5732 153.882 34.3647 153.556 34.2231C153.233 34.0776 152.826 34.0048 152.335 34.0048H150.612V44H148.057ZM154.583 38.5009L157.586 44H154.766L151.827 38.5009H154.583ZM161.044 44H158.306L162.477 31.9161H165.77L169.935 44H167.198L164.171 34.6774H164.076L161.044 44ZM160.872 39.2502H167.339V41.2445H160.872V39.2502ZM169.449 31.9161H172.31L175.066 37.1202H175.184L177.939 31.9161H180.801L176.393 39.7281V44H173.856V39.7281L169.449 31.9161ZM183.046 44H180.308L184.48 31.9161H187.772L191.938 44H189.2L186.173 34.6774H186.079L183.046 44ZM182.875 39.2502H189.342V41.2445H182.875V39.2502Z" fill="white"/>
</svg>
