<svg width="182" height="140" viewBox="0 0 182 140" fill="none" xmlns="http://www.w3.org/2000/svg">
<path d="M22 67.2745V77.5491H27.4725C31.3876 77.5491 33.3344 77.4625 34.3943 77.2246C39.3909 76.1647 42.3327 72.5524 42.3327 67.5125C42.3327 63.208 40.3859 59.9418 36.7953 58.2546C34.5457 57.2163 33.0532 57 27.2562 57H22V67.2745ZM33.7454 61.5424C34.9783 61.9967 36.1896 63.1215 36.8385 64.3544C37.4226 65.4792 37.5307 68.6156 37.0332 69.9135C36.5141 71.2762 35.4109 72.4226 34.0482 73.0066C33.1181 73.4176 32.4259 73.5258 29.96 73.6123L26.975 73.7205V67.4043V61.1098H29.787C32.0582 61.1098 32.7936 61.1963 33.7454 61.5424Z" fill="white"/>
<path d="M50.9847 61.7802C48.2593 62.2561 46.2476 63.7919 45.0796 66.2794C44.4956 67.5123 44.409 67.9017 44.4307 69.6321C44.4307 72.2927 44.9931 73.7419 46.637 75.4075C48.2809 77.0298 49.7085 77.5922 52.6286 77.722C54.2293 77.7868 55.1378 77.722 56.003 77.4624C57.3225 77.073 59.4206 75.667 59.4206 75.1695C59.4206 74.9749 58.8799 74.3043 58.2309 73.6554C57.1278 72.5739 57.0413 72.509 56.6735 72.8551C55.4406 73.9582 52.8449 74.4125 51.3524 73.7852C50.5088 73.4391 49.2543 72.0764 49.2543 71.4923C49.2543 71.0814 49.4273 71.0597 55.008 71.0597H60.7833L60.6752 69.2428C60.5887 67.7503 60.4589 67.1662 59.8965 66.0198C58.2958 62.7752 54.8349 61.1313 50.9847 61.7802ZM54.3807 65.6305C55.3324 66.0847 55.8516 66.6904 56.176 67.7935L56.3707 68.4641H52.6935C50.3142 68.4641 49.038 68.3775 49.038 68.2478C49.038 67.7286 49.9248 66.301 50.4872 65.9116C51.5904 65.1329 53.0396 65.0248 54.3807 65.6305Z" fill="white"/>
<path d="M109.712 61.6938C108.068 62.0832 107.527 62.2995 106.77 62.9917L105.927 63.7488V62.8619C105.927 62.0616 105.883 61.975 105.386 61.975C105.018 61.975 104.759 62.1697 104.521 62.6456C104.002 63.619 102.769 64.9168 102.033 65.2196L101.384 65.4792V71.5141V77.5491H103.655H105.927V73.5907C105.927 69.416 106.078 68.2912 106.727 67.4043C107.527 66.3661 108.241 65.9983 109.712 65.9118L111.118 65.8253V63.6839C111.118 61.3478 111.14 61.3694 109.712 61.6938Z" fill="white"/>
<path d="M116.742 62.0616C115.92 62.2995 114.016 63.1431 113.735 63.4027C113.692 63.4459 113.973 64.203 114.362 65.0899L115.076 66.7121L116.179 66.1498C117.585 65.4359 120.203 65.198 121.198 65.7171C122.063 66.1714 122.56 66.7554 122.712 67.5341L122.842 68.183L119.835 68.3128C115.682 68.5075 114.168 69.0915 113.238 70.9085C112.913 71.5574 112.783 72.2063 112.762 73.1581C112.762 75.7754 114.6 77.5491 117.52 77.7221C119.554 77.8519 120.722 77.614 121.933 76.792L123.015 76.0566V76.8136V77.5491H125.264H127.514L127.427 72.2928C127.384 69.416 127.297 66.7121 127.211 66.3012C126.908 64.5707 125.783 63.1864 123.988 62.3644C123.079 61.9534 122.474 61.8669 120.311 61.8236C118.667 61.802 117.347 61.8885 116.742 62.0616ZM122.798 71.7088C122.798 73.2878 121.955 74.2612 120.268 74.6289C119.446 74.802 117.975 74.4343 117.585 73.9584C117.131 73.4176 117.239 72.2063 117.78 71.6656C118.148 71.2978 118.602 71.168 119.921 71.0599C123.058 70.7787 122.798 70.7354 122.798 71.7088Z" fill="white"/>
<path d="M149.166 62.054C148.344 62.2919 146.441 63.1355 146.159 63.3951C146.116 63.4384 146.397 64.1954 146.787 65.0823L147.501 66.7046L148.604 66.1422C150.01 65.4284 152.627 65.1904 153.622 65.7096C154.487 66.1638 154.985 66.7478 155.136 67.5265L155.266 68.1755L152.259 68.3052C148.106 68.4999 146.592 69.0839 145.662 70.9009C145.337 71.5498 145.208 72.1988 145.186 73.1505C145.186 75.7678 147.025 77.5415 149.945 77.7146C151.978 77.8443 153.146 77.6064 154.357 76.7844L155.439 76.049V76.8061V77.5415H157.688H159.938L159.852 72.2853C159.808 69.4084 159.722 66.7046 159.635 66.2936C159.332 64.5631 158.208 63.1788 156.412 62.3568C155.504 61.9458 154.898 61.8593 152.735 61.8161C151.091 61.7944 149.772 61.881 149.166 62.054ZM155.223 71.7012C155.223 73.2803 154.379 74.2537 152.692 74.6214C151.87 74.7944 150.399 74.4267 150.01 73.9508C149.555 73.4101 149.664 72.1988 150.204 71.658C150.572 71.2903 151.026 71.1605 152.346 71.0523C155.482 70.7711 155.223 70.7279 155.223 71.7012Z" fill="#B3844D"/>
<path d="M61.6055 62.5589C61.7136 62.8834 63.1412 66.3659 64.7852 70.3027L67.7702 77.4408L70.3009 77.5056C72.8101 77.5705 72.8317 77.5489 73.0264 77.0298C73.1562 76.7486 74.0863 74.5423 75.1245 72.1196C77.4606 66.6038 79.3209 62.1696 79.3209 62.0614C79.3209 62.0181 78.2826 61.9749 77.0064 61.9749H74.6703L73.7186 64.4191C72.2477 68.2045 70.5821 72.1413 70.4523 72.1413C70.3875 72.1413 70.1711 71.7303 69.9765 71.2111C69.7818 70.7136 68.8949 68.4424 68.0081 66.1928L66.3858 62.083L63.8767 62.0181L61.3892 61.9532L61.6055 62.5589Z" fill="white"/>
<path d="M86.2429 64.7867C82.3277 65.176 79.7321 65.9764 79.386 66.8632C79.1697 67.4473 79.7753 69.6752 80.5973 71.1894C81.3327 72.5304 81.4841 72.6819 82.1547 72.7468C84.8152 73.028 91.3044 70.7135 94.5922 68.3341L95.6521 67.577L93.7054 67.7501C92.6455 67.8366 89.92 67.9231 87.6488 67.9231C82.3494 67.9231 79.9484 67.3824 81.7437 66.6469C83.4309 65.9331 87.0216 65.6087 92.4075 65.6952C97.2528 65.7601 98.1396 65.6735 98.1396 65.2409C98.1396 64.8083 89.3793 64.4622 86.2429 64.7867ZM82.2628 69.2642C82.3277 69.4805 82.544 69.9997 82.7171 70.4539C83.193 71.6003 82.9766 71.9248 82.2845 71.0163C81.549 70.0646 81.2678 68.8965 81.787 68.8965C81.9816 68.8965 82.1979 69.0696 82.2628 69.2642Z" fill="white"/>
<path d="M98.8967 67.3825C98.0964 68.2261 94.722 70.627 94.3543 70.627C94.2678 70.627 94.7653 70.1944 95.4791 69.6753C96.1712 69.1562 96.9716 68.464 97.2528 68.1612C97.707 67.6853 97.7286 67.5988 97.4258 67.469C97.2095 67.3825 96.7336 67.6204 96.1496 68.0963C92.7969 70.8217 87.8002 73.1578 84.1447 73.6986C82.5657 73.9149 82.3061 74.1312 83.0632 74.6071C83.5607 74.9315 87.0864 74.3043 89.5956 73.4607C91.5856 72.7901 91.6072 72.9848 89.6605 74.0014C88.3194 74.6936 85.5507 75.6021 84.8152 75.6021C84.2528 75.6021 84.2312 75.6021 84.6206 76.0347C85.3993 76.8999 88.8385 76.3375 92.0182 74.8234C94.2245 73.7635 94.2461 73.7419 93.4891 74.4124C91.9317 75.7319 88.7087 77.1595 86.6322 77.4407C86.0482 77.5056 85.5939 77.657 85.5939 77.7651C85.5939 77.8733 85.529 78.0896 85.4641 78.2843C85.356 78.5871 85.5939 78.6304 87.346 78.6304C88.4708 78.6304 90.6122 78.5655 92.148 78.479C94.549 78.3708 94.895 78.3059 94.895 77.9815C94.895 77.7651 94.7436 77.4839 94.5706 77.3325C94.0731 76.9216 94.1812 76.6187 95.0248 76.0563C97.6854 74.2394 100.108 69.7835 99.8268 67.1662L99.7619 66.4956L98.8967 67.3825Z" fill="white"/>
<path d="M24.8773 82.8916C25.3099 82.9349 26.0454 82.9349 26.4996 82.8916C26.9322 82.8484 26.5645 82.8051 25.6777 82.8051C24.7908 82.8051 24.4231 82.8484 24.8773 82.8916Z" fill="black"/>
<path d="M127.503 57.7974C131.376 57.2745 131.376 57.2745 132.523 58.0522C133.173 58.7912 133.536 59.6972 133.919 60.6055C134.399 61.6638 135.018 62.6437 135.605 63.6405C135.834 64.0364 136.062 64.4332 136.288 64.831C136.385 65.0007 136.482 65.1703 136.582 65.3451C136.791 65.7628 136.791 65.7628 136.791 66.1821C137.343 65.6651 137.69 65.0952 138.069 64.4339C138.198 64.2108 138.326 63.9878 138.458 63.758C138.591 63.5246 138.724 63.2913 138.861 63.0509C139.056 62.7119 139.056 62.7119 139.255 62.366C139.384 62.1405 139.513 61.915 139.647 61.6827C139.844 61.3452 139.844 61.3452 140.045 61.0009C140.436 60.3166 140.436 60.3166 140.754 59.5862C141.546 57.9033 141.546 57.9033 142.385 57.6005C143.024 57.5492 143.612 57.576 144.25 57.6401C144.465 57.6515 144.68 57.6628 144.902 57.6745C145.431 57.7041 145.956 57.7452 146.484 57.7974C145.646 59.4135 144.777 61.0083 143.884 62.5924C143.698 62.9234 143.698 62.9234 143.508 63.2611C142.866 64.3992 142.218 65.5321 141.549 66.6537C141.437 66.844 141.326 67.0342 141.211 67.2303C140.971 67.6256 140.721 68.0145 140.457 68.3925C139.213 70.2924 139.211 71.9871 139.227 74.2C139.224 74.542 139.221 74.884 139.217 75.2259C139.208 76.0547 139.211 76.8819 139.214 77.7111C137.682 77.7111 136.149 77.7111 134.57 77.7111C134.586 77.2349 134.602 76.7588 134.618 76.2683C134.698 72.3287 134.44 69.5837 132.125 66.3244C131.429 65.3009 130.851 64.2044 130.254 63.1164C130.03 62.716 129.806 62.3159 129.581 61.916C129.473 61.7244 129.366 61.5327 129.256 61.3353C129.012 60.9019 128.766 60.4699 128.519 60.0387C128.389 59.8119 128.26 59.5851 128.126 59.3515C128.007 59.1444 127.888 58.9373 127.765 58.724C127.503 58.2166 127.503 58.2166 127.503 57.7974Z" fill="#B3844D"/>
</svg>
