<svg width="182" height="140" viewBox="0 0 182 140" fill="none" xmlns="http://www.w3.org/2000/svg">
<path d="M45.5 61C44.0023 60.4589 43.6323 59.4462 43.7952 58.3728C43.9662 57.2411 44.9303 56.5164 46.4288 56.3786C48.6762 56.172 50.9459 56.0131 53.2044 56.023C55.6537 56.0338 58.1166 56.169 60.546 56.4235C62.4556 56.6237 63.2299 57.659 62.9016 59.0983C62.7378 59.8124 62.26 60.3552 61.4237 60.5671C60.562 60.7853 59.6525 60.9856 58.7605 60.9965C55.0432 61.0411 51.2981 61.1797 47.5799 61.1606C47.0513 61.1579 46.0962 61.0908 45.5 61ZM57.7223 57.9724C57.2381 58.404 59.9748 57.4457 57.7684 59.2245C58.0403 59.3855 56.8094 57.9452 56.9748 57.7944C57.2435 57.5486 57.1788 58.395 57.0604 58.092C56.86 57.5803 58.4433 57.6376 57.7223 57.9724ZM47.9909 57.885C47.8486 58.0467 47.6237 58.1952 47.5799 58.3727C47.4504 58.9014 50.0001 57.7944 48.3892 59.3783C48.7494 59.3989 45.7737 58.1715 45.9542 57.885C46.2293 57.4471 48.5803 58.1598 48 58C47.2305 57.885 48.359 57.8051 47.9909 57.885ZM53.5001 59C54.0789 58.7942 53.4437 59.24 54.0001 59C54.0892 58.9615 54.9041 59.285 54.9128 59.1235C54.726 59.1335 54.4796 59.0847 54.3635 59.1631C53.7323 59.5887 53.148 59.6027 52.5168 59.1599C52.4055 59.0819 55.5733 59.4232 55.5001 59.5C55.4016 59.6028 53.4016 58.9265 53.5001 59C52.9953 58.7988 53.811 59.2299 53.5001 59Z" fill="#F7F6F6"/>
<path d="M75 79.6916C76.0545 80.2478 77.4067 81.374 77.6073 82.5C76.7056 81.8706 75.6069 81.4804 74.6074 81.0001C73.5989 80.5157 72.1914 79.8299 71.1073 79.5C72.4149 79.2338 73.7038 79.0727 75 79.6916Z" fill="#ECECEC"/>
<path d="M70.5 77.8613C70.3441 77.8096 69.5107 77.9722 69.4889 77.8613C69.3101 76.9505 68.1946 75.9231 68.6947 75C69.4769 75.3348 70.8958 76.8314 70.5 77.8613Z" fill="#ECECEC"/>
<path d="M61.4 43.4485C64.5796 43.9311 65.9421 46.1445 64.3013 48.0379C63.4553 49.0142 62.1557 49.6558 60.6791 49.3056C58.5038 48.79 56.7272 48.6275 54.5 49C54.2166 49.0474 53.8192 48.9279 53.5 49C55.3017 49.2375 56.8272 49.3738 58.5285 49.6937C60.6868 50.0997 60.6689 50.1575 60.6791 51.8392C60.6817 52.1914 60.68 52.5438 60.68 52.9548C55.4757 51.8228 50.7051 52.0803 45.5 53.5C45.5 52.3006 45.165 50.6836 45.165 49.5359C44.6782 49.382 44.2706 49.2296 43.8442 49.1221C41.5889 48.5543 40.4408 46.8536 41.2688 45.2872C42.1446 43.6294 44.588 42.9461 46.7455 43.7574C47.017 43.8595 47.2808 43.973 47.6289 44.1134C48.5438 42.1397 50.3225 40.9169 53.1029 41.0044C55.6834 41.0854 57.5038 42.1722 58.3268 44.0189C59.3481 43.8218 60.3336 43.6315 61.4 43.4485Z" fill="#F7F6F6"/>
<path d="M56.06 67.9843C57.2728 67.6678 58.536 67.4361 59.6856 67.0131C61.128 66.4821 61.7112 66.4548 63.0448 67.3187C63.1736 67.5403 63.2328 67.6903 63.2712 67.8952C63.1392 68.3084 63.0288 68.6665 62.8792 69.154C62.5432 68.8375 62.4056 68.5944 62.1792 68.5188C61.7472 68.3748 61.2224 68.1899 60.8112 68.2682C60.0488 68.4129 59.8456 68.9808 59.7072 69.5854C58.3168 69.8806 56.9936 70.1416 55.588 70.3876C53.8104 69.9864 52.116 69.5999 50.592 69.2523C51.8088 70.2062 53.5272 70.6292 55.3624 70.9026C55.2088 71.2847 55.056 71.6072 54.8856 71.9669C55.36 72.1285 55.788 72.2776 56.2192 72.4216C57.532 72.8594 58.484 73.5865 59.0664 74.6154C59.8608 76.0181 59.7032 77.4391 59.1864 78.8607C58.9096 79.6216 58.5848 80.3717 58.3096 81.0575C58.9872 81.4222 59.6088 81.7109 60.1512 82.074C60.3504 82.2073 60.5 82.5604 60.4136 82.7323C60.3392 82.8803 59.8992 82.9808 59.6176 82.9856C58.2256 83.0093 56.8336 82.9987 55.4416 82.9893C55.1448 82.9874 54.8488 82.9404 54.4696 82.9066C54.552 82.5245 54.6072 82.2346 54.6784 81.947C55.0104 80.6026 55.4656 79.2688 55.6472 77.9118C55.8264 76.5753 55.2384 76.0844 53.5008 75.723C52.012 75.6859 50.596 75.6625 49.18 75.6537C46.8504 75.6392 44.7424 75.2182 43.2272 73.6793C41.88 71.2072 42.72 68.8806 44.0312 66.6039C44.5 65.7895 45.1136 65.0273 45.7032 64.1822C43.488 62.7641 42.6632 60.8385 42.7232 58.6323C41.0192 58.417 39.5128 58.6244 38.044 59.1952C35.6118 60.1398 35.5806 60.1151 34.3535 58.1999C34.2018 57.9633 34.0824 57.7138 34 57.5647C35.5031 57.2886 36.9175 56.9628 38.3608 56.7873C39.2824 56.6754 40.2464 56.7864 41.3176 56.8322C41.5536 56.8731 41.6624 56.8793 41.9184 56.8939C41.7008 56.7723 41.6072 56.7198 41.5136 56.6677C40.0816 55.8818 38.5288 55.6603 36.8144 55.9491C35.5938 56.1547 35.5248 56.0825 35.2055 55.1121C35.0407 54.6114 34.8887 54.1082 34.7409 53.6376C35.9414 53.5938 37.0673 53.5255 38.1936 53.5188C39.704 53.5098 40.936 54.0611 42.0256 54.8316C42.424 55.1137 42.7744 55.4389 43.168 55.7623C45.2528 54.1776 44.176 52.2008 44.5144 50.3695C42.712 49.9339 41.4112 49.0999 40.7536 47.7102C40.3224 46.7995 40.3584 45.9018 40.7848 45.0009C41.7424 42.9773 44.3208 42.0402 47.4072 42.5968C49.9416 39.5752 55.4848 38.7013 59.06 42.6464C62.3928 42.1197 64.6056 42.9598 65.6608 45.1522C66.6184 47.1426 65.504 49.2208 62.8808 50.1686C62.1704 50.4253 61.84 50.7186 61.9384 51.3289C61.9856 51.6241 61.9608 51.9289 61.9408 52.2282C61.864 53.3843 62.136 54.4067 62.8568 55.4911C65.8056 59.9262 62.9448 64.705 56.7816 65.8962C56.5696 65.9373 56.3568 65.9781 56.0776 66.0318C56.0776 66.4606 56.0776 66.8759 55.992 67.384C54.5848 67.1862 53.2632 66.8956 51.9328 66.603C53.0768 67.4872 54.4224 68.0009 56.06 67.9843ZM61.0496 43.5972C60.124 43.782 59.1976 43.967 58.2376 44.1586C57.4648 42.3631 55.7544 41.3066 53.3296 41.2277C50.7168 41.1427 49.0448 42.3315 48.1856 44.2505C47.8592 44.1138 47.6104 44.0036 47.3552 43.9044C45.328 43.1155 43.032 43.7799 42.2088 45.3917C41.4312 46.9146 42.5104 48.5681 44.6288 49.1201C45.0304 49.2247 45.4128 49.3729 45.8704 49.5225C45.8704 50.6382 45.8704 51.7243 45.8704 52.8904C50.7616 51.5101 55.5592 51.7459 60.4488 52.8465C60.4488 52.4469 60.4504 52.1043 60.4488 51.7617C60.4384 50.1268 60.456 50.0707 58.4272 49.6758C56.8288 49.3648 55.18 49.2143 53.4872 48.9835C53.7864 48.9133 54.0448 48.8385 54.3112 48.7925C56.404 48.4303 58.4568 48.5501 60.5008 49.0514C61.8888 49.392 63.0576 49.0152 63.852 48.0661C65.3936 46.2252 64.1128 44.0731 61.0496 43.5972ZM45.8056 60.7592C46.3352 60.8239 46.8648 60.9422 47.3952 60.9449C51.1288 60.9635 54.8624 60.985 58.5952 60.9414C59.4912 60.931 60.404 60.7356 61.2688 60.5227C62.1096 60.316 62.5888 59.7866 62.7528 59.0901C63.0832 57.6863 62.3056 56.6765 60.388 56.4813C57.9488 56.2331 55.476 56.101 53.0168 56.0906C50.7488 56.0809 48.4696 56.236 46.2128 56.4375C44.7088 56.5718 43.9464 57.2979 43.7744 58.4018C43.6112 59.4486 44.2328 60.2076 45.8056 60.7592Z" fill="#E63534"/>
<path d="M63.0272 67.3548C62.9672 67.2036 62.908 67.0523 62.8384 66.8536C63.9648 65.8572 65.2872 65.1831 66.976 65.0791C67.236 65.063 67.5056 65.1369 67.788 65.2873C67.792 66.8221 67.7808 68.2392 67.7688 69.6561C67.5536 69.7782 67.3408 69.9963 67.1216 70.0012C66.7296 70.0096 66.3328 69.8895 65.7528 69.7922C66.0616 70.2932 66.312 70.6823 66.544 71.0782C67.0104 71.8774 67.492 72.6721 67.92 73.4846C68.2312 74.0759 68.6344 74.4988 69.3992 74.8439C70.9208 75.5305 70.9648 76.8097 70.9576 78.0381C70.9568 78.2539 70.868 78.4694 70.8608 78.5024C72.4248 78.7771 73.9616 78.9388 75.4 79.3285C77.0408 79.773 78.0648 80.8339 78.7648 82.0675C79.2008 82.835 79.0704 82.9899 78.0368 83.0594C77.7208 83.0806 77.4032 83.0821 76.928 83.1C73.7736 82.9669 70.9128 83.1383 68.5376 84.8983C67.8528 85.4062 66.88 85.6695 66.0392 86.0451C63.8376 86.1384 63.8384 86.1385 64.3376 84.4025C64.3504 84.3575 64.3232 84.3053 64.3136 84.2558C64.2568 84.2551 64.1752 84.2358 64.1496 84.2578C62.5272 85.6636 60.5184 86.102 58.1416 86.051C53.6016 85.9536 49.056 86.0143 44.4232 85.9512C44.4512 85.7157 44.5656 85.538 44.6832 85.3613C46.4352 82.726 45.3248 79.679 42.1392 78.6468C41.1648 78.3313 40.0488 78.2931 39 78.0703C39.2512 77.8414 39.472 77.6297 39.7544 77.5071C40.2784 77.2794 40.996 77.2232 40.9912 76.5281C41.784 76.5158 42.4896 76.5165 43.2248 76.5681C43.9312 76.5863 44.6088 76.5535 45.368 76.5094C45.7768 76.5119 46.104 76.5254 46.432 76.5965C46.54 77.0315 46.6472 77.4092 46.7544 77.787C46.852 77.7972 46.9488 77.8074 47.0464 77.8176C47.2512 77.1269 47.8312 77.0515 48.556 77.0539C49.2856 77.0564 49.8608 77.1312 50.1376 77.7503C50.184 77.8558 50.436 77.9037 50.584 78.0293C49.8576 78.9289 49.3256 79.8259 49.3032 80.8783C49.2696 82.4754 50.14 83.2313 52.132 83.2482C54.4464 83.2679 56.7624 83.2948 59.0744 83.2348C59.7216 83.218 60.4648 83.0178 60.976 82.7069C62.644 81.6931 63.6576 80.2946 64.1368 78.6855C65.0912 75.4813 63.6208 72.5913 62.204 69.6564C62.4976 69.4907 62.7728 69.3784 63.0408 69.2559C64.0512 68.7935 64.044 67.8638 63.0272 67.3548ZM75.3128 80.1028C74.0968 79.5615 72.8256 79.3511 71.5368 79.5953C72.6056 79.898 73.7704 80.1007 74.7648 80.5452C75.7496 80.9858 76.5624 81.6699 77.4512 82.2472C77.2536 81.2143 76.4136 80.6396 75.3128 80.1028ZM70.052 77.7865C70.5672 76.9087 69.8808 75.4756 68.74 75.1822C68.9776 76.0166 69.1928 76.8242 69.4528 77.6223C69.4848 77.7195 69.7632 77.766 70.052 77.7865Z" fill="#E63B3C"/>
<path d="M24.1853 71.1237C23.013 70.8608 22.8588 70.6974 23.0929 69.7934C23.7727 67.167 24.4657 64.5427 25.1678 61.9199C25.4052 61.0327 25.772 60.88 26.9394 61.0751C30.5048 61.6715 34.0714 62.2633 37.6397 62.848C38.9528 63.0632 39.164 63.262 38.9016 64.2674C38.2308 66.8462 37.5459 69.4229 36.8397 71.996C36.7526 72.3135 36.5049 72.6042 36.2571 72.9574C36.1828 73.0074 36.1165 72.9976 36.0428 73C35.5397 72.9622 35.1103 72.9219 34.6213 72.8465C32.5204 72.4544 30.4835 72.0822 28.4371 71.7453C27.0267 71.5129 25.603 71.3291 24.1853 71.1237Z" fill="#E63B3C"/>
<path d="M41.484 76.4174C41.5728 77.1105 40.8728 77.1675 40.3604 77.399C40.0846 77.5236 39.8694 77.7387 39.5454 77.9844C36.2989 78.2845 33.4516 79.1881 30.9477 80.8236C31.3073 80.7773 31.6503 80.6914 31.974 80.57C34.6429 79.5692 37.3386 78.7162 40.3703 78.9429C43.2097 79.1551 45.1712 80.7217 44.9882 82.9893C44.9047 84.019 44.2782 85.0184 43.8975 86.0318C43.4954 86.032 43.0932 86.0321 42.5249 86.045C41.3913 86.0555 40.4232 86.0533 39.3685 86.0445C38.8185 86.0454 38.3559 86.0528 37.8098 86.0526C36.8631 86.0487 35.9988 86.0525 35.053 86.0501C34.5329 86.0464 34.0941 86.0486 33.5689 86.0462C32.5287 86.053 31.575 86.0649 30.6212 86.0769C29.8787 86.0612 29.1359 86.054 28.394 86.0279C27.4511 85.9947 27.0178 85.6843 27.0014 84.904C26.9905 84.3753 27.0385 83.8106 27.2534 83.3197C28.4849 80.5066 30.4017 78.1173 33.73 76.5259C34.3544 76.3314 34.8731 76.0719 35.388 76.077C36.2202 76.0853 37.0459 76.3201 37.8818 76.364C39.0789 76.4267 40.283 76.4036 41.484 76.4174Z" fill="#E63B3C"/>
<path d="M66 85.9977C66.8094 85.5743 67.7482 85.321 68.4102 84.8326C70.7035 83.1399 73.4667 82.9749 76.4338 83.1166C77.8659 84.6769 78.5106 86.3225 77.5302 88.1712C76.4283 90.2491 73.6753 91.4001 70.7859 90.9971C68.2565 90.6446 66.1624 88.6985 66.0212 86.5677C66.0094 86.3986 66.0086 86.2293 66 85.9977ZM73.2588 86.2894C73.3514 86.9187 72.9216 87.2511 72.2071 87.3655C71.4408 87.4883 70.9028 87.2526 70.6384 86.6436C70.3977 86.0885 70.12 85.5431 69.8408 84.9561C68.7577 85.7324 69.1796 87.2256 69.8243 87.8314C70.5914 88.5519 72.0385 88.794 73.1898 88.3813C74.3122 87.9791 75.011 86.925 74.7781 85.9845C74.5302 84.9802 73.3828 84.1707 72.0777 84.1185C72.4675 84.8155 72.8471 85.4934 73.2588 86.2894Z" fill="#383838"/>
<path d="M41.5556 76.9169C40.2137 76.9164 38.9562 76.9397 37.7067 76.8763C36.8337 76.8319 35.9715 76.5944 35.1025 76.5861C34.5649 76.5808 34.0233 76.8434 33.4174 77C31.9349 75.7156 30.5328 74.4065 29.0881 73.1283C28.8304 72.9004 28.4177 72.729 28.039 72.6553C27.0085 72.4551 25.9569 72.3265 24.916 72.1594C24.1364 72.0343 23.7747 71.7046 24.1476 71C25.647 71.1654 27.1335 71.3624 28.6061 71.6113C30.7427 71.9723 32.8693 72.371 35.047 72.849C34.9354 73.6121 34.4976 73.8491 33.6405 73.6445C32.8757 73.4619 32.077 73.3703 31.2934 73.2385C31.2522 73.2849 31.211 73.3311 31.1697 73.3775C32.2549 74.343 33.34 75.3087 34.4251 76.2743C34.2501 74.6717 34.8395 73.5688 36.6239 72.9529C36.6239 72.9529 36.6931 72.9634 36.7254 72.9529C38.5937 73.1561 40.4278 73.3769 42.2651 73.5777C42.6105 73.6153 42.9688 73.573 43.4205 73.554C45.0664 75.1359 47.2207 75.5724 49.6004 75.5875C51.0469 75.5965 52.4934 75.6208 53.9999 75.7209C54.0096 76.6148 53.3934 76.9223 52.3694 76.935C50.5483 76.9206 48.8253 76.9245 47.1015 76.9284C46.7675 76.9144 46.4342 76.9002 45.9299 76.884C45.1078 76.8899 44.4551 76.8979 43.8032 76.9058C43.0832 76.905 42.364 76.9043 41.5556 76.9169Z" fill="#383838"/>
<path d="M39.6868 86.0769C40.7487 86.0791 41.8115 86.081 42.963 86.086C43.3496 88.7579 40.6652 90.9339 36.9072 91.0703C33.202 91.2046 30.1872 89.267 30.0225 86.6446C30.0135 86.5038 30.0115 86.3627 30 86.1611C31.0403 86.0896 32.0868 86.0787 33.2304 86.1292C33.3881 86.4429 33.4306 86.6982 33.5126 86.9472C33.9151 88.1723 35.3932 88.8381 37.1317 88.5846C38.7666 88.3462 39.6344 87.4938 39.6868 86.0769Z" fill="#383838"/>
<path d="M43.9988 86.0769C44.3004 85.0621 44.9251 84.0613 45.0086 83.0302C45.1911 80.7595 43.2341 79.1907 40.4012 78.9783C37.3763 78.7514 34.6869 79.6054 32.0239 80.6076C31.701 80.7292 31.3587 80.8152 31 80.8616C33.4982 79.2238 36.3391 78.319 39.5762 78.0769C40.678 78.2321 41.7659 78.2709 42.7146 78.592C45.8174 79.6425 46.8998 82.7428 45.1934 85.4244C45.079 85.6042 44.9669 85.785 44.8524 86.0215C44.5934 86.0772 44.3344 86.0769 43.9988 86.0769Z" fill="#ECECEC"/>
<path d="M21.1643 76.8402C18.7181 76.7902 16.3602 76.7423 14.0022 76.6943C14.0015 76.6337 14.0007 76.5734 14 76.5129C19.2889 76.3689 24.5779 76.2247 30 76.0769C29.4425 76.7387 28.9353 77.1487 27.7148 77.0664C25.5713 76.9219 23.4077 76.9097 21.1643 76.8402Z" fill="#E63B3C"/>
<path d="M10.7369 79.4267C15.2009 79.3097 19.5787 79.1932 23.9464 79.0769C24.0887 80.0323 24.0208 80.1033 22.8194 80.071C18.3731 79.9514 13.9276 79.8194 9.482 79.6883C9.31997 79.6835 9.16059 79.6379 9 79.6113C9.00168 79.5498 9.00329 79.4884 9.00497 79.427C9.55364 79.427 10.1021 79.427 10.7369 79.4267Z" fill="#E63B3C"/>
<path d="M11.5749 83.6763C10.9907 83.6553 10.4954 83.635 10 83.6147C10.0051 83.5517 10.0104 83.4888 10.0155 83.4258C14.8929 83.3102 19.7703 83.1943 24.7159 83.0769C24.8106 83.4102 24.8853 83.673 25 84.0769C20.4814 83.9415 16.0725 83.8093 11.5749 83.6763Z" fill="#E63B3C"/>
<path d="M24.2327 87.0746C20.0999 86.9282 16.0563 86.784 12.0127 86.6396C12.0085 86.5822 12.0042 86.5247 12 86.4673C12.2183 86.4376 12.4358 86.3871 12.655 86.3816C16.5112 86.2837 20.3689 86.216 24.2226 86.0808C25.1972 86.0465 25.7962 86.227 26 87.0769C25.4417 87.0769 24.8818 87.0769 24.2327 87.0746Z" fill="#E63B3C"/>
<path d="M29.3247 90.0743C25.4971 89.9385 21.759 89.8053 18.0209 89.6719C18.0139 89.6081 18.0069 89.5441 18 89.4804C18.2476 89.4516 18.4941 89.4046 18.7433 89.3969C22.1524 89.2929 25.5643 89.2202 28.9701 89.0794C30.0499 89.0347 30.2443 89.6114 31 90.0769C30.3244 90.0769 29.8696 90.0769 29.3247 90.0743Z" fill="#E63B3C"/>
<path d="M32.4725 77.506C31.6791 78.2689 30.9414 78.998 30.1755 79.7146C30.037 79.844 29.7549 80.0181 29.5884 79.9985C29.3951 79.9756 29.1623 79.7761 29.1081 79.6286C28.5206 78.0325 30.3995 76.7561 33 77.0396C32.8241 77.1962 32.6712 77.332 32.4725 77.506Z" fill="#FF0100"/>
<path d="M1.25048 79.2849C2.20572 79.2035 3.08661 79.073 3.96644 79.077C4.32862 79.0786 4.9737 79.3478 4.99563 79.5331C5.05716 80.0547 4.45644 80.1075 3.95765 80.0655C2.64177 79.9546 1.33 79.8111 0.0165336 79.6804C0.0110497 79.6065 0.00548386 79.5325 0 79.4585C0.391854 79.4024 0.783787 79.3464 1.25048 79.2849Z" fill="#E63B3C"/>
<path d="M68.0115 65C69.3092 66.3367 69.3431 68.604 68.0308 70C67.9869 68.2848 67.9992 66.6423 68.0115 65Z" fill="#E63B3C"/>
<path d="M67.9721 65.1199C68.0161 66.7213 67.999 68.273 67.9821 69.9061C67.7101 69.9914 67.4391 69.9954 67.0651 70C66.9781 68.3645 66.9931 66.7282 67.0251 65.0111C67.3321 64.9771 67.6211 65.0236 67.9721 65.1199Z" fill="#ECECEC"/>
<path d="M62.5105 69.6616C61.4039 70.3692 60.6125 70.1758 60 69.0567C60.0416 68.3368 60.2329 67.6777 60.9498 67.5098C61.3364 67.4189 61.8298 67.6334 62.2352 67.8006C62.4486 67.8884 62.578 68.1704 62.8941 68.5379C63.0345 67.972 63.138 67.5564 63.2619 67.0769C64.2368 67.5988 64.2438 68.6686 63.2956 69.2007C63.0439 69.3417 62.7858 69.471 62.5105 69.6616Z" fill="#383838"/>
<path d="M51 76.5C50.7598 77.1589 50.8664 77.3019 50.5 77.9999C50.3123 77.9578 49.5451 78.1512 49.5 77.9999C49.232 77.1117 49.2057 77.5034 48.5 77.4998C47.7984 77.4964 47.7928 76.8433 47.5945 77.8343C47.5002 77.8196 46.8476 77.8489 46.7534 77.8343C46.6501 77.2923 46.5 76.9998 46.5 76.4998C48 76.4998 49.2713 76.4799 51 76.5Z" fill="#E63B3C"/>
<path d="M39.9999 86.0878C40.0342 87.1964 38.3043 88.8143 36.9999 89C35.6131 89.1976 33.3212 88.4545 33 87.5C32.9346 87.3059 33.05 86.366 32.9998 86.125C33.3821 86.0791 34.7664 86.0782 35.2251 86.125C35.4057 86.4283 35.3964 86.7937 35.6449 86.9117C36.0093 87.0845 36.6082 87.201 37.0178 87.1244C37.7172 86.9934 37.818 86.5401 37.7072 86.0879C38.1123 86.0827 39.5192 86.0885 39.9999 86.0878Z" fill="#D8D8D8"/>
<path d="M37.901 86.0776C38.1272 86.5067 38.0032 86.9315 37.1351 87.0544C36.6271 87.1263 35.8843 87.017 35.4323 86.855C35.1241 86.7443 35.1356 86.4017 35 86.1213C35.9342 86.0775 36.8725 86.075 37.901 86.0776Z" fill="#383838"/>
<path d="M73.3215 86.4424C72.9007 85.617 72.4977 84.8576 72.0826 84.0769C73.4698 84.1353 74.6885 85.0421 74.9528 86.167C75.1993 87.2205 74.4574 88.4012 73.2647 88.8518C72.0412 89.3141 70.5039 89.0428 69.6891 88.2358C69.004 87.5572 68.5556 85.8846 69.7061 85.015C70.0029 85.6726 70.2972 86.2835 70.5542 86.9053C70.8348 87.5876 71.4064 87.8515 72.2204 87.714C72.9801 87.5857 73.4366 87.2135 73.3215 86.4424Z" fill="#D8D8D8"/>
<path d="M57.476 58.167C58.1251 57.998 58.7657 58.0692 58.962 58.3599C59.0786 58.5322 58.9135 58.8762 58.6492 59.0159C58.4927 59.13 57.6324 59.0658 57.3586 58.9719C56.7963 58.7792 56.941 58.4337 57.476 58.167Z" fill="#E63534"/>
<path d="M47.4253 58.1428C47.7174 58.1173 48.073 58.053 48.2775 58.0863C48.8315 58.1762 49.2227 58.5299 48.8586 58.7369C48.6874 58.8983 48.1559 59.088 47.8127 59.0764C47.2347 59.0569 46.9023 58.7791 47.0255 58.4813C46.9992 58.3974 47.2308 58.2534 47.4253 58.1428Z" fill="#E63534"/>
<path d="M53.282 60.0769C52.8579 59.9106 52.3732 59.7116 52.0663 59.5169C51.9681 59.4548 51.9838 59.2131 52.0813 59.126C52.1536 59.061 52.5927 59.0601 52.7025 59.126C53.3257 59.5009 53.6809 59.5317 54.3048 59.1713C54.4193 59.105 54.8039 59.0993 54.988 59.0909C54.9798 59.2275 55.0391 59.4537 54.9511 59.4863C54.4016 59.6895 53.9284 59.9067 53.282 60.0769Z" fill="#E63534"/>
<path d="M95.3339 74H91.0503V61.9161H95.3693C96.5848 61.9161 97.6311 62.158 98.5083 62.6418C99.3855 63.1217 100.06 63.8121 100.532 64.7128C101.008 65.6136 101.246 66.6914 101.246 67.9462C101.246 69.205 101.008 70.2867 100.532 71.1914C100.06 72.0962 99.3816 72.7904 98.4965 73.2743C97.6154 73.7581 96.5612 74 95.3339 74ZM93.6051 71.811H95.2277C95.983 71.811 96.6182 71.6772 97.1335 71.4097C97.6528 71.1383 98.0422 70.7194 98.3018 70.153C98.5653 69.5826 98.6971 68.847 98.6971 67.9462C98.6971 67.0533 98.5653 66.3236 98.3018 65.7572C98.0422 65.1908 97.6547 64.7738 97.1394 64.5063C96.6241 64.2389 95.9889 64.1051 95.2336 64.1051H93.6051V71.811ZM103.139 74V61.9161H111.281V64.0225H105.693V66.9019H110.862V69.0083H105.693V71.8936H111.305V74H103.139ZM115.495 61.9161L118.416 71.097H118.528L121.455 61.9161H124.287L120.121 74H116.829L112.657 61.9161H115.495ZM136.164 67.958C136.164 69.2758 135.915 70.3969 135.415 71.3212C134.919 72.2456 134.243 72.9517 133.385 73.4395C132.532 73.9233 131.572 74.1652 130.506 74.1652C129.432 74.1652 128.468 73.9213 127.615 73.4336C126.761 72.9458 126.087 72.2397 125.591 71.3153C125.095 70.391 124.847 69.2719 124.847 67.958C124.847 66.6403 125.095 65.5192 125.591 64.5948C126.087 63.6705 126.761 62.9663 127.615 62.4825C128.468 61.9948 129.432 61.7509 130.506 61.7509C131.572 61.7509 132.532 61.9948 133.385 62.4825C134.243 62.9663 134.919 63.6705 135.415 64.5948C135.915 65.5192 136.164 66.6403 136.164 67.958ZM133.574 67.958C133.574 67.1045 133.446 66.3846 133.191 65.7985C132.939 65.2124 132.583 64.7679 132.123 64.465C131.662 64.1621 131.123 64.0107 130.506 64.0107C129.888 64.0107 129.349 64.1621 128.889 64.465C128.429 64.7679 128.071 65.2124 127.815 65.7985C127.564 66.3846 127.438 67.1045 127.438 67.958C127.438 68.8116 127.564 69.5315 127.815 70.1176C128.071 70.7037 128.429 71.1482 128.889 71.451C129.349 71.7539 129.888 71.9054 130.506 71.9054C131.123 71.9054 131.662 71.7539 132.123 71.451C132.583 71.1482 132.939 70.7037 133.191 70.1176C133.446 69.5315 133.574 68.8116 133.574 67.958ZM138.057 74V61.9161H142.824C143.737 61.9161 144.516 62.0793 145.161 62.4058C145.81 62.7284 146.304 63.1866 146.642 63.7806C146.984 64.3706 147.155 65.0649 147.155 65.8634C147.155 66.6659 146.982 67.3562 146.636 67.9344C146.29 68.5087 145.788 68.9493 145.131 69.2561C144.478 69.5629 143.688 69.7163 142.759 69.7163H139.567V67.663H142.346C142.834 67.663 143.239 67.5962 143.562 67.4624C143.884 67.3287 144.124 67.1281 144.282 66.8606C144.443 66.5931 144.524 66.2607 144.524 65.8634C144.524 65.4622 144.443 65.1239 144.282 64.8486C144.124 64.5732 143.882 64.3647 143.556 64.2231C143.233 64.0776 142.826 64.0048 142.335 64.0048H140.612V74H138.057ZM144.583 68.5009L147.586 74H144.766L141.827 68.5009H144.583ZM151.044 74H148.306L152.477 61.9161H155.77L159.935 74H157.198L154.171 64.6774H154.076L151.044 74ZM150.872 69.2502H157.339V71.2445H150.872V69.2502ZM159.449 61.9161H162.31L165.066 67.1202H165.184L167.939 61.9161H170.801L166.393 69.7281V74H163.856V69.7281L159.449 61.9161ZM173.046 74H170.308L174.48 61.9161H177.772L181.938 74H179.2L176.173 64.6774H176.079L173.046 74ZM172.875 69.2502H179.342V71.2445H172.875V69.2502Z" fill="white"/>
</svg>
