
<svg width="160" height="140" viewBox="-40 10 520 100" fill="none" xmlns="http://www.w3.org/2000/svg">
  <g transform="scale(0.30)">
    <path d="M234.667 0.227466C154.4 5.5608 104.133 26.0941 87.8667 59.8275C82.4 71.4275 80.9333 83.0275 81.6 109.294C82.1333 127.827 82.8 133.694 85.2 140.894C89.8667 155.561 98.2667 166.227 112.533 175.961C114.933 177.561 114.8 177.827 111.067 183.161C108.8 186.227 106.267 190.361 105.467 192.494C104.133 195.561 102.267 196.761 96.2667 198.627C64.9333 208.494 36.1333 234.094 22.2667 264.627C17.6 275.161 13.3333 294.227 13.3333 305.694C13.3333 313.694 13.0667 314.361 8.26667 319.161C2.26667 325.161 0 332.361 0 345.027C0 355.161 1.6 361.561 5.73333 367.561C8.26667 371.294 9.6 372.094 13.3333 372.094C16.9333 372.094 18.2667 371.427 19.3333 369.027C21.0667 365.161 22.1333 365.294 24.6667 369.961C27.2 374.894 31.2 376.227 35.3333 373.561C39.4667 370.761 40.4 365.561 38.5333 354.894C37.7333 349.961 37.3333 345.561 37.7333 345.161C38.2667 344.761 40.4 345.961 42.6667 347.961C45.0667 349.827 48.5333 351.427 50.5333 351.427C54.6667 351.427 58.6667 347.827 58.6667 344.227C58.6667 337.961 49.0667 325.694 38.4 318.494C34.6667 315.961 33.4667 314.361 34 312.227C34.2667 310.761 34.9333 304.894 35.3333 299.427C36.4 287.561 41.0667 272.094 46.6667 262.494C54.8 248.361 72.5333 232.494 90 223.694L95.4667 221.027L95.3333 241.827C95.3333 257.694 95.8667 264.894 97.7333 271.427C101.6 285.694 108.667 298.761 118.4 309.027C126.667 317.827 143.2 330.227 149.333 332.094C151.867 332.894 152 334.494 152 380.894V428.894L148.933 431.961C146.533 434.361 143.333 435.294 134.267 436.494C115.2 438.894 106.667 445.427 106.667 457.694C106.667 467.294 106.933 467.427 140.133 467.427C172.933 467.427 176.933 466.627 180.667 459.294C184 452.894 182.933 440.094 178.667 434.094L175.333 429.427L175.733 384.627L176.133 339.694L187.067 342.094C208.133 346.761 226.267 347.961 271.333 348.094C314.8 348.094 328.667 347.161 349.333 342.761C354.133 341.827 359.067 340.627 360.4 340.094C362.533 339.161 362.667 341.827 362.667 385.561C362.667 431.561 362.667 431.961 359.733 435.027C355.733 439.294 354.667 453.027 357.867 459.161C361.867 466.761 364.8 467.427 396.533 467.427C412.8 467.427 426.667 466.894 428.8 466.094C432.133 464.761 432.267 464.361 431.733 456.494C431.2 449.161 430.667 447.961 426.4 443.961C421.067 439.161 415.867 437.427 402.133 435.961C395.067 435.294 392.133 434.361 389.733 431.961L386.667 428.894V381.027V333.161L395.733 327.961C408.4 320.761 426.133 302.627 431.6 291.427C440.133 273.694 442 264.761 441.733 244.094C441.6 233.827 441.333 223.827 441.067 221.694C440.667 218.227 441.2 217.827 451.6 214.227C467.867 208.627 480.4 200.627 492.667 188.227C513.067 167.427 523.333 142.627 524.933 109.961L525.733 94.4941L531.2 93.0275C541.333 90.3608 549.333 79.2941 550.267 66.7608C551.333 53.4275 543.2 45.4275 529.733 46.4941L522.667 47.0275V37.8275C522.667 29.8275 522.267 28.2275 519.333 25.2941C517.2 23.2941 514.8 22.0941 512.933 22.3608C508.133 23.0275 506 29.2941 505.6 45.0275C505.333 53.0275 504.8 59.4275 504.4 59.4275C504 59.4275 501.6 57.5608 499.067 55.4275C493.733 50.7608 491.6 50.4941 488 54.0941C485.733 56.3608 485.467 57.8275 486.133 62.4941C487.333 70.0941 492.267 79.5608 497.467 84.2275C507.333 93.2941 506.933 92.3608 506 100.494C503.467 124.494 497.867 142.227 488.133 157.161C477.467 173.427 463.067 184.227 444 190.494C430.933 194.761 431.067 194.761 427.867 188.494C426.267 185.294 423.867 181.561 422.533 179.961C419.867 177.161 420 177.161 424.933 173.827C433.067 168.494 440.533 160.227 445.067 151.694C451.733 139.294 453.6 128.627 453.733 102.761C454 68.7608 450.267 57.4275 433.467 40.7608C413.733 21.2941 380.8 9.02747 334 3.42747C327.467 2.62747 319.867 1.69413 317.333 1.29413C311.2 0.494133 244 -0.439201 234.667 0.227466ZM326.667 48.7608C385.867 53.0275 416.4 63.1608 425.6 81.6941C428.267 87.4275 428.667 89.9608 428.667 104.761C428.533 150.361 416.4 156.627 320 160.894C264.267 163.294 181.467 161.027 149.867 156.094C127.733 152.627 114.667 145.294 110 133.827C104.667 120.494 104.933 91.9608 110.533 80.8941C113.867 74.4941 122.4 67.0275 131.6 62.7608C144.533 56.6275 179.467 49.8275 206.667 48.3608C225.467 47.2941 309.467 47.5608 326.667 48.7608Z" fill="#E63B3C"/>
    <path d="M175.467 98.3608C172.4 102.761 172.667 112.094 176 115.427C184.4 123.827 196.267 111.294 190.533 100.361C188.4 96.3608 186.8 95.4275 181.733 95.4275C178.8 95.4275 176.8 96.3608 175.467 98.3608Z" fill="#E63B3C"/>
    <path d="M344.933 97.8274C341.6 101.427 341.867 111.961 345.333 115.427C348.667 118.761 353.467 118.894 357.467 115.694C361.333 112.494 361.733 102.227 358 98.0941C354.933 94.7608 347.867 94.6274 344.933 97.8274Z" fill="#E63B3C"/>
    <path d="M244 118.761C241.733 121.561 243.467 125.427 249.6 130.761C259.2 138.894 269.867 140.227 281.067 134.627C289.333 130.494 293.6 125.561 293.067 120.894C292.4 115.694 288.4 115.827 282.8 121.161C280.133 123.827 275.467 126.494 272.267 127.427C267.467 128.627 265.867 128.494 260.933 126.361C257.867 124.894 253.867 122.227 252.133 120.227C248.4 116.361 246.4 115.827 244 118.761Z" fill="#E63B3C"/>
    <text x="600" y="300" font-family="Arial, sans-serif" font-size="180" font-weight="bold" fill="#e63946">
      DEVORAYA
    </text>
  </g>
</svg>
