<?xml version="1.0" standalone="no"?>
<!DOCTYPE svg PUBLIC "-//W3C//DTD SVG 20010904//EN"
 "http://www.w3.org/TR/2001/REC-SVG-20010904/DTD/svg10.dtd">
<svg version="1.0" xmlns="http://www.w3.org/2000/svg"
 width="1536.000000pt" height="1024.000000pt" viewBox="0 0 1536.000000 1024.000000"
 preserveAspectRatio="xMidYMid meet">

<g transform="translate(0.000000,1024.000000) scale(0.100000,-0.100000)"
fill="#000000" stroke="none">
<path d="M3800 6914 c-224 -20 -479 -73 -618 -128 -146 -58 -266 -142 -326
-229 -80 -116 -115 -301 -96 -505 18 -194 66 -311 167 -410 l64 -63 -22 -53
c-20 -50 -25 -54 -73 -69 -74 -24 -231 -102 -291 -145 -243 -176 -400 -448
-431 -747 -5 -49 -12 -72 -26 -84 -11 -9 -29 -34 -41 -56 -32 -58 -31 -202 0
-262 39 -71 103 -105 133 -68 10 12 16 10 37 -16 33 -39 72 -37 91 4 11 24 12
47 3 124 -6 53 -10 97 -8 100 2 2 25 -9 51 -23 40 -22 51 -25 72 -15 28 12 32
47 9 90 -16 32 -108 118 -143 134 -21 10 -23 15 -17 61 22 163 95 336 187 443
66 77 165 156 255 204 118 64 108 75 108 -124 0 -133 4 -187 18 -237 39 -147
131 -277 260 -370 l76 -55 -2 -365 -2 -365 -79 -17 c-165 -34 -219 -76 -220
-166 l-1 -47 258 -3 258 -2 30 29 c25 26 29 37 29 88 0 40 -6 68 -20 91 -19
31 -20 50 -20 353 0 301 1 320 18 315 56 -18 277 -47 418 -56 188 -12 398 -1
581 31 63 11 119 21 124 22 5 1 9 -138 9 -318 1 -278 -2 -325 -16 -354 -23
-47 -15 -144 14 -174 22 -21 29 -22 286 -25 295 -3 281 -7 264 71 -17 82 -67
113 -243 150 l-60 12 -3 366 -2 366 56 37 c87 58 177 157 223 245 60 116 74
187 75 377 l1 161 65 17 c169 43 346 175 451 333 95 146 148 345 149 560 l0
93 49 24 c87 44 131 119 131 222 0 91 -66 153 -151 141 l-36 -5 -11 60 c-15
79 -34 108 -72 108 -50 0 -63 -34 -68 -172 -4 -109 -6 -118 -21 -105 -22 20
-77 47 -95 47 -26 0 -46 -30 -46 -69 0 -47 40 -111 108 -173 l52 -46 0 -84 c0
-100 -22 -239 -51 -328 -67 -206 -217 -358 -408 -414 -73 -21 -76 -21 -88 17
-6 17 -19 53 -29 79 l-18 46 67 72 c104 113 143 214 154 408 7 125 -9 275 -38
360 -85 248 -363 395 -885 468 -104 14 -527 27 -624 18z m615 -364 c361 -21
494 -53 605 -146 119 -100 132 -380 24 -521 -71 -93 -235 -149 -539 -183 -159
-17 -529 -23 -725 -11 -477 30 -684 99 -749 250 -32 76 -45 178 -31 263 37
243 179 318 662 347 194 12 558 12 753 1z"/>
<path d="M3393 6206 c-24 -21 -28 -32 -28 -75 0 -61 26 -94 76 -94 72 0 109
114 54 168 -31 32 -66 32 -102 1z"/>
<path d="M4615 6205 c-19 -19 -25 -35 -25 -70 0 -57 11 -79 48 -94 89 -37 153
107 75 169 -34 27 -69 25 -98 -5z"/>
<path d="M3833 6013 c-22 -8 -14 -53 15 -80 43 -41 130 -77 199 -81 50 -3 71
0 115 20 78 36 120 75 116 107 -4 37 -33 38 -75 0 -101 -88 -196 -90 -291 -4
-50 45 -56 48 -79 38z"/>
<path d="M9445 5517 c-210 -54 -334 -231 -335 -478 0 -219 85 -372 252 -450
71 -33 76 -34 198 -34 106 1 134 4 183 24 196 78 295 279 266 540 -21 187
-112 314 -270 378 -75 30 -217 40 -294 20z m220 -166 c109 -51 165 -199 145
-383 -14 -124 -51 -189 -131 -233 -45 -24 -59 -27 -129 -23 -106 4 -150 34
-200 133 -34 67 -35 73 -35 185 0 63 6 134 13 157 20 65 72 134 121 160 57 30
157 31 216 4z"/>
<path d="M8968 5512 c-80 -2 -97 -6 -103 -20 -4 -9 -58 -169 -121 -356 -62
-186 -115 -341 -118 -343 -2 -2 -57 155 -121 349 -65 194 -121 357 -125 361
-4 4 -52 6 -107 5 l-100 -3 171 -470 171 -470 105 -3 106 -3 173 476 c95 262
171 477 170 478 -2 1 -47 1 -101 -1z"/>
<path d="M11420 5463 c-45 -120 -330 -893 -330 -897 0 -2 43 -4 95 -4 l94 -1
19 52 c10 29 29 80 42 115 l22 62 177 0 176 0 41 -113 40 -112 97 -3 c53 -1
97 1 97 5 0 4 -80 220 -177 480 l-177 473 -97 0 -98 0 -21 -57z m174 -324 c30
-85 57 -162 61 -171 7 -17 -3 -18 -117 -18 l-125 0 61 174 c33 96 62 173 63
172 1 -1 27 -72 57 -157z"/>
<path d="M13125 5508 c-3 -7 -81 -220 -175 -473 -93 -253 -170 -462 -170 -466
0 -4 43 -6 96 -6 l96 2 40 113 40 112 177 0 177 0 38 -107 c21 -60 42 -112 46
-116 4 -4 50 -6 102 -5 l95 3 -177 475 -176 475 -102 3 c-76 2 -104 -1 -107
-10z m169 -391 c31 -87 56 -160 56 -162 0 -3 -54 -5 -120 -5 -66 0 -120 3
-120 6 0 24 116 340 121 331 4 -7 32 -83 63 -170z"/>
<path d="M6430 5034 l0 -475 223 4 c189 4 232 8 287 26 194 61 290 212 290
454 0 244 -92 386 -291 448 -52 16 -93 19 -285 19 l-224 0 0 -476z m476 295
c93 -47 145 -185 129 -337 -21 -196 -113 -272 -328 -272 l-87 0 0 321 0 321
119 -4 c102 -3 125 -8 167 -29z"/>
<path d="M7410 5035 l0 -475 334 0 335 1 3 79 3 80 -238 2 -238 3 0 120 0 120
193 3 193 2 -3 80 -4 80 -191 0 -192 0 2 112 2 113 230 3 231 2 0 75 0 75
-330 0 -330 0 0 -475z"/>
<path d="M10190 5037 l0 -474 95 -2 95 -2 0 181 0 180 88 0 87 0 110 -177 111
-178 107 -2 c59 -1 107 0 107 3 0 3 -54 90 -120 193 -66 104 -120 191 -120
193 0 3 17 10 39 16 56 17 124 82 151 144 19 43 22 65 18 128 -6 90 -30 143
-89 193 -76 66 -102 70 -406 75 l-273 3 0 -474z m499 305 c71 -36 95 -151 45
-212 -46 -54 -76 -64 -221 -68 l-133 -4 0 151 0 151 138 0 c111 0 144 -3 171
-18z"/>
<path d="M11982 5438 c23 -40 97 -169 165 -286 l123 -213 0 -188 0 -188 95 -2
95 -2 0 191 0 190 139 243 c76 133 148 261 160 285 l21 42 -102 0 -103 0 -105
-190 c-57 -105 -107 -187 -111 -183 -4 5 -52 89 -107 188 l-99 180 -106 3
-106 3 41 -73z"/>
</g>
</svg>
