<svg width="79" height="52" viewBox="0 0 79 52" fill="none" xmlns="http://www.w3.org/2000/svg">
<path d="M45.5 21C44.0023 20.4589 43.6323 19.4462 43.7952 18.3728C43.9662 17.2411 44.9303 16.5164 46.4288 16.3786C48.6762 16.172 50.9459 16.0131 53.2044 16.023C55.6537 16.0338 58.1166 16.169 60.546 16.4235C62.4556 16.6237 63.2299 17.659 62.9016 19.0983C62.7378 19.8124 62.26 20.3552 61.4237 20.5671C60.562 20.7853 59.6525 20.9856 58.7605 20.9965C55.0432 21.0411 51.2981 21.1797 47.5799 21.1606C47.0513 21.1579 46.0962 21.0908 45.5 21ZM57.7223 17.9724C57.2381 18.404 59.9748 17.4457 57.7684 19.2245C58.0403 19.3855 56.8094 17.9452 56.9748 17.7944C57.2435 17.5486 57.1788 18.395 57.0604 18.092C56.86 17.5803 58.4433 17.6376 57.7223 17.9724ZM47.9909 17.885C47.8486 18.0467 47.6237 18.1952 47.5799 18.3727C47.4504 18.9014 50.0001 17.7944 48.3892 19.3783C48.7494 19.3989 45.7737 18.1715 45.9542 17.885C46.2293 17.4471 48.5803 18.1598 48 18C47.2305 17.885 48.359 17.8051 47.9909 17.885ZM53.5001 19C54.0789 18.7942 53.4437 19.24 54.0001 19C54.0892 18.9615 54.9041 19.285 54.9128 19.1235C54.726 19.1335 54.4796 19.0847 54.3635 19.1631C53.7323 19.5887 53.148 19.6027 52.5168 19.1599C52.4055 19.0819 55.5733 19.4232 55.5001 19.5C55.4016 19.6028 53.4016 18.9265 53.5001 19C52.9953 18.7988 53.811 19.2299 53.5001 19Z" fill="#F7F6F6"/>
<path d="M75 39.6916C76.0545 40.2478 77.4067 41.374 77.6073 42.5C76.7056 41.8706 75.6069 41.4804 74.6074 41.0001C73.5989 40.5157 72.1914 39.8299 71.1073 39.5C72.4149 39.2338 73.7038 39.0727 75 39.6916Z" fill="#ECECEC"/>
<path d="M70.5 37.8613C70.3441 37.8096 69.5107 37.9722 69.4889 37.8613C69.3101 36.9505 68.1946 35.9231 68.6947 35C69.4769 35.3348 70.8958 36.8314 70.5 37.8613Z" fill="#ECECEC"/>
<path d="M61.4 3.44847C64.5796 3.93106 65.9421 6.14454 64.3013 8.03795C63.4553 9.01417 62.1557 9.6558 60.6791 9.30559C58.5038 8.78998 56.7272 8.62752 54.5 9C54.2166 9.04742 53.8192 8.9279 53.5 9C55.3017 9.2375 56.8272 9.37379 58.5285 9.69366C60.6868 10.0997 60.6689 10.1575 60.6791 11.8392C60.6817 12.1914 60.68 12.5438 60.68 12.9548C55.4757 11.8228 50.7051 12.0803 45.5 13.5C45.5 12.3006 45.165 10.6836 45.165 9.53593C44.6782 9.38204 44.2706 9.2296 43.8442 9.12208C41.5889 8.55433 40.4408 6.85359 41.2688 5.28716C42.1446 3.62943 44.588 2.9461 46.7455 3.7574C47.017 3.85954 47.2808 3.97301 47.6289 4.11336C48.5438 2.1397 50.3225 0.916943 53.1029 1.0044C55.6834 1.08542 57.5038 2.17224 58.3268 4.0189C59.3481 3.82181 60.3336 3.63154 61.4 3.44847Z" fill="#F7F6F6"/>
<path d="M56.06 27.9843C57.2728 27.6678 58.536 27.4361 59.6856 27.0131C61.128 26.4821 61.7112 26.4548 63.0448 27.3187C63.1736 27.5403 63.2328 27.6903 63.2712 27.8952C63.1392 28.3084 63.0288 28.6665 62.8792 29.154C62.5432 28.8375 62.4056 28.5944 62.1792 28.5188C61.7472 28.3748 61.2224 28.1899 60.8112 28.2682C60.0488 28.4129 59.8456 28.9808 59.7072 29.5854C58.3168 29.8806 56.9936 30.1416 55.588 30.3876C53.8104 29.9864 52.116 29.5999 50.592 29.2523C51.8088 30.2062 53.5272 30.6292 55.3624 30.9026C55.2088 31.2847 55.056 31.6072 54.8856 31.9669C55.36 32.1285 55.788 32.2776 56.2192 32.4216C57.532 32.8594 58.484 33.5865 59.0664 34.6154C59.8608 36.0181 59.7032 37.4391 59.1864 38.8607C58.9096 39.6216 58.5848 40.3717 58.3096 41.0575C58.9872 41.4222 59.6088 41.7109 60.1512 42.074C60.3504 42.2073 60.5 42.5604 60.4136 42.7323C60.3392 42.8803 59.8992 42.9808 59.6176 42.9856C58.2256 43.0093 56.8336 42.9987 55.4416 42.9893C55.1448 42.9874 54.8488 42.9404 54.4696 42.9066C54.552 42.5245 54.6072 42.2346 54.6784 41.947C55.0104 40.6026 55.4656 39.2688 55.6472 37.9118C55.8264 36.5753 55.2384 36.0844 53.5008 35.723C52.012 35.6859 50.596 35.6625 49.18 35.6537C46.8504 35.6392 44.7424 35.2182 43.2272 33.6793C41.88 31.2072 42.72 28.8806 44.0312 26.6039C44.5 25.7895 45.1136 25.0273 45.7032 24.1822C43.488 22.7641 42.6632 20.8385 42.7232 18.6323C41.0192 18.417 39.5128 18.6244 38.044 19.1952C35.6118 20.1398 35.5806 20.1151 34.3535 18.1999C34.2018 17.9633 34.0824 17.7138 34 17.5647C35.5031 17.2886 36.9175 16.9628 38.3608 16.7873C39.2824 16.6754 40.2464 16.7864 41.3176 16.8322C41.5536 16.8731 41.6624 16.8793 41.9184 16.8939C41.7008 16.7723 41.6072 16.7198 41.5136 16.6677C40.0816 15.8818 38.5288 15.6603 36.8144 15.9491C35.5938 16.1547 35.5248 16.0825 35.2055 15.1121C35.0407 14.6114 34.8887 14.1082 34.7409 13.6376C35.9414 13.5938 37.0673 13.5255 38.1936 13.5188C39.704 13.5098 40.936 14.0611 42.0256 14.8316C42.424 15.1137 42.7744 15.4389 43.168 15.7623C45.2528 14.1776 44.176 12.2008 44.5144 10.3695C42.712 9.93391 41.4112 9.09995 40.7536 7.71023C40.3224 6.79954 40.3584 5.90182 40.7848 5.00086C41.7424 2.97727 44.3208 2.04016 47.4072 2.59685C49.9416 -0.424828 55.4848 -1.29873 59.06 2.64643C62.3928 2.11968 64.6056 2.95975 65.6608 5.1522C66.6184 7.14261 65.504 9.22079 62.8808 10.1686C62.1704 10.4253 61.84 10.7186 61.9384 11.3289C61.9856 11.6241 61.9608 11.9289 61.9408 12.2282C61.864 13.3843 62.136 14.4067 62.8568 15.4911C65.8056 19.9262 62.9448 24.705 56.7816 25.8962C56.5696 25.9373 56.3568 25.9781 56.0776 26.0318C56.0776 26.4606 56.0776 26.8759 55.992 27.384C54.5848 27.1862 53.2632 26.8956 51.9328 26.603C53.0768 27.4872 54.4224 28.0009 56.06 27.9843ZM61.0496 3.59724C60.124 3.78203 59.1976 3.96701 58.2376 4.15856C57.4648 2.36313 55.7544 1.30657 53.3296 1.2277C50.7168 1.14272 49.0448 2.33153 48.1856 4.25049C47.8592 4.1138 47.6104 4.00362 47.3552 3.90436C45.328 3.11554 43.032 3.7799 42.2088 5.39166C41.4312 6.91464 42.5104 8.5681 44.6288 9.12015C45.0304 9.22468 45.4128 9.37287 45.8704 9.52253C45.8704 10.6382 45.8704 11.7243 45.8704 12.8904C50.7616 11.5101 55.5592 11.7459 60.4488 12.8465C60.4488 12.4469 60.4504 12.1043 60.4488 11.7617C60.4384 10.1268 60.456 10.0707 58.4272 9.67581C56.8288 9.3648 55.18 9.2143 53.4872 8.98346C53.7864 8.9133 54.0448 8.83852 54.3112 8.79246C56.404 8.4303 58.4568 8.55012 60.5008 9.05139C61.8888 9.39196 63.0576 9.01524 63.852 8.06609C65.3936 6.22525 64.1128 4.07312 61.0496 3.59724ZM45.8056 20.7592C46.3352 20.8239 46.8648 20.9422 47.3952 20.9449C51.1288 20.9635 54.8624 20.985 58.5952 20.9414C59.4912 20.931 60.404 20.7356 61.2688 20.5227C62.1096 20.316 62.5888 19.7866 62.7528 19.0901C63.0832 17.6863 62.3056 16.6765 60.388 16.4813C57.9488 16.2331 55.476 16.101 53.0168 16.0906C50.7488 16.0809 48.4696 16.236 46.2128 16.4375C44.7088 16.5718 43.9464 17.2979 43.7744 18.4018C43.6112 19.4486 44.2328 20.2076 45.8056 20.7592Z" fill="#E63534"/>
<path d="M63.0272 27.3548C62.9672 27.2036 62.908 27.0523 62.8384 26.8536C63.9648 25.8572 65.2872 25.1831 66.976 25.0791C67.236 25.063 67.5056 25.1369 67.788 25.2873C67.792 26.8221 67.7808 28.2392 67.7688 29.6561C67.5536 29.7782 67.3408 29.9963 67.1216 30.0012C66.7296 30.0096 66.3328 29.8895 65.7528 29.7922C66.0616 30.2932 66.312 30.6823 66.544 31.0782C67.0104 31.8774 67.492 32.6721 67.92 33.4846C68.2312 34.0759 68.6344 34.4988 69.3992 34.8439C70.9208 35.5305 70.9648 36.8097 70.9576 38.0381C70.9568 38.2539 70.868 38.4694 70.8608 38.5024C72.4248 38.7771 73.9616 38.9388 75.4 39.3285C77.0408 39.773 78.0648 40.8339 78.7648 42.0675C79.2008 42.835 79.0704 42.9899 78.0368 43.0594C77.7208 43.0806 77.4032 43.0821 76.928 43.1C73.7736 42.9669 70.9128 43.1383 68.5376 44.8983C67.8528 45.4062 66.88 45.6695 66.0392 46.0451C63.8376 46.1384 63.8384 46.1385 64.3376 44.4025C64.3504 44.3575 64.3232 44.3053 64.3136 44.2558C64.2568 44.2551 64.1752 44.2358 64.1496 44.2578C62.5272 45.6636 60.5184 46.102 58.1416 46.051C53.6016 45.9536 49.056 46.0143 44.4232 45.9512C44.4512 45.7157 44.5656 45.538 44.6832 45.3613C46.4352 42.726 45.3248 39.679 42.1392 38.6468C41.1648 38.3313 40.0488 38.2931 39 38.0703C39.2512 37.8414 39.472 37.6297 39.7544 37.5071C40.2784 37.2794 40.996 37.2232 40.9912 36.5281C41.784 36.5158 42.4896 36.5165 43.2248 36.5681C43.9312 36.5863 44.6088 36.5535 45.368 36.5094C45.7768 36.5119 46.104 36.5254 46.432 36.5965C46.54 37.0315 46.6472 37.4092 46.7544 37.787C46.852 37.7972 46.9488 37.8074 47.0464 37.8176C47.2512 37.1269 47.8312 37.0515 48.556 37.0539C49.2856 37.0564 49.8608 37.1312 50.1376 37.7503C50.184 37.8558 50.436 37.9037 50.584 38.0293C49.8576 38.9289 49.3256 39.8259 49.3032 40.8783C49.2696 42.4754 50.14 43.2313 52.132 43.2482C54.4464 43.2679 56.7624 43.2948 59.0744 43.2348C59.7216 43.218 60.4648 43.0178 60.976 42.7069C62.644 41.6931 63.6576 40.2946 64.1368 38.6855C65.0912 35.4813 63.6208 32.5913 62.204 29.6564C62.4976 29.4907 62.7728 29.3784 63.0408 29.2559C64.0512 28.7935 64.044 27.8638 63.0272 27.3548ZM75.3128 40.1028C74.0968 39.5615 72.8256 39.3511 71.5368 39.5953C72.6056 39.898 73.7704 40.1007 74.7648 40.5452C75.7496 40.9858 76.5624 41.6699 77.4512 42.2472C77.2536 41.2143 76.4136 40.6396 75.3128 40.1028ZM70.052 37.7865C70.5672 36.9087 69.8808 35.4756 68.74 35.1822C68.9776 36.0166 69.1928 36.8242 69.4528 37.6223C69.4848 37.7195 69.7632 37.766 70.052 37.7865Z" fill="#E63B3C"/>
<path d="M24.1853 31.1237C23.013 30.8608 22.8588 30.6974 23.0929 29.7934C23.7727 27.167 24.4657 24.5427 25.1678 21.9199C25.4052 21.0327 25.772 20.88 26.9394 21.0751C30.5048 21.6715 34.0714 22.2633 37.6397 22.848C38.9528 23.0632 39.164 23.262 38.9016 24.2674C38.2308 26.8462 37.5459 29.4229 36.8397 31.996C36.7526 32.3135 36.5049 32.6042 36.2571 32.9574C36.1828 33.0074 36.1165 32.9976 36.0428 33C35.5397 32.9622 35.1103 32.9219 34.6213 32.8465C32.5204 32.4544 30.4835 32.0822 28.4371 31.7453C27.0267 31.5129 25.603 31.3291 24.1853 31.1237Z" fill="#E63B3C"/>
<path d="M41.484 36.4174C41.5728 37.1105 40.8728 37.1675 40.3604 37.399C40.0846 37.5236 39.8694 37.7387 39.5454 37.9844C36.2989 38.2845 33.4516 39.1881 30.9477 40.8236C31.3073 40.7773 31.6503 40.6914 31.974 40.57C34.6429 39.5692 37.3386 38.7162 40.3703 38.9429C43.2097 39.1551 45.1712 40.7217 44.9882 42.9893C44.9047 44.019 44.2782 45.0184 43.8975 46.0318C43.4954 46.032 43.0932 46.0321 42.5249 46.045C41.3913 46.0555 40.4232 46.0533 39.3685 46.0445C38.8185 46.0454 38.3559 46.0528 37.8098 46.0526C36.8631 46.0487 35.9988 46.0525 35.053 46.0501C34.5329 46.0464 34.0941 46.0486 33.5689 46.0462C32.5287 46.053 31.575 46.0649 30.6212 46.0769C29.8787 46.0612 29.1359 46.054 28.394 46.0279C27.4511 45.9947 27.0178 45.6843 27.0014 44.904C26.9905 44.3753 27.0385 43.8106 27.2534 43.3197C28.4849 40.5066 30.4017 38.1173 33.73 36.5259C34.3544 36.3314 34.8731 36.0719 35.388 36.077C36.2202 36.0853 37.0459 36.3201 37.8818 36.364C39.0789 36.4267 40.283 36.4036 41.484 36.4174Z" fill="#E63B3C"/>
<path d="M66 45.9977C66.8094 45.5743 67.7482 45.321 68.4102 44.8326C70.7035 43.1399 73.4667 42.9749 76.4338 43.1166C77.8659 44.6769 78.5106 46.3225 77.5302 48.1712C76.4283 50.2491 73.6753 51.4001 70.7859 50.9971C68.2565 50.6446 66.1624 48.6985 66.0212 46.5677C66.0094 46.3986 66.0086 46.2293 66 45.9977ZM73.2588 46.2894C73.3514 46.9187 72.9216 47.2511 72.2071 47.3655C71.4408 47.4883 70.9028 47.2526 70.6384 46.6436C70.3977 46.0885 70.12 45.5431 69.8408 44.9561C68.7577 45.7324 69.1796 47.2256 69.8243 47.8314C70.5914 48.5519 72.0385 48.794 73.1898 48.3813C74.3122 47.9791 75.011 46.925 74.7781 45.9845C74.5302 44.9802 73.3828 44.1707 72.0777 44.1185C72.4675 44.8155 72.8471 45.4934 73.2588 46.2894Z" fill="#383838"/>
<path d="M41.5556 36.9169C40.2137 36.9164 38.9562 36.9397 37.7067 36.8763C36.8337 36.8319 35.9715 36.5944 35.1025 36.5861C34.5649 36.5808 34.0233 36.8434 33.4174 37C31.9349 35.7156 30.5328 34.4065 29.0881 33.1283C28.8304 32.9004 28.4177 32.729 28.039 32.6553C27.0085 32.4551 25.9569 32.3265 24.916 32.1594C24.1364 32.0343 23.7747 31.7046 24.1476 31C25.647 31.1654 27.1335 31.3624 28.6061 31.6113C30.7427 31.9723 32.8693 32.371 35.047 32.849C34.9354 33.6121 34.4976 33.8491 33.6405 33.6445C32.8757 33.4619 32.077 33.3703 31.2934 33.2385C31.2522 33.2849 31.211 33.3311 31.1697 33.3775C32.2549 34.343 33.34 35.3087 34.4251 36.2743C34.2501 34.6717 34.8395 33.5688 36.6239 32.9529C36.6239 32.9529 36.6931 32.9634 36.7254 32.9529C38.5937 33.1561 40.4278 33.3769 42.2651 33.5777C42.6105 33.6153 42.9688 33.573 43.4205 33.554C45.0664 35.1359 47.2207 35.5724 49.6004 35.5875C51.0469 35.5965 52.4934 35.6208 53.9999 35.7209C54.0096 36.6148 53.3934 36.9223 52.3694 36.935C50.5483 36.9206 48.8253 36.9245 47.1015 36.9284C46.7675 36.9144 46.4342 36.9002 45.9299 36.884C45.1078 36.8899 44.4551 36.8979 43.8032 36.9058C43.0832 36.905 42.364 36.9043 41.5556 36.9169Z" fill="#383838"/>
<path d="M39.6868 46.0769C40.7487 46.0791 41.8115 46.081 42.963 46.086C43.3496 48.7579 40.6652 50.9339 36.9072 51.0703C33.202 51.2046 30.1872 49.267 30.0225 46.6446C30.0135 46.5038 30.0115 46.3627 30 46.1611C31.0403 46.0896 32.0868 46.0787 33.2304 46.1292C33.3881 46.4429 33.4306 46.6982 33.5126 46.9472C33.9151 48.1723 35.3932 48.8381 37.1317 48.5846C38.7666 48.3462 39.6344 47.4938 39.6868 46.0769Z" fill="#383838"/>
<path d="M43.9988 46.0769C44.3004 45.0621 44.9251 44.0613 45.0086 43.0302C45.1911 40.7595 43.2341 39.1907 40.4012 38.9783C37.3763 38.7514 34.6869 39.6054 32.0239 40.6076C31.701 40.7292 31.3587 40.8152 31 40.8616C33.4982 39.2238 36.3391 38.319 39.5762 38.0769C40.678 38.2321 41.7659 38.2709 42.7146 38.592C45.8174 39.6425 46.8998 42.7428 45.1934 45.4244C45.079 45.6042 44.9669 45.785 44.8524 46.0215C44.5934 46.0772 44.3344 46.0769 43.9988 46.0769Z" fill="#ECECEC"/>
<path d="M21.1643 36.8402C18.7181 36.7902 16.3602 36.7423 14.0022 36.6943C14.0015 36.6337 14.0007 36.5734 14 36.5129C19.2889 36.3689 24.5779 36.2247 30 36.0769C29.4425 36.7387 28.9353 37.1487 27.7148 37.0664C25.5713 36.9219 23.4077 36.9097 21.1643 36.8402Z" fill="#E63B3C"/>
<path d="M10.7369 39.4267C15.2009 39.3097 19.5787 39.1932 23.9464 39.0769C24.0887 40.0323 24.0208 40.1033 22.8194 40.071C18.3731 39.9514 13.9276 39.8194 9.482 39.6883C9.31997 39.6835 9.16059 39.6379 9 39.6113C9.00168 39.5498 9.00329 39.4884 9.00497 39.427C9.55364 39.427 10.1021 39.427 10.7369 39.4267Z" fill="#E63B3C"/>
<path d="M11.5749 43.6763C10.9907 43.6553 10.4954 43.635 10 43.6147C10.0051 43.5517 10.0104 43.4888 10.0155 43.4258C14.8929 43.3102 19.7703 43.1943 24.7159 43.0769C24.8106 43.4102 24.8853 43.673 25 44.0769C20.4814 43.9415 16.0725 43.8093 11.5749 43.6763Z" fill="#E63B3C"/>
<path d="M24.2327 47.0746C20.0999 46.9282 16.0563 46.784 12.0127 46.6396C12.0085 46.5822 12.0042 46.5247 12 46.4673C12.2183 46.4376 12.4358 46.3871 12.655 46.3816C16.5112 46.2837 20.3689 46.216 24.2226 46.0808C25.1972 46.0465 25.7962 46.227 26 47.0769C25.4417 47.0769 24.8818 47.0769 24.2327 47.0746Z" fill="#E63B3C"/>
<path d="M29.3247 50.0743C25.4971 49.9385 21.759 49.8053 18.0209 49.6719C18.0139 49.6081 18.0069 49.5441 18 49.4804C18.2476 49.4516 18.4941 49.4046 18.7433 49.3969C22.1524 49.2929 25.5643 49.2202 28.9701 49.0794C30.0499 49.0347 30.2443 49.6114 31 50.0769C30.3244 50.0769 29.8696 50.0769 29.3247 50.0743Z" fill="#E63B3C"/>
<path d="M32.4725 37.506C31.6791 38.2689 30.9414 38.998 30.1755 39.7146C30.037 39.844 29.7549 40.0181 29.5884 39.9985C29.3951 39.9756 29.1623 39.7761 29.1081 39.6286C28.5206 38.0325 30.3995 36.7561 33 37.0396C32.8241 37.1962 32.6712 37.332 32.4725 37.506Z" fill="#FF0100"/>
<path d="M1.25048 39.2849C2.20572 39.2035 3.08661 39.073 3.96644 39.077C4.32862 39.0786 4.9737 39.3478 4.99563 39.5331C5.05716 40.0547 4.45644 40.1075 3.95765 40.0655C2.64177 39.9546 1.33 39.8111 0.0165336 39.6804C0.0110497 39.6065 0.00548386 39.5325 0 39.4585C0.391854 39.4024 0.783787 39.3464 1.25048 39.2849Z" fill="#E63B3C"/>
<path d="M68.0115 25C69.3092 26.3367 69.3431 28.604 68.0308 30C67.9869 28.2848 67.9992 26.6423 68.0115 25Z" fill="#E63B3C"/>
<path d="M67.9721 25.1199C68.0161 26.7213 67.999 28.273 67.9821 29.9061C67.7101 29.9914 67.4391 29.9954 67.0651 30C66.9781 28.3645 66.9931 26.7282 67.0251 25.0111C67.3321 24.9771 67.6211 25.0236 67.9721 25.1199Z" fill="#ECECEC"/>
<path d="M62.5105 29.6616C61.4039 30.3692 60.6125 30.1758 60 29.0567C60.0416 28.3368 60.2329 27.6777 60.9498 27.5098C61.3364 27.4189 61.8298 27.6334 62.2352 27.8006C62.4486 27.8884 62.578 28.1704 62.8941 28.5379C63.0345 27.972 63.138 27.5564 63.2619 27.0769C64.2368 27.5988 64.2438 28.6686 63.2956 29.2007C63.0439 29.3417 62.7858 29.471 62.5105 29.6616Z" fill="#383838"/>
<path d="M51 36.5C50.7598 37.1589 50.8664 37.3019 50.5 37.9999C50.3123 37.9578 49.5451 38.1512 49.5 37.9999C49.232 37.1117 49.2057 37.5034 48.5 37.4998C47.7984 37.4964 47.7928 36.8433 47.5945 37.8343C47.5002 37.8196 46.8476 37.8489 46.7534 37.8343C46.6501 37.2923 46.5 36.9998 46.5 36.4998C48 36.4998 49.2713 36.4799 51 36.5Z" fill="#E63B3C"/>
<path d="M39.9999 46.0878C40.0342 47.1964 38.3043 48.8143 36.9999 49C35.6131 49.1976 33.3212 48.4545 33 47.5C32.9346 47.3059 33.05 46.366 32.9998 46.125C33.3821 46.0791 34.7664 46.0782 35.2251 46.125C35.4057 46.4283 35.3964 46.7937 35.6449 46.9117C36.0093 47.0845 36.6082 47.201 37.0178 47.1244C37.7172 46.9934 37.818 46.5401 37.7072 46.0879C38.1123 46.0827 39.5192 46.0885 39.9999 46.0878Z" fill="#D8D8D8"/>
<path d="M37.901 46.0776C38.1272 46.5067 38.0032 46.9315 37.1351 47.0544C36.6271 47.1263 35.8843 47.017 35.4323 46.855C35.1241 46.7443 35.1356 46.4017 35 46.1213C35.9342 46.0775 36.8725 46.075 37.901 46.0776Z" fill="#383838"/>
<path d="M73.3215 46.4424C72.9007 45.617 72.4977 44.8576 72.0826 44.0769C73.4698 44.1353 74.6885 45.0421 74.9528 46.167C75.1993 47.2205 74.4574 48.4012 73.2647 48.8518C72.0412 49.3141 70.5039 49.0428 69.6891 48.2358C69.004 47.5572 68.5556 45.8846 69.7061 45.015C70.0029 45.6726 70.2972 46.2835 70.5542 46.9053C70.8348 47.5876 71.4064 47.8515 72.2204 47.714C72.9801 47.5857 73.4366 47.2135 73.3215 46.4424Z" fill="#D8D8D8"/>
<path d="M57.476 18.167C58.1251 17.998 58.7657 18.0692 58.962 18.3599C59.0786 18.5322 58.9135 18.8762 58.6492 19.0159C58.4927 19.13 57.6324 19.0658 57.3586 18.9719C56.7963 18.7792 56.941 18.4337 57.476 18.167Z" fill="#E63534"/>
<path d="M47.4253 18.1428C47.7174 18.1173 48.073 18.053 48.2775 18.0863C48.8315 18.1762 49.2227 18.5299 48.8586 18.7369C48.6874 18.8983 48.1559 19.088 47.8127 19.0764C47.2347 19.0569 46.9023 18.7791 47.0255 18.4813C46.9992 18.3974 47.2308 18.2534 47.4253 18.1428Z" fill="#E63534"/>
<path d="M53.282 20.0769C52.8579 19.9106 52.3732 19.7116 52.0663 19.5169C51.9681 19.4548 51.9838 19.2131 52.0813 19.126C52.1536 19.061 52.5927 19.0601 52.7025 19.126C53.3257 19.5009 53.6809 19.5317 54.3048 19.1713C54.4193 19.105 54.8039 19.0993 54.988 19.0909C54.9798 19.2275 55.0391 19.4537 54.9511 19.4863C54.4016 19.6895 53.9284 19.9067 53.282 20.0769Z" fill="#E63534"/>
</svg>
