<?xml version="1.0" standalone="no"?>
<!DOCTYPE svg PUBLIC "-//W3C//DTD SVG 20010904//EN"
 "http://www.w3.org/TR/2001/REC-SVG-20010904/DTD/svg10.dtd">
<svg version="1.0" xmlns="http://www.w3.org/2000/svg"
 width="1536.000000pt" height="1024.000000pt" viewBox="0 0 1536.000000 1024.000000"
 preserveAspectRatio="xMidYMid meet">

<g transform="translate(0.000000,1024.000000) scale(0.100000,-0.100000)"
fill="#000000" stroke="none">
<path d="M3020 8154 c-25 -2 -124 -8 -220 -14 -423 -26 -849 -116 -1147 -243
-250 -106 -466 -280 -549 -442 -132 -256 -175 -675 -101 -965 43 -167 100
-272 213 -390 71 -75 81 -98 60 -138 -24 -46 -69 -79 -195 -141 -139 -69 -182
-95 -286 -176 -138 -107 -261 -243 -343 -378 -103 -171 -182 -472 -182 -699
l0 -77 -55 -35 c-100 -64 -153 -168 -164 -321 -12 -161 18 -287 81 -340 40
-34 90 -33 124 0 14 14 27 25 31 25 3 0 20 -13 39 -29 32 -29 88 -51 127 -51
10 0 32 14 49 30 l30 30 -4 135 c-2 74 -1 135 1 135 2 0 27 -14 55 -32 70 -44
118 -44 157 0 60 67 25 154 -123 308 l-98 101 0 59 c0 84 16 171 55 311 85
297 215 479 456 641 59 39 109 69 111 67 2 -2 0 -44 -5 -92 -12 -116 -3 -339
18 -436 69 -331 260 -583 572 -757 l80 -44 8 -584 c6 -498 5 -586 -7 -599 -8
-7 -70 -25 -137 -39 -68 -13 -140 -33 -160 -43 -102 -53 -145 -160 -105 -261
17 -43 45 -63 103 -74 67 -12 552 51 634 83 59 23 58 17 51 730 -5 485 -4 650
4 655 7 4 74 -2 149 -13 400 -59 623 -74 1103 -75 388 -1 570 12 710 49 30 8
61 15 68 15 11 0 12 -120 6 -657 -8 -751 -12 -708 73 -737 62 -22 357 -64 499
-73 130 -7 161 4 194 72 34 71 22 146 -35 213 -42 48 -89 67 -257 106 -64 15
-120 33 -125 39 -5 7 -5 258 0 577 7 493 10 566 23 575 9 6 48 31 88 57 258
167 442 456 503 788 14 75 17 146 16 337 l-1 241 65 12 c192 33 411 154 583
321 208 202 338 493 388 866 l17 126 51 17 c73 25 104 43 148 86 89 87 118
237 65 339 -46 90 -125 122 -255 102 l-51 -7 -12 122 c-18 176 -36 208 -115
208 -60 0 -86 -33 -96 -120 -5 -41 -9 -117 -10 -169 0 -92 0 -93 -22 -87 -109
31 -172 25 -208 -21 -47 -60 -7 -146 141 -298 l98 -100 -10 -115 c-23 -278
-87 -464 -220 -636 -93 -121 -242 -233 -379 -285 -77 -30 -237 -38 -273 -15
-32 22 -60 78 -49 103 4 10 32 56 63 103 150 227 199 392 199 674 0 242 -26
393 -95 556 -64 152 -158 268 -307 377 -287 211 -759 349 -1361 398 -199 16
-472 26 -547 19z m-732 -1161 c-10 -2 -28 -2 -40 0 -13 2 -5 4 17 4 22 1 32
-1 23 -4z m1845 0 c-7 -2 -21 -2 -30 0 -10 3 -4 5 12 5 17 0 24 -2 18 -5z
m-1802 -20 c13 -16 12 -17 -3 -4 -10 7 -18 15 -18 17 0 8 8 3 21 -13z m1692
-38 c-3 -9 -8 -14 -10 -11 -3 3 -2 9 2 15 9 16 15 13 8 -4z m-1860 -10 c-3 -9
-8 -14 -10 -11 -3 3 -2 9 2 15 9 16 15 13 8 -4z m226 -94 c1 -61 -5 -48 -12
24 -3 36 -2 52 3 40 5 -11 9 -40 9 -64z m1616 4 c0 -41 -3 -67 -7 -57 -12 30
-8 132 6 132 0 0 1 -34 1 -75z m-1868 -12 c-3 -10 -5 -2 -5 17 0 19 2 27 5 18
2 -10 2 -26 0 -35z m2103 -30 c-11 -17 -11 -17 -6 0 3 10 7 31 7 45 l2 27 4
-27 c2 -15 -1 -35 -7 -45z m-1280 -48 c0 -2 -10 -10 -22 -16 -21 -11 -22 -11
-9 4 13 16 31 23 31 12z m43 -2 c-7 -2 -19 -2 -25 0 -7 3 -2 5 12 5 14 0 19
-2 13 -5z m460 0 c-7 -2 -19 -2 -25 0 -7 3 -2 5 12 5 14 0 19 -2 13 -5z m-422
-30 c13 -16 12 -17 -3 -4 -10 7 -18 15 -18 17 0 8 8 3 21 -13z m1054 -32 l30
-11 -30 6 c-16 3 -41 17 -55 32 l-25 26 25 -21 c14 -11 39 -26 55 -32z m-1894
22 c13 -16 12 -17 -3 -4 -10 7 -18 15 -18 17 0 8 8 3 21 -13z m710 -25 c-3
-21 -6 -26 -9 -15 -3 17 3 47 11 47 2 0 1 -15 -2 -32z m163 -4 c3 -8 2 -12 -4
-9 -6 3 -10 10 -10 16 0 14 7 11 14 -7z m276 -19 c-7 -8 -17 -15 -23 -15 -6 0
-2 7 9 15 25 19 30 19 14 0z m-48 -27 c-6 -6 -40 -13 -74 -14 l-63 -3 63 8
c34 4 65 11 69 14 3 4 9 7 12 7 3 0 0 -5 -7 -12z m-145 -4 c-3 -3 -12 -4 -19
-1 -8 3 -5 6 6 6 11 1 17 -2 13 -5z m-217 -29 c14 -19 14 -19 -2 -6 -10 7 -18
18 -18 24 0 6 1 8 3 6 1 -2 9 -13 17 -24z m530 -39 c0 -2 -8 -10 -17 -17 -16
-13 -17 -12 -4 4 13 16 21 21 21 13z m-445 -36 c3 -6 -1 -7 -9 -4 -18 7 -21
14 -7 14 6 0 13 -4 16 -10z m40 -28 c-3 -3 -11 0 -18 7 -9 10 -8 11 6 5 10 -3
15 -9 12 -12z m51 -20 c-10 -2 -22 0 -28 6 -6 6 0 7 19 4 21 -5 23 -7 9 -10z
m211 2 c-3 -3 -12 -4 -19 -1 -8 3 -5 6 6 6 11 1 17 -2 13 -5z m-69 -11 c-21
-2 -57 -2 -80 0 -24 2 -7 4 37 4 44 0 63 -2 43 -4z"/>
<path d="M9540 5141 c-196 -53 -326 -185 -380 -386 -30 -111 -30 -307 -1 -419
67 -254 267 -406 536 -406 276 0 473 141 552 396 14 47 18 91 17 219 0 146 -3
167 -27 241 -47 141 -137 253 -250 311 -122 61 -313 80 -447 44z m245 -202
c107 -28 192 -127 221 -256 20 -93 15 -253 -11 -328 -54 -153 -197 -243 -347
-216 -182 32 -267 179 -256 443 6 131 28 201 84 267 72 83 197 120 309 90z"/>
<path d="M5958 5135 c-5 -5 -8 -274 -8 -598 l0 -589 268 5 c199 4 283 9 331
21 209 53 353 200 396 401 8 39 15 123 15 190 0 197 -43 317 -151 421 -67 63
-170 116 -264 134 -70 14 -576 26 -587 15z m554 -226 c132 -49 198 -169 198
-359 0 -196 -83 -334 -226 -376 -34 -10 -99 -16 -172 -17 l-117 -2 -1 380 c-1
209 1 384 4 389 7 13 271 0 314 -15z"/>
<path d="M7147 5133 c-4 -3 -7 -271 -7 -595 l0 -588 400 0 400 0 0 100 0 100
-275 0 -275 0 0 150 0 150 235 0 235 0 0 100 0 100 -235 0 -235 0 0 140 0 140
270 0 270 0 0 105 0 105 -388 0 c-214 0 -392 -3 -395 -7z"/>
<path d="M8040 5130 c0 -6 76 -246 169 -533 94 -287 179 -551 190 -587 l21
-65 143 2 142 2 66 188 c97 278 339 989 339 997 0 4 -55 5 -122 4 l-121 -3
-22 -70 c-269 -857 -270 -857 -281 -830 -4 11 -69 218 -143 460 l-136 440
-123 3 c-82 2 -122 -1 -122 -8z"/>
<path d="M10426 5133 c-3 -4 -6 -271 -6 -595 l0 -588 125 0 125 0 0 215 0 215
89 0 89 0 123 -215 123 -215 133 0 c73 0 133 3 133 8 0 4 -61 108 -135 231
l-134 225 48 27 c105 60 164 164 169 301 4 94 -12 162 -53 228 -50 79 -155
144 -249 154 -76 8 -573 15 -580 9z m564 -228 c105 -62 96 -241 -15 -295 -35
-17 -62 -20 -173 -20 l-132 0 0 171 0 171 143 -3 c120 -4 147 -7 177 -24z"/>
<path d="M11842 5127 c-5 -7 -51 -133 -102 -282 -240 -701 -300 -879 -300
-886 0 -5 54 -9 119 -9 l119 0 7 28 c3 15 23 73 43 129 l37 103 211 0 211 0
16 -42 c9 -24 30 -82 48 -130 l31 -88 129 0 c71 0 129 2 129 3 0 2 -23 69 -51
148 -28 79 -115 331 -194 559 -79 228 -149 430 -155 448 l-12 33 -139 -2 c-91
0 -141 -5 -147 -12z m219 -467 c42 -132 73 -242 71 -245 -3 -3 -72 -5 -154 -5
-114 0 -148 3 -148 13 0 7 22 78 48 157 26 80 59 184 72 233 14 48 27 87 30
87 3 0 39 -108 81 -240z"/>
<path d="M12380 5122 c0 -7 92 -171 205 -364 l205 -352 0 -228 0 -228 125 0
125 0 0 232 0 231 115 206 c63 113 155 274 204 356 49 83 86 154 82 158 -4 4
-64 6 -132 5 l-124 -3 -130 -252 c-71 -139 -132 -253 -135 -253 -3 0 -61 106
-130 236 -69 130 -129 242 -135 249 -14 20 -275 26 -275 7z"/>
<path d="M13721 5123 c-5 -10 -25 -65 -44 -123 -71 -210 -177 -521 -266 -779
-50 -145 -91 -265 -91 -267 0 -2 53 -4 118 -4 l117 0 46 128 45 127 216 3 215
2 28 -77 c15 -43 37 -102 47 -130 l19 -53 125 0 c68 0 124 3 124 8 0 4 -7 25
-14 47 -8 22 -92 263 -186 535 -95 272 -180 518 -189 545 l-18 50 -141 3
c-127 2 -142 1 -151 -15z m210 -424 c87 -277 87 -277 81 -283 -8 -9 -290 -7
-295 2 -3 4 8 45 24 92 16 47 50 153 76 237 26 84 48 151 50 149 2 -1 30 -90
64 -197z"/>
</g>
</svg>
